<svg width="466" height="303" viewBox="0 0 466 303" fill="none" xmlns="http://www.w3.org/2000/svg">
<path d="M312 178H463C464.657 178 466 179.343 466 181V245C466 246.657 464.657 248 463 248H312V178Z" fill="#FC0A7E"/>
<g filter="url(#filter0_d_1_283)">
<path d="M1 181C1 179.343 2.34315 178 4 178H312V248H4C2.34314 248 1 246.657 1 245V181Z" fill="white"/>
</g>
<path d="M353.07 215.797L354.227 215.391C354.924 216.599 356.008 217.203 357.477 217.203C358.289 217.203 358.951 217.005 359.461 216.609C359.971 216.214 360.227 215.672 360.227 214.984C360.227 214.641 360.154 214.339 360.008 214.078C359.862 213.807 359.628 213.573 359.305 213.375C358.992 213.177 358.701 213.021 358.43 212.906C358.159 212.792 357.789 212.656 357.32 212.5C356.945 212.375 356.68 212.286 356.523 212.234C356.367 212.182 356.117 212.089 355.773 211.953C355.44 211.818 355.19 211.698 355.023 211.594C354.867 211.49 354.669 211.349 354.43 211.172C354.19 210.984 354.013 210.797 353.898 210.609C353.794 210.422 353.695 210.198 353.602 209.938C353.518 209.667 353.477 209.38 353.477 209.078C353.477 208.151 353.831 207.411 354.539 206.859C355.247 206.297 356.195 206.016 357.383 206.016C358.289 206.016 359.076 206.224 359.742 206.641C360.419 207.057 360.904 207.578 361.195 208.203L360.133 208.578C359.518 207.578 358.591 207.078 357.352 207.078C356.539 207.078 355.904 207.26 355.445 207.625C354.987 207.99 354.758 208.474 354.758 209.078C354.758 209.349 354.82 209.604 354.945 209.844C355.07 210.073 355.206 210.26 355.352 210.406C355.508 210.542 355.753 210.693 356.086 210.859C356.43 211.016 356.695 211.13 356.883 211.203C357.081 211.266 357.398 211.37 357.836 211.516C357.94 211.547 358.018 211.573 358.07 211.594C358.581 211.76 359.008 211.922 359.352 212.078C359.695 212.234 360.049 212.443 360.414 212.703C360.779 212.964 361.049 213.281 361.227 213.656C361.414 214.021 361.508 214.448 361.508 214.938C361.508 215.99 361.138 216.812 360.398 217.406C359.669 217.99 358.685 218.281 357.445 218.281C356.383 218.281 355.482 218.057 354.742 217.609C354.003 217.161 353.445 216.557 353.07 215.797ZM363.305 215.047V209.594H364.523V214.797C364.523 216.443 365.128 217.266 366.336 217.266C367.076 217.266 367.638 216.979 368.023 216.406C368.419 215.833 368.617 215.156 368.617 214.375V209.594H369.805V218H368.648V216.641C368.565 216.984 368.305 217.344 367.867 217.719C367.44 218.094 366.836 218.281 366.055 218.281C365.253 218.281 364.591 218.01 364.07 217.469C363.56 216.917 363.305 216.109 363.305 215.047ZM372.414 218V205.859H373.602V211.094C373.747 210.656 374.055 210.25 374.523 209.875C374.992 209.5 375.539 209.312 376.164 209.312C377.206 209.312 378.055 209.714 378.711 210.516C379.367 211.307 379.695 212.396 379.695 213.781C379.695 214.552 379.586 215.24 379.367 215.844C379.159 216.438 378.878 216.906 378.523 217.25C378.18 217.594 377.805 217.849 377.398 218.016C377.003 218.193 376.591 218.281 376.164 218.281C375.57 218.281 375.044 218.109 374.586 217.766C374.128 217.411 373.799 216.99 373.602 216.5V218H372.414ZM373.57 213.781C373.57 214.844 373.805 215.693 374.273 216.328C374.753 216.953 375.331 217.266 376.008 217.266C376.727 217.266 377.315 216.958 377.773 216.344C378.242 215.719 378.477 214.865 378.477 213.781C378.477 212.729 378.247 211.891 377.789 211.266C377.331 210.641 376.737 210.328 376.008 210.328C375.331 210.328 374.753 210.641 374.273 211.266C373.805 211.891 373.57 212.729 373.57 213.781ZM380.945 216.344L381.852 215.812C382.466 216.781 383.299 217.266 384.352 217.266C384.987 217.266 385.492 217.151 385.867 216.922C386.253 216.693 386.445 216.359 386.445 215.922C386.445 215.734 386.398 215.568 386.305 215.422C386.211 215.266 386.107 215.141 385.992 215.047C385.888 214.943 385.695 214.833 385.414 214.719C385.133 214.594 384.898 214.505 384.711 214.453C384.534 214.391 384.237 214.292 383.82 214.156C383.456 214.042 383.143 213.927 382.883 213.812C382.622 213.698 382.352 213.547 382.07 213.359C381.789 213.161 381.57 212.922 381.414 212.641C381.268 212.359 381.195 212.036 381.195 211.672C381.195 210.974 381.477 210.406 382.039 209.969C382.602 209.531 383.372 209.312 384.352 209.312C385.039 209.312 385.669 209.495 386.242 209.859C386.815 210.224 387.227 210.651 387.477 211.141L386.664 211.672C386.445 211.307 386.128 210.995 385.711 210.734C385.305 210.464 384.852 210.328 384.352 210.328C383.716 210.328 383.232 210.453 382.898 210.703C382.576 210.943 382.414 211.271 382.414 211.688C382.414 211.927 382.477 212.146 382.602 212.344C382.727 212.531 382.914 212.698 383.164 212.844C383.424 212.979 383.659 213.089 383.867 213.172C384.086 213.245 384.372 213.339 384.727 213.453C385.029 213.547 385.294 213.635 385.523 213.719C385.763 213.802 386.023 213.917 386.305 214.062C386.586 214.208 386.82 214.365 387.008 214.531C387.195 214.688 387.352 214.891 387.477 215.141C387.602 215.38 387.664 215.641 387.664 215.922C387.664 216.589 387.367 217.151 386.773 217.609C386.19 218.057 385.383 218.281 384.352 218.281C383.602 218.281 382.935 218.115 382.352 217.781C381.768 217.438 381.299 216.958 380.945 216.344ZM388.898 213.797C388.898 212.464 389.237 211.385 389.914 210.562C390.591 209.729 391.503 209.312 392.648 209.312C393.398 209.312 394.039 209.531 394.57 209.969C395.112 210.396 395.471 210.906 395.648 211.5L394.617 211.797C394.461 211.38 394.206 211.031 393.852 210.75C393.508 210.469 393.107 210.328 392.648 210.328C391.878 210.328 391.263 210.656 390.805 211.312C390.346 211.969 390.117 212.797 390.117 213.797C390.117 214.859 390.357 215.703 390.836 216.328C391.315 216.953 391.919 217.266 392.648 217.266C393.138 217.266 393.581 217.109 393.977 216.797C394.383 216.474 394.669 216.104 394.836 215.688L395.867 216.016C395.648 216.641 395.247 217.177 394.664 217.625C394.091 218.062 393.419 218.281 392.648 218.281C391.534 218.281 390.628 217.875 389.93 217.062C389.242 216.25 388.898 215.161 388.898 213.797ZM397.492 218V209.594H398.648V210.812C398.815 210.438 399.091 210.094 399.477 209.781C399.862 209.469 400.357 209.312 400.961 209.312C401.409 209.312 401.805 209.385 402.148 209.531V210.625C401.773 210.479 401.378 210.406 400.961 210.406C400.253 210.406 399.701 210.672 399.305 211.203C398.909 211.734 398.711 212.438 398.711 213.312V218H397.492ZM403.477 207.703V206.125H405.008V207.703H403.477ZM403.664 218V209.594H404.852V218H403.664ZM407.742 218V205.859H408.93V211.094C409.076 210.656 409.383 210.25 409.852 209.875C410.32 209.5 410.867 209.312 411.492 209.312C412.534 209.312 413.383 209.714 414.039 210.516C414.695 211.307 415.023 212.396 415.023 213.781C415.023 214.552 414.914 215.24 414.695 215.844C414.487 216.438 414.206 216.906 413.852 217.25C413.508 217.594 413.133 217.849 412.727 218.016C412.331 218.193 411.919 218.281 411.492 218.281C410.898 218.281 410.372 218.109 409.914 217.766C409.456 217.411 409.128 216.99 408.93 216.5V218H407.742ZM408.898 213.781C408.898 214.844 409.133 215.693 409.602 216.328C410.081 216.953 410.659 217.266 411.336 217.266C412.055 217.266 412.643 216.958 413.102 216.344C413.57 215.719 413.805 214.865 413.805 213.781C413.805 212.729 413.576 211.891 413.117 211.266C412.659 210.641 412.065 210.328 411.336 210.328C410.659 210.328 410.081 210.641 409.602 211.266C409.133 211.891 408.898 212.729 408.898 213.781ZM416.398 213.734C416.398 212.422 416.753 211.359 417.461 210.547C418.169 209.724 419.086 209.312 420.211 209.312C421.357 209.312 422.258 209.714 422.914 210.516C423.57 211.307 423.898 212.323 423.898 213.562C423.898 213.708 423.888 213.917 423.867 214.188H417.617C417.617 215.031 417.852 215.755 418.32 216.359C418.789 216.964 419.44 217.266 420.273 217.266C420.815 217.266 421.294 217.141 421.711 216.891C422.128 216.63 422.451 216.286 422.68 215.859L423.711 216.172C423.451 216.786 423.029 217.292 422.445 217.688C421.862 218.083 421.138 218.281 420.273 218.281C419.107 218.281 418.169 217.865 417.461 217.031C416.753 216.198 416.398 215.099 416.398 213.734ZM417.648 213.266H422.68C422.68 212.443 422.456 211.75 422.008 211.188C421.56 210.615 420.961 210.328 420.211 210.328C419.451 210.328 418.836 210.62 418.367 211.203C417.909 211.786 417.669 212.474 417.648 213.266Z" fill="#1C1C1C"/>
<path d="M353.07 215.797L354.227 215.391C354.924 216.599 356.008 217.203 357.477 217.203C358.289 217.203 358.951 217.005 359.461 216.609C359.971 216.214 360.227 215.672 360.227 214.984C360.227 214.641 360.154 214.339 360.008 214.078C359.862 213.807 359.628 213.573 359.305 213.375C358.992 213.177 358.701 213.021 358.43 212.906C358.159 212.792 357.789 212.656 357.32 212.5C356.945 212.375 356.68 212.286 356.523 212.234C356.367 212.182 356.117 212.089 355.773 211.953C355.44 211.818 355.19 211.698 355.023 211.594C354.867 211.49 354.669 211.349 354.43 211.172C354.19 210.984 354.013 210.797 353.898 210.609C353.794 210.422 353.695 210.198 353.602 209.938C353.518 209.667 353.477 209.38 353.477 209.078C353.477 208.151 353.831 207.411 354.539 206.859C355.247 206.297 356.195 206.016 357.383 206.016C358.289 206.016 359.076 206.224 359.742 206.641C360.419 207.057 360.904 207.578 361.195 208.203L360.133 208.578C359.518 207.578 358.591 207.078 357.352 207.078C356.539 207.078 355.904 207.26 355.445 207.625C354.987 207.99 354.758 208.474 354.758 209.078C354.758 209.349 354.82 209.604 354.945 209.844C355.07 210.073 355.206 210.26 355.352 210.406C355.508 210.542 355.753 210.693 356.086 210.859C356.43 211.016 356.695 211.13 356.883 211.203C357.081 211.266 357.398 211.37 357.836 211.516C357.94 211.547 358.018 211.573 358.07 211.594C358.581 211.76 359.008 211.922 359.352 212.078C359.695 212.234 360.049 212.443 360.414 212.703C360.779 212.964 361.049 213.281 361.227 213.656C361.414 214.021 361.508 214.448 361.508 214.938C361.508 215.99 361.138 216.812 360.398 217.406C359.669 217.99 358.685 218.281 357.445 218.281C356.383 218.281 355.482 218.057 354.742 217.609C354.003 217.161 353.445 216.557 353.07 215.797ZM363.305 215.047V209.594H364.523V214.797C364.523 216.443 365.128 217.266 366.336 217.266C367.076 217.266 367.638 216.979 368.023 216.406C368.419 215.833 368.617 215.156 368.617 214.375V209.594H369.805V218H368.648V216.641C368.565 216.984 368.305 217.344 367.867 217.719C367.44 218.094 366.836 218.281 366.055 218.281C365.253 218.281 364.591 218.01 364.07 217.469C363.56 216.917 363.305 216.109 363.305 215.047ZM372.414 218V205.859H373.602V211.094C373.747 210.656 374.055 210.25 374.523 209.875C374.992 209.5 375.539 209.312 376.164 209.312C377.206 209.312 378.055 209.714 378.711 210.516C379.367 211.307 379.695 212.396 379.695 213.781C379.695 214.552 379.586 215.24 379.367 215.844C379.159 216.438 378.878 216.906 378.523 217.25C378.18 217.594 377.805 217.849 377.398 218.016C377.003 218.193 376.591 218.281 376.164 218.281C375.57 218.281 375.044 218.109 374.586 217.766C374.128 217.411 373.799 216.99 373.602 216.5V218H372.414ZM373.57 213.781C373.57 214.844 373.805 215.693 374.273 216.328C374.753 216.953 375.331 217.266 376.008 217.266C376.727 217.266 377.315 216.958 377.773 216.344C378.242 215.719 378.477 214.865 378.477 213.781C378.477 212.729 378.247 211.891 377.789 211.266C377.331 210.641 376.737 210.328 376.008 210.328C375.331 210.328 374.753 210.641 374.273 211.266C373.805 211.891 373.57 212.729 373.57 213.781ZM380.945 216.344L381.852 215.812C382.466 216.781 383.299 217.266 384.352 217.266C384.987 217.266 385.492 217.151 385.867 216.922C386.253 216.693 386.445 216.359 386.445 215.922C386.445 215.734 386.398 215.568 386.305 215.422C386.211 215.266 386.107 215.141 385.992 215.047C385.888 214.943 385.695 214.833 385.414 214.719C385.133 214.594 384.898 214.505 384.711 214.453C384.534 214.391 384.237 214.292 383.82 214.156C383.456 214.042 383.143 213.927 382.883 213.812C382.622 213.698 382.352 213.547 382.07 213.359C381.789 213.161 381.57 212.922 381.414 212.641C381.268 212.359 381.195 212.036 381.195 211.672C381.195 210.974 381.477 210.406 382.039 209.969C382.602 209.531 383.372 209.312 384.352 209.312C385.039 209.312 385.669 209.495 386.242 209.859C386.815 210.224 387.227 210.651 387.477 211.141L386.664 211.672C386.445 211.307 386.128 210.995 385.711 210.734C385.305 210.464 384.852 210.328 384.352 210.328C383.716 210.328 383.232 210.453 382.898 210.703C382.576 210.943 382.414 211.271 382.414 211.688C382.414 211.927 382.477 212.146 382.602 212.344C382.727 212.531 382.914 212.698 383.164 212.844C383.424 212.979 383.659 213.089 383.867 213.172C384.086 213.245 384.372 213.339 384.727 213.453C385.029 213.547 385.294 213.635 385.523 213.719C385.763 213.802 386.023 213.917 386.305 214.062C386.586 214.208 386.82 214.365 387.008 214.531C387.195 214.688 387.352 214.891 387.477 215.141C387.602 215.38 387.664 215.641 387.664 215.922C387.664 216.589 387.367 217.151 386.773 217.609C386.19 218.057 385.383 218.281 384.352 218.281C383.602 218.281 382.935 218.115 382.352 217.781C381.768 217.438 381.299 216.958 380.945 216.344ZM388.898 213.797C388.898 212.464 389.237 211.385 389.914 210.562C390.591 209.729 391.503 209.312 392.648 209.312C393.398 209.312 394.039 209.531 394.57 209.969C395.112 210.396 395.471 210.906 395.648 211.5L394.617 211.797C394.461 211.38 394.206 211.031 393.852 210.75C393.508 210.469 393.107 210.328 392.648 210.328C391.878 210.328 391.263 210.656 390.805 211.312C390.346 211.969 390.117 212.797 390.117 213.797C390.117 214.859 390.357 215.703 390.836 216.328C391.315 216.953 391.919 217.266 392.648 217.266C393.138 217.266 393.581 217.109 393.977 216.797C394.383 216.474 394.669 216.104 394.836 215.688L395.867 216.016C395.648 216.641 395.247 217.177 394.664 217.625C394.091 218.062 393.419 218.281 392.648 218.281C391.534 218.281 390.628 217.875 389.93 217.062C389.242 216.25 388.898 215.161 388.898 213.797ZM397.492 218V209.594H398.648V210.812C398.815 210.438 399.091 210.094 399.477 209.781C399.862 209.469 400.357 209.312 400.961 209.312C401.409 209.312 401.805 209.385 402.148 209.531V210.625C401.773 210.479 401.378 210.406 400.961 210.406C400.253 210.406 399.701 210.672 399.305 211.203C398.909 211.734 398.711 212.438 398.711 213.312V218H397.492ZM403.477 207.703V206.125H405.008V207.703H403.477ZM403.664 218V209.594H404.852V218H403.664ZM407.742 218V205.859H408.93V211.094C409.076 210.656 409.383 210.25 409.852 209.875C410.32 209.5 410.867 209.312 411.492 209.312C412.534 209.312 413.383 209.714 414.039 210.516C414.695 211.307 415.023 212.396 415.023 213.781C415.023 214.552 414.914 215.24 414.695 215.844C414.487 216.438 414.206 216.906 413.852 217.25C413.508 217.594 413.133 217.849 412.727 218.016C412.331 218.193 411.919 218.281 411.492 218.281C410.898 218.281 410.372 218.109 409.914 217.766C409.456 217.411 409.128 216.99 408.93 216.5V218H407.742ZM408.898 213.781C408.898 214.844 409.133 215.693 409.602 216.328C410.081 216.953 410.659 217.266 411.336 217.266C412.055 217.266 412.643 216.958 413.102 216.344C413.57 215.719 413.805 214.865 413.805 213.781C413.805 212.729 413.576 211.891 413.117 211.266C412.659 210.641 412.065 210.328 411.336 210.328C410.659 210.328 410.081 210.641 409.602 211.266C409.133 211.891 408.898 212.729 408.898 213.781ZM416.398 213.734C416.398 212.422 416.753 211.359 417.461 210.547C418.169 209.724 419.086 209.312 420.211 209.312C421.357 209.312 422.258 209.714 422.914 210.516C423.57 211.307 423.898 212.323 423.898 213.562C423.898 213.708 423.888 213.917 423.867 214.188H417.617C417.617 215.031 417.852 215.755 418.32 216.359C418.789 216.964 419.44 217.266 420.273 217.266C420.815 217.266 421.294 217.141 421.711 216.891C422.128 216.63 422.451 216.286 422.68 215.859L423.711 216.172C423.451 216.786 423.029 217.292 422.445 217.688C421.862 218.083 421.138 218.281 420.273 218.281C419.107 218.281 418.169 217.865 417.461 217.031C416.753 216.198 416.398 215.099 416.398 213.734ZM417.648 213.266H422.68C422.68 212.443 422.456 211.75 422.008 211.188C421.56 210.615 420.961 210.328 420.211 210.328C419.451 210.328 418.836 210.62 418.367 211.203C417.909 211.786 417.669 212.474 417.648 213.266Z" fill="#1C1C1C"/>
<path d="M23.4219 218V206.297H30.7344V207.359H24.6719V211.422H30.1406V212.469H24.6719V216.938H30.8594V218H23.4219ZM32.7344 218V209.594H33.9219V211.031H33.9375C34.0625 210.615 34.3698 210.224 34.8594 209.859C35.349 209.495 35.9323 209.312 36.6094 209.312C37.3906 209.312 38.0312 209.557 38.5312 210.047C39.0417 210.536 39.2969 211.375 39.2969 212.562V218H38.0781V212.766C38.0781 211.141 37.4948 210.328 36.3281 210.328C35.6823 210.328 35.125 210.589 34.6562 211.109C34.1875 211.63 33.9531 212.255 33.9531 212.984V218H32.7344ZM40.6875 210.609V209.594H42.1562V206.906H43.375V209.594H45.5938V210.609H43.375V215.531C43.375 216.052 43.474 216.422 43.6719 216.641C43.8698 216.859 44.1875 216.969 44.625 216.969H45.5938V218H44.4688C42.9271 218 42.1562 217.214 42.1562 215.641V210.609H40.6875ZM46.7656 213.734C46.7656 212.422 47.1198 211.359 47.8281 210.547C48.5365 209.724 49.4531 209.312 50.5781 209.312C51.724 209.312 52.625 209.714 53.2812 210.516C53.9375 211.307 54.2656 212.323 54.2656 213.562C54.2656 213.708 54.2552 213.917 54.2344 214.188H47.9844C47.9844 215.031 48.2188 215.755 48.6875 216.359C49.1562 216.964 49.8073 217.266 50.6406 217.266C51.1823 217.266 51.6615 217.141 52.0781 216.891C52.4948 216.63 52.8177 216.286 53.0469 215.859L54.0781 216.172C53.8177 216.786 53.3958 217.292 52.8125 217.688C52.2292 218.083 51.5052 218.281 50.6406 218.281C49.474 218.281 48.5365 217.865 47.8281 217.031C47.1198 216.198 46.7656 215.099 46.7656 213.734ZM48.0156 213.266H53.0469C53.0469 212.443 52.8229 211.75 52.375 211.188C51.9271 210.615 51.3281 210.328 50.5781 210.328C49.8177 210.328 49.2031 210.62 48.7344 211.203C48.276 211.786 48.0365 212.474 48.0156 213.266ZM56.1719 218V209.594H57.3281V210.812C57.4948 210.438 57.7708 210.094 58.1562 209.781C58.5417 209.469 59.0365 209.312 59.6406 209.312C60.0885 209.312 60.4844 209.385 60.8281 209.531V210.625C60.4531 210.479 60.0573 210.406 59.6406 210.406C58.9323 210.406 58.3802 210.672 57.9844 211.203C57.5885 211.734 57.3906 212.438 57.3906 213.312V218H56.1719ZM64.8125 209.594H66.2188L67.9531 214.516C68.2135 215.245 68.4479 215.953 68.6562 216.641H68.7188C68.875 216.13 69.1042 215.422 69.4062 214.516L71.0625 209.594H72.4375L68.8125 219.406C68.5 220.24 68.1354 220.823 67.7188 221.156C67.3125 221.5 66.8125 221.672 66.2188 221.672H65.75V220.672H66.0312C66.4271 220.672 66.7604 220.557 67.0312 220.328C67.3125 220.099 67.5625 219.688 67.7812 219.094L68.0938 218.109L64.8125 209.594ZM74.2031 213.797C74.2031 214.859 74.4479 215.703 74.9375 216.328C75.4271 216.953 76.0365 217.266 76.7656 217.266C77.4844 217.266 78.0885 216.953 78.5781 216.328C79.0781 215.703 79.3281 214.859 79.3281 213.797C79.3281 212.714 79.0781 211.865 78.5781 211.25C78.0781 210.635 77.474 210.328 76.7656 210.328C76.0469 210.328 75.4375 210.635 74.9375 211.25C74.4479 211.865 74.2031 212.714 74.2031 213.797ZM72.9844 213.797C72.9844 212.516 73.3125 211.448 73.9688 210.594C74.6354 209.74 75.5677 209.312 76.7656 209.312C77.9531 209.312 78.8802 209.74 79.5469 210.594C80.2135 211.448 80.5469 212.516 80.5469 213.797C80.5469 214.339 80.474 214.865 80.3281 215.375C80.1927 215.885 79.9792 216.365 79.6875 216.812C79.4062 217.25 79.0104 217.604 78.5 217.875C78 218.146 77.4219 218.281 76.7656 218.281C76.1198 218.281 75.5417 218.151 75.0312 217.891C74.5312 217.62 74.1354 217.266 73.8438 216.828C73.5625 216.38 73.349 215.901 73.2031 215.391C73.0573 214.88 72.9844 214.349 72.9844 213.797ZM82.3906 215.047V209.594H83.6094V214.797C83.6094 216.443 84.2135 217.266 85.4219 217.266C86.1615 217.266 86.724 216.979 87.1094 216.406C87.5052 215.833 87.7031 215.156 87.7031 214.375V209.594H88.8906V218H87.7344V216.641C87.651 216.984 87.3906 217.344 86.9531 217.719C86.526 218.094 85.9219 218.281 85.1406 218.281C84.3385 218.281 83.6771 218.01 83.1562 217.469C82.6458 216.917 82.3906 216.109 82.3906 215.047ZM91.4062 218V209.594H92.5625V210.812C92.7292 210.438 93.0052 210.094 93.3906 209.781C93.776 209.469 94.2708 209.312 94.875 209.312C95.3229 209.312 95.7188 209.385 96.0625 209.531V210.625C95.6875 210.479 95.2917 210.406 94.875 210.406C94.1667 210.406 93.6146 210.672 93.2188 211.203C92.8229 211.734 92.625 212.438 92.625 213.312V218H91.4062ZM100.609 213.734C100.609 212.422 100.964 211.359 101.672 210.547C102.38 209.724 103.297 209.312 104.422 209.312C105.568 209.312 106.469 209.714 107.125 210.516C107.781 211.307 108.109 212.323 108.109 213.562C108.109 213.708 108.099 213.917 108.078 214.188H101.828C101.828 215.031 102.062 215.755 102.531 216.359C103 216.964 103.651 217.266 104.484 217.266C105.026 217.266 105.505 217.141 105.922 216.891C106.339 216.63 106.661 216.286 106.891 215.859L107.922 216.172C107.661 216.786 107.24 217.292 106.656 217.688C106.073 218.083 105.349 218.281 104.484 218.281C103.318 218.281 102.38 217.865 101.672 217.031C100.964 216.198 100.609 215.099 100.609 213.734ZM101.859 213.266H106.891C106.891 212.443 106.667 211.75 106.219 211.188C105.771 210.615 105.172 210.328 104.422 210.328C103.661 210.328 103.047 210.62 102.578 211.203C102.12 211.786 101.88 212.474 101.859 213.266ZM110.016 218V209.594H111.203V210.859C111.349 210.474 111.625 210.12 112.031 209.797C112.438 209.474 112.953 209.312 113.578 209.312C114.193 209.312 114.661 209.49 114.984 209.844C115.307 210.188 115.557 210.635 115.734 211.188C115.786 211.052 115.87 210.896 115.984 210.719C116.099 210.542 116.26 210.339 116.469 210.109C116.677 209.88 116.953 209.693 117.297 209.547C117.651 209.391 118.036 209.312 118.453 209.312C120.078 209.312 120.891 210.396 120.891 212.562V218H119.672V212.656C119.672 211.885 119.568 211.307 119.359 210.922C119.151 210.526 118.755 210.328 118.172 210.328C117.568 210.328 117.062 210.583 116.656 211.094C116.25 211.594 116.047 212.229 116.047 213V218H114.859V212.641C114.859 211.099 114.349 210.328 113.328 210.328C112.693 210.328 112.182 210.568 111.797 211.047C111.422 211.526 111.234 212.151 111.234 212.922V218H110.016ZM123.922 215.844C123.922 216.24 124.089 216.578 124.422 216.859C124.755 217.13 125.214 217.266 125.797 217.266C126.536 217.266 127.167 217.026 127.688 216.547C128.219 216.068 128.484 215.458 128.484 214.719V213.547C128.026 213.661 127.297 213.797 126.297 213.953C125.484 214.099 124.885 214.323 124.5 214.625C124.115 214.927 123.922 215.333 123.922 215.844ZM122.703 215.938C122.703 214.375 123.911 213.406 126.328 213.031C127.411 212.854 128.13 212.708 128.484 212.594V212.109C128.484 211.589 128.297 211.156 127.922 210.812C127.547 210.469 127.016 210.297 126.328 210.297C125.828 210.297 125.344 210.417 124.875 210.656C124.417 210.885 124.026 211.198 123.703 211.594L122.922 210.938C123.339 210.458 123.839 210.068 124.422 209.766C125.016 209.464 125.641 209.312 126.297 209.312C128.547 209.312 129.672 210.411 129.672 212.609V218H128.516V216.625C128.349 217.073 128.005 217.464 127.484 217.797C126.964 218.12 126.349 218.281 125.641 218.281C124.714 218.281 123.99 218.062 123.469 217.625C122.958 217.188 122.703 216.625 122.703 215.938ZM132.219 207.703V206.125H133.75V207.703H132.219ZM132.406 218V209.594H133.594V218H132.406ZM136.578 218V205.859H137.766V218H136.578Z" fill="#1C1C1C"/>
<path d="M23.4219 218V206.297H30.7344V207.359H24.6719V211.422H30.1406V212.469H24.6719V216.938H30.8594V218H23.4219ZM32.7344 218V209.594H33.9219V211.031H33.9375C34.0625 210.615 34.3698 210.224 34.8594 209.859C35.349 209.495 35.9323 209.312 36.6094 209.312C37.3906 209.312 38.0312 209.557 38.5312 210.047C39.0417 210.536 39.2969 211.375 39.2969 212.562V218H38.0781V212.766C38.0781 211.141 37.4948 210.328 36.3281 210.328C35.6823 210.328 35.125 210.589 34.6562 211.109C34.1875 211.63 33.9531 212.255 33.9531 212.984V218H32.7344ZM40.6875 210.609V209.594H42.1562V206.906H43.375V209.594H45.5938V210.609H43.375V215.531C43.375 216.052 43.474 216.422 43.6719 216.641C43.8698 216.859 44.1875 216.969 44.625 216.969H45.5938V218H44.4688C42.9271 218 42.1562 217.214 42.1562 215.641V210.609H40.6875ZM46.7656 213.734C46.7656 212.422 47.1198 211.359 47.8281 210.547C48.5365 209.724 49.4531 209.312 50.5781 209.312C51.724 209.312 52.625 209.714 53.2812 210.516C53.9375 211.307 54.2656 212.323 54.2656 213.562C54.2656 213.708 54.2552 213.917 54.2344 214.188H47.9844C47.9844 215.031 48.2188 215.755 48.6875 216.359C49.1562 216.964 49.8073 217.266 50.6406 217.266C51.1823 217.266 51.6615 217.141 52.0781 216.891C52.4948 216.63 52.8177 216.286 53.0469 215.859L54.0781 216.172C53.8177 216.786 53.3958 217.292 52.8125 217.688C52.2292 218.083 51.5052 218.281 50.6406 218.281C49.474 218.281 48.5365 217.865 47.8281 217.031C47.1198 216.198 46.7656 215.099 46.7656 213.734ZM48.0156 213.266H53.0469C53.0469 212.443 52.8229 211.75 52.375 211.188C51.9271 210.615 51.3281 210.328 50.5781 210.328C49.8177 210.328 49.2031 210.62 48.7344 211.203C48.276 211.786 48.0365 212.474 48.0156 213.266ZM56.1719 218V209.594H57.3281V210.812C57.4948 210.438 57.7708 210.094 58.1562 209.781C58.5417 209.469 59.0365 209.312 59.6406 209.312C60.0885 209.312 60.4844 209.385 60.8281 209.531V210.625C60.4531 210.479 60.0573 210.406 59.6406 210.406C58.9323 210.406 58.3802 210.672 57.9844 211.203C57.5885 211.734 57.3906 212.438 57.3906 213.312V218H56.1719ZM64.8125 209.594H66.2188L67.9531 214.516C68.2135 215.245 68.4479 215.953 68.6562 216.641H68.7188C68.875 216.13 69.1042 215.422 69.4062 214.516L71.0625 209.594H72.4375L68.8125 219.406C68.5 220.24 68.1354 220.823 67.7188 221.156C67.3125 221.5 66.8125 221.672 66.2188 221.672H65.75V220.672H66.0312C66.4271 220.672 66.7604 220.557 67.0312 220.328C67.3125 220.099 67.5625 219.688 67.7812 219.094L68.0938 218.109L64.8125 209.594ZM74.2031 213.797C74.2031 214.859 74.4479 215.703 74.9375 216.328C75.4271 216.953 76.0365 217.266 76.7656 217.266C77.4844 217.266 78.0885 216.953 78.5781 216.328C79.0781 215.703 79.3281 214.859 79.3281 213.797C79.3281 212.714 79.0781 211.865 78.5781 211.25C78.0781 210.635 77.474 210.328 76.7656 210.328C76.0469 210.328 75.4375 210.635 74.9375 211.25C74.4479 211.865 74.2031 212.714 74.2031 213.797ZM72.9844 213.797C72.9844 212.516 73.3125 211.448 73.9688 210.594C74.6354 209.74 75.5677 209.312 76.7656 209.312C77.9531 209.312 78.8802 209.74 79.5469 210.594C80.2135 211.448 80.5469 212.516 80.5469 213.797C80.5469 214.339 80.474 214.865 80.3281 215.375C80.1927 215.885 79.9792 216.365 79.6875 216.812C79.4062 217.25 79.0104 217.604 78.5 217.875C78 218.146 77.4219 218.281 76.7656 218.281C76.1198 218.281 75.5417 218.151 75.0312 217.891C74.5312 217.62 74.1354 217.266 73.8438 216.828C73.5625 216.38 73.349 215.901 73.2031 215.391C73.0573 214.88 72.9844 214.349 72.9844 213.797ZM82.3906 215.047V209.594H83.6094V214.797C83.6094 216.443 84.2135 217.266 85.4219 217.266C86.1615 217.266 86.724 216.979 87.1094 216.406C87.5052 215.833 87.7031 215.156 87.7031 214.375V209.594H88.8906V218H87.7344V216.641C87.651 216.984 87.3906 217.344 86.9531 217.719C86.526 218.094 85.9219 218.281 85.1406 218.281C84.3385 218.281 83.6771 218.01 83.1562 217.469C82.6458 216.917 82.3906 216.109 82.3906 215.047ZM91.4062 218V209.594H92.5625V210.812C92.7292 210.438 93.0052 210.094 93.3906 209.781C93.776 209.469 94.2708 209.312 94.875 209.312C95.3229 209.312 95.7188 209.385 96.0625 209.531V210.625C95.6875 210.479 95.2917 210.406 94.875 210.406C94.1667 210.406 93.6146 210.672 93.2188 211.203C92.8229 211.734 92.625 212.438 92.625 213.312V218H91.4062ZM100.609 213.734C100.609 212.422 100.964 211.359 101.672 210.547C102.38 209.724 103.297 209.312 104.422 209.312C105.568 209.312 106.469 209.714 107.125 210.516C107.781 211.307 108.109 212.323 108.109 213.562C108.109 213.708 108.099 213.917 108.078 214.188H101.828C101.828 215.031 102.062 215.755 102.531 216.359C103 216.964 103.651 217.266 104.484 217.266C105.026 217.266 105.505 217.141 105.922 216.891C106.339 216.63 106.661 216.286 106.891 215.859L107.922 216.172C107.661 216.786 107.24 217.292 106.656 217.688C106.073 218.083 105.349 218.281 104.484 218.281C103.318 218.281 102.38 217.865 101.672 217.031C100.964 216.198 100.609 215.099 100.609 213.734ZM101.859 213.266H106.891C106.891 212.443 106.667 211.75 106.219 211.188C105.771 210.615 105.172 210.328 104.422 210.328C103.661 210.328 103.047 210.62 102.578 211.203C102.12 211.786 101.88 212.474 101.859 213.266ZM110.016 218V209.594H111.203V210.859C111.349 210.474 111.625 210.12 112.031 209.797C112.438 209.474 112.953 209.312 113.578 209.312C114.193 209.312 114.661 209.49 114.984 209.844C115.307 210.188 115.557 210.635 115.734 211.188C115.786 211.052 115.87 210.896 115.984 210.719C116.099 210.542 116.26 210.339 116.469 210.109C116.677 209.88 116.953 209.693 117.297 209.547C117.651 209.391 118.036 209.312 118.453 209.312C120.078 209.312 120.891 210.396 120.891 212.562V218H119.672V212.656C119.672 211.885 119.568 211.307 119.359 210.922C119.151 210.526 118.755 210.328 118.172 210.328C117.568 210.328 117.062 210.583 116.656 211.094C116.25 211.594 116.047 212.229 116.047 213V218H114.859V212.641C114.859 211.099 114.349 210.328 113.328 210.328C112.693 210.328 112.182 210.568 111.797 211.047C111.422 211.526 111.234 212.151 111.234 212.922V218H110.016ZM123.922 215.844C123.922 216.24 124.089 216.578 124.422 216.859C124.755 217.13 125.214 217.266 125.797 217.266C126.536 217.266 127.167 217.026 127.688 216.547C128.219 216.068 128.484 215.458 128.484 214.719V213.547C128.026 213.661 127.297 213.797 126.297 213.953C125.484 214.099 124.885 214.323 124.5 214.625C124.115 214.927 123.922 215.333 123.922 215.844ZM122.703 215.938C122.703 214.375 123.911 213.406 126.328 213.031C127.411 212.854 128.13 212.708 128.484 212.594V212.109C128.484 211.589 128.297 211.156 127.922 210.812C127.547 210.469 127.016 210.297 126.328 210.297C125.828 210.297 125.344 210.417 124.875 210.656C124.417 210.885 124.026 211.198 123.703 211.594L122.922 210.938C123.339 210.458 123.839 210.068 124.422 209.766C125.016 209.464 125.641 209.312 126.297 209.312C128.547 209.312 129.672 210.411 129.672 212.609V218H128.516V216.625C128.349 217.073 128.005 217.464 127.484 217.797C126.964 218.12 126.349 218.281 125.641 218.281C124.714 218.281 123.99 218.062 123.469 217.625C122.958 217.188 122.703 216.625 122.703 215.938ZM132.219 207.703V206.125H133.75V207.703H132.219ZM132.406 218V209.594H133.594V218H132.406ZM136.578 218V205.859H137.766V218H136.578Z" fill="#1C1C1C"/>
<path d="M69.2578 128V116.297H70.6953L75.0078 123.766L76.4141 126.234H76.5078C76.3828 125.266 76.3203 124.161 76.3203 122.922V116.297H77.5703V128H76.1328L71.8047 120.484L70.4141 118.078H70.3516C70.4557 119.12 70.5078 120.219 70.5078 121.375V128H69.2578ZM79.8828 123.734C79.8828 122.422 80.237 121.359 80.9453 120.547C81.6536 119.724 82.5703 119.312 83.6953 119.312C84.8411 119.312 85.7422 119.714 86.3984 120.516C87.0547 121.307 87.3828 122.323 87.3828 123.562C87.3828 123.708 87.3724 123.917 87.3516 124.188H81.1016C81.1016 125.031 81.3359 125.755 81.8047 126.359C82.2734 126.964 82.9245 127.266 83.7578 127.266C84.2995 127.266 84.7786 127.141 85.1953 126.891C85.612 126.63 85.9349 126.286 86.1641 125.859L87.1953 126.172C86.9349 126.786 86.513 127.292 85.9297 127.688C85.3464 128.083 84.6224 128.281 83.7578 128.281C82.5911 128.281 81.6536 127.865 80.9453 127.031C80.237 126.198 79.8828 125.099 79.8828 123.734ZM81.1328 123.266H86.1641C86.1641 122.443 85.9401 121.75 85.4922 121.188C85.0443 120.615 84.4453 120.328 83.6953 120.328C82.9349 120.328 82.3203 120.62 81.8516 121.203C81.3932 121.786 81.1536 122.474 81.1328 123.266ZM88.3203 119.594H89.6641L90.8984 124.812C91.1589 126.01 91.3099 126.703 91.3516 126.891H91.4141C91.4661 126.641 91.5495 126.281 91.6641 125.812C91.7786 125.344 91.8568 125.01 91.8984 124.812L93.1797 119.594H94.6172L95.9141 124.875C95.9557 125.052 96.0286 125.359 96.1328 125.797C96.237 126.234 96.3203 126.599 96.3828 126.891H96.4453C96.4766 126.766 96.6276 126.073 96.8984 124.812L98.1328 119.594H99.4766L97.1641 128H95.6484L94.3828 122.938C94.1016 121.667 93.9505 120.979 93.9297 120.875H93.8672C93.6172 122.052 93.4661 122.74 93.4141 122.938L92.1484 128H90.6328L88.3203 119.594ZM104.18 123.797C104.18 122.464 104.518 121.385 105.195 120.562C105.872 119.729 106.784 119.312 107.93 119.312C108.68 119.312 109.32 119.531 109.852 119.969C110.393 120.396 110.753 120.906 110.93 121.5L109.898 121.797C109.742 121.38 109.487 121.031 109.133 120.75C108.789 120.469 108.388 120.328 107.93 120.328C107.159 120.328 106.544 120.656 106.086 121.312C105.628 121.969 105.398 122.797 105.398 123.797C105.398 124.859 105.638 125.703 106.117 126.328C106.596 126.953 107.201 127.266 107.93 127.266C108.419 127.266 108.862 127.109 109.258 126.797C109.664 126.474 109.951 126.104 110.117 125.688L111.148 126.016C110.93 126.641 110.529 127.177 109.945 127.625C109.372 128.062 108.701 128.281 107.93 128.281C106.815 128.281 105.909 127.875 105.211 127.062C104.523 126.25 104.18 125.161 104.18 123.797ZM113.43 123.797C113.43 124.859 113.674 125.703 114.164 126.328C114.654 126.953 115.263 127.266 115.992 127.266C116.711 127.266 117.315 126.953 117.805 126.328C118.305 125.703 118.555 124.859 118.555 123.797C118.555 122.714 118.305 121.865 117.805 121.25C117.305 120.635 116.701 120.328 115.992 120.328C115.273 120.328 114.664 120.635 114.164 121.25C113.674 121.865 113.43 122.714 113.43 123.797ZM112.211 123.797C112.211 122.516 112.539 121.448 113.195 120.594C113.862 119.74 114.794 119.312 115.992 119.312C117.18 119.312 118.107 119.74 118.773 120.594C119.44 121.448 119.773 122.516 119.773 123.797C119.773 124.339 119.701 124.865 119.555 125.375C119.419 125.885 119.206 126.365 118.914 126.812C118.633 127.25 118.237 127.604 117.727 127.875C117.227 128.146 116.648 128.281 115.992 128.281C115.346 128.281 114.768 128.151 114.258 127.891C113.758 127.62 113.362 127.266 113.07 126.828C112.789 126.38 112.576 125.901 112.43 125.391C112.284 124.88 112.211 124.349 112.211 123.797ZM121.617 125.047V119.594H122.836V124.797C122.836 126.443 123.44 127.266 124.648 127.266C125.388 127.266 125.951 126.979 126.336 126.406C126.732 125.833 126.93 125.156 126.93 124.375V119.594H128.117V128H126.961V126.641C126.878 126.984 126.617 127.344 126.18 127.719C125.753 128.094 125.148 128.281 124.367 128.281C123.565 128.281 122.904 128.01 122.383 127.469C121.872 126.917 121.617 126.109 121.617 125.047ZM130.633 128V119.594H131.789V120.812C131.956 120.438 132.232 120.094 132.617 119.781C133.003 119.469 133.497 119.312 134.102 119.312C134.549 119.312 134.945 119.385 135.289 119.531V120.625C134.914 120.479 134.518 120.406 134.102 120.406C133.393 120.406 132.841 120.672 132.445 121.203C132.049 121.734 131.852 122.438 131.852 123.312V128H130.633ZM135.805 126.344L136.711 125.812C137.326 126.781 138.159 127.266 139.211 127.266C139.846 127.266 140.352 127.151 140.727 126.922C141.112 126.693 141.305 126.359 141.305 125.922C141.305 125.734 141.258 125.568 141.164 125.422C141.07 125.266 140.966 125.141 140.852 125.047C140.747 124.943 140.555 124.833 140.273 124.719C139.992 124.594 139.758 124.505 139.57 124.453C139.393 124.391 139.096 124.292 138.68 124.156C138.315 124.042 138.003 123.927 137.742 123.812C137.482 123.698 137.211 123.547 136.93 123.359C136.648 123.161 136.43 122.922 136.273 122.641C136.128 122.359 136.055 122.036 136.055 121.672C136.055 120.974 136.336 120.406 136.898 119.969C137.461 119.531 138.232 119.312 139.211 119.312C139.898 119.312 140.529 119.495 141.102 119.859C141.674 120.224 142.086 120.651 142.336 121.141L141.523 121.672C141.305 121.307 140.987 120.995 140.57 120.734C140.164 120.464 139.711 120.328 139.211 120.328C138.576 120.328 138.091 120.453 137.758 120.703C137.435 120.943 137.273 121.271 137.273 121.688C137.273 121.927 137.336 122.146 137.461 122.344C137.586 122.531 137.773 122.698 138.023 122.844C138.284 122.979 138.518 123.089 138.727 123.172C138.945 123.245 139.232 123.339 139.586 123.453C139.888 123.547 140.154 123.635 140.383 123.719C140.622 123.802 140.883 123.917 141.164 124.062C141.445 124.208 141.68 124.365 141.867 124.531C142.055 124.688 142.211 124.891 142.336 125.141C142.461 125.38 142.523 125.641 142.523 125.922C142.523 126.589 142.227 127.151 141.633 127.609C141.049 128.057 140.242 128.281 139.211 128.281C138.461 128.281 137.794 128.115 137.211 127.781C136.628 127.438 136.159 126.958 135.805 126.344ZM143.758 123.734C143.758 122.422 144.112 121.359 144.82 120.547C145.529 119.724 146.445 119.312 147.57 119.312C148.716 119.312 149.617 119.714 150.273 120.516C150.93 121.307 151.258 122.323 151.258 123.562C151.258 123.708 151.247 123.917 151.227 124.188H144.977C144.977 125.031 145.211 125.755 145.68 126.359C146.148 126.964 146.799 127.266 147.633 127.266C148.174 127.266 148.654 127.141 149.07 126.891C149.487 126.63 149.81 126.286 150.039 125.859L151.07 126.172C150.81 126.786 150.388 127.292 149.805 127.688C149.221 128.083 148.497 128.281 147.633 128.281C146.466 128.281 145.529 127.865 144.82 127.031C144.112 126.198 143.758 125.099 143.758 123.734ZM145.008 123.266H150.039C150.039 122.443 149.815 121.75 149.367 121.188C148.919 120.615 148.32 120.328 147.57 120.328C146.81 120.328 146.195 120.62 145.727 121.203C145.268 121.786 145.029 122.474 145.008 123.266ZM157.695 125.844C157.695 126.24 157.862 126.578 158.195 126.859C158.529 127.13 158.987 127.266 159.57 127.266C160.31 127.266 160.94 127.026 161.461 126.547C161.992 126.068 162.258 125.458 162.258 124.719V123.547C161.799 123.661 161.07 123.797 160.07 123.953C159.258 124.099 158.659 124.323 158.273 124.625C157.888 124.927 157.695 125.333 157.695 125.844ZM156.477 125.938C156.477 124.375 157.685 123.406 160.102 123.031C161.185 122.854 161.904 122.708 162.258 122.594V122.109C162.258 121.589 162.07 121.156 161.695 120.812C161.32 120.469 160.789 120.297 160.102 120.297C159.602 120.297 159.117 120.417 158.648 120.656C158.19 120.885 157.799 121.198 157.477 121.594L156.695 120.938C157.112 120.458 157.612 120.068 158.195 119.766C158.789 119.464 159.414 119.312 160.07 119.312C162.32 119.312 163.445 120.411 163.445 122.609V128H162.289V126.625C162.122 127.073 161.779 127.464 161.258 127.797C160.737 128.12 160.122 128.281 159.414 128.281C158.487 128.281 157.763 128.062 157.242 127.625C156.732 127.188 156.477 126.625 156.477 125.938ZM166.055 128V115.859H167.242V128H166.055ZM169.367 123.734C169.367 122.422 169.721 121.359 170.43 120.547C171.138 119.724 172.055 119.312 173.18 119.312C174.326 119.312 175.227 119.714 175.883 120.516C176.539 121.307 176.867 122.323 176.867 123.562C176.867 123.708 176.857 123.917 176.836 124.188H170.586C170.586 125.031 170.82 125.755 171.289 126.359C171.758 126.964 172.409 127.266 173.242 127.266C173.784 127.266 174.263 127.141 174.68 126.891C175.096 126.63 175.419 126.286 175.648 125.859L176.68 126.172C176.419 126.786 175.997 127.292 175.414 127.688C174.831 128.083 174.107 128.281 173.242 128.281C172.076 128.281 171.138 127.865 170.43 127.031C169.721 126.198 169.367 125.099 169.367 123.734ZM170.617 123.266H175.648C175.648 122.443 175.424 121.75 174.977 121.188C174.529 120.615 173.93 120.328 173.18 120.328C172.419 120.328 171.805 120.62 171.336 121.203C170.878 121.786 170.638 122.474 170.617 123.266ZM178.773 128V119.594H179.93V120.812C180.096 120.438 180.372 120.094 180.758 119.781C181.143 119.469 181.638 119.312 182.242 119.312C182.69 119.312 183.086 119.385 183.43 119.531V120.625C183.055 120.479 182.659 120.406 182.242 120.406C181.534 120.406 180.982 120.672 180.586 121.203C180.19 121.734 179.992 122.438 179.992 123.312V128H178.773ZM184.008 120.609V119.594H185.477V116.906H186.695V119.594H188.914V120.609H186.695V125.531C186.695 126.052 186.794 126.422 186.992 126.641C187.19 126.859 187.508 126.969 187.945 126.969H188.914V128H187.789C186.247 128 185.477 127.214 185.477 125.641V120.609H184.008ZM189.961 126.344L190.867 125.812C191.482 126.781 192.315 127.266 193.367 127.266C194.003 127.266 194.508 127.151 194.883 126.922C195.268 126.693 195.461 126.359 195.461 125.922C195.461 125.734 195.414 125.568 195.32 125.422C195.227 125.266 195.122 125.141 195.008 125.047C194.904 124.943 194.711 124.833 194.43 124.719C194.148 124.594 193.914 124.505 193.727 124.453C193.549 124.391 193.253 124.292 192.836 124.156C192.471 124.042 192.159 123.927 191.898 123.812C191.638 123.698 191.367 123.547 191.086 123.359C190.805 123.161 190.586 122.922 190.43 122.641C190.284 122.359 190.211 122.036 190.211 121.672C190.211 120.974 190.492 120.406 191.055 119.969C191.617 119.531 192.388 119.312 193.367 119.312C194.055 119.312 194.685 119.495 195.258 119.859C195.831 120.224 196.242 120.651 196.492 121.141L195.68 121.672C195.461 121.307 195.143 120.995 194.727 120.734C194.32 120.464 193.867 120.328 193.367 120.328C192.732 120.328 192.247 120.453 191.914 120.703C191.591 120.943 191.43 121.271 191.43 121.688C191.43 121.927 191.492 122.146 191.617 122.344C191.742 122.531 191.93 122.698 192.18 122.844C192.44 122.979 192.674 123.089 192.883 123.172C193.102 123.245 193.388 123.339 193.742 123.453C194.044 123.547 194.31 123.635 194.539 123.719C194.779 123.802 195.039 123.917 195.32 124.062C195.602 124.208 195.836 124.365 196.023 124.531C196.211 124.688 196.367 124.891 196.492 125.141C196.617 125.38 196.68 125.641 196.68 125.922C196.68 126.589 196.383 127.151 195.789 127.609C195.206 128.057 194.398 128.281 193.367 128.281C192.617 128.281 191.951 128.115 191.367 127.781C190.784 127.438 190.315 126.958 189.961 126.344ZM198.008 130.719L199.289 126.141H201.023L198.992 130.719H198.008ZM207.32 123.781C207.32 122.396 207.654 121.307 208.32 120.516C208.987 119.714 209.831 119.312 210.852 119.312C211.466 119.312 211.997 119.49 212.445 119.844C212.904 120.198 213.227 120.604 213.414 121.062V115.859H214.602V128H213.445V126.484C213.227 127.005 212.888 127.438 212.43 127.781C211.982 128.115 211.456 128.281 210.852 128.281C210.424 128.281 210.008 128.193 209.602 128.016C209.206 127.849 208.831 127.599 208.477 127.266C208.133 126.922 207.852 126.453 207.633 125.859C207.424 125.255 207.32 124.562 207.32 123.781ZM208.539 123.781C208.539 124.833 208.768 125.677 209.227 126.312C209.685 126.948 210.279 127.266 211.008 127.266C211.685 127.266 212.258 126.953 212.727 126.328C213.206 125.693 213.445 124.844 213.445 123.781C213.445 122.729 213.206 121.891 212.727 121.266C212.258 120.641 211.685 120.328 211.008 120.328C210.268 120.328 209.669 120.646 209.211 121.281C208.763 121.906 208.539 122.74 208.539 123.781ZM217.32 117.703V116.125H218.852V117.703H217.32ZM217.508 128V119.594H218.695V128H217.508ZM220.805 126.344L221.711 125.812C222.326 126.781 223.159 127.266 224.211 127.266C224.846 127.266 225.352 127.151 225.727 126.922C226.112 126.693 226.305 126.359 226.305 125.922C226.305 125.734 226.258 125.568 226.164 125.422C226.07 125.266 225.966 125.141 225.852 125.047C225.747 124.943 225.555 124.833 225.273 124.719C224.992 124.594 224.758 124.505 224.57 124.453C224.393 124.391 224.096 124.292 223.68 124.156C223.315 124.042 223.003 123.927 222.742 123.812C222.482 123.698 222.211 123.547 221.93 123.359C221.648 123.161 221.43 122.922 221.273 122.641C221.128 122.359 221.055 122.036 221.055 121.672C221.055 120.974 221.336 120.406 221.898 119.969C222.461 119.531 223.232 119.312 224.211 119.312C224.898 119.312 225.529 119.495 226.102 119.859C226.674 120.224 227.086 120.651 227.336 121.141L226.523 121.672C226.305 121.307 225.987 120.995 225.57 120.734C225.164 120.464 224.711 120.328 224.211 120.328C223.576 120.328 223.091 120.453 222.758 120.703C222.435 120.943 222.273 121.271 222.273 121.688C222.273 121.927 222.336 122.146 222.461 122.344C222.586 122.531 222.773 122.698 223.023 122.844C223.284 122.979 223.518 123.089 223.727 123.172C223.945 123.245 224.232 123.339 224.586 123.453C224.888 123.547 225.154 123.635 225.383 123.719C225.622 123.802 225.883 123.917 226.164 124.062C226.445 124.208 226.68 124.365 226.867 124.531C227.055 124.688 227.211 124.891 227.336 125.141C227.461 125.38 227.523 125.641 227.523 125.922C227.523 126.589 227.227 127.151 226.633 127.609C226.049 128.057 225.242 128.281 224.211 128.281C223.461 128.281 222.794 128.115 222.211 127.781C221.628 127.438 221.159 126.958 220.805 126.344ZM228.758 123.797C228.758 122.464 229.096 121.385 229.773 120.562C230.451 119.729 231.362 119.312 232.508 119.312C233.258 119.312 233.898 119.531 234.43 119.969C234.971 120.396 235.331 120.906 235.508 121.5L234.477 121.797C234.32 121.38 234.065 121.031 233.711 120.75C233.367 120.469 232.966 120.328 232.508 120.328C231.737 120.328 231.122 120.656 230.664 121.312C230.206 121.969 229.977 122.797 229.977 123.797C229.977 124.859 230.216 125.703 230.695 126.328C231.174 126.953 231.779 127.266 232.508 127.266C232.997 127.266 233.44 127.109 233.836 126.797C234.242 126.474 234.529 126.104 234.695 125.688L235.727 126.016C235.508 126.641 235.107 127.177 234.523 127.625C233.951 128.062 233.279 128.281 232.508 128.281C231.393 128.281 230.487 127.875 229.789 127.062C229.102 126.25 228.758 125.161 228.758 123.797ZM238.008 123.797C238.008 124.859 238.253 125.703 238.742 126.328C239.232 126.953 239.841 127.266 240.57 127.266C241.289 127.266 241.893 126.953 242.383 126.328C242.883 125.703 243.133 124.859 243.133 123.797C243.133 122.714 242.883 121.865 242.383 121.25C241.883 120.635 241.279 120.328 240.57 120.328C239.852 120.328 239.242 120.635 238.742 121.25C238.253 121.865 238.008 122.714 238.008 123.797ZM236.789 123.797C236.789 122.516 237.117 121.448 237.773 120.594C238.44 119.74 239.372 119.312 240.57 119.312C241.758 119.312 242.685 119.74 243.352 120.594C244.018 121.448 244.352 122.516 244.352 123.797C244.352 124.339 244.279 124.865 244.133 125.375C243.997 125.885 243.784 126.365 243.492 126.812C243.211 127.25 242.815 127.604 242.305 127.875C241.805 128.146 241.227 128.281 240.57 128.281C239.924 128.281 239.346 128.151 238.836 127.891C238.336 127.62 237.94 127.266 237.648 126.828C237.367 126.38 237.154 125.901 237.008 125.391C236.862 124.88 236.789 124.349 236.789 123.797ZM246.195 125.047V119.594H247.414V124.797C247.414 126.443 248.018 127.266 249.227 127.266C249.966 127.266 250.529 126.979 250.914 126.406C251.31 125.833 251.508 125.156 251.508 124.375V119.594H252.695V128H251.539V126.641C251.456 126.984 251.195 127.344 250.758 127.719C250.331 128.094 249.727 128.281 248.945 128.281C248.143 128.281 247.482 128.01 246.961 127.469C246.451 126.917 246.195 126.109 246.195 125.047ZM255.211 128V119.594H256.398V121.031H256.414C256.539 120.615 256.846 120.224 257.336 119.859C257.826 119.495 258.409 119.312 259.086 119.312C259.867 119.312 260.508 119.557 261.008 120.047C261.518 120.536 261.773 121.375 261.773 122.562V128H260.555V122.766C260.555 121.141 259.971 120.328 258.805 120.328C258.159 120.328 257.602 120.589 257.133 121.109C256.664 121.63 256.43 122.255 256.43 122.984V128H255.211ZM263.164 120.609V119.594H264.633V116.906H265.852V119.594H268.07V120.609H265.852V125.531C265.852 126.052 265.951 126.422 266.148 126.641C266.346 126.859 266.664 126.969 267.102 126.969H268.07V128H266.945C265.404 128 264.633 127.214 264.633 125.641V120.609H263.164ZM269.117 126.344L270.023 125.812C270.638 126.781 271.471 127.266 272.523 127.266C273.159 127.266 273.664 127.151 274.039 126.922C274.424 126.693 274.617 126.359 274.617 125.922C274.617 125.734 274.57 125.568 274.477 125.422C274.383 125.266 274.279 125.141 274.164 125.047C274.06 124.943 273.867 124.833 273.586 124.719C273.305 124.594 273.07 124.505 272.883 124.453C272.706 124.391 272.409 124.292 271.992 124.156C271.628 124.042 271.315 123.927 271.055 123.812C270.794 123.698 270.523 123.547 270.242 123.359C269.961 123.161 269.742 122.922 269.586 122.641C269.44 122.359 269.367 122.036 269.367 121.672C269.367 120.974 269.648 120.406 270.211 119.969C270.773 119.531 271.544 119.312 272.523 119.312C273.211 119.312 273.841 119.495 274.414 119.859C274.987 120.224 275.398 120.651 275.648 121.141L274.836 121.672C274.617 121.307 274.299 120.995 273.883 120.734C273.477 120.464 273.023 120.328 272.523 120.328C271.888 120.328 271.404 120.453 271.07 120.703C270.747 120.943 270.586 121.271 270.586 121.688C270.586 121.927 270.648 122.146 270.773 122.344C270.898 122.531 271.086 122.698 271.336 122.844C271.596 122.979 271.831 123.089 272.039 123.172C272.258 123.245 272.544 123.339 272.898 123.453C273.201 123.547 273.466 123.635 273.695 123.719C273.935 123.802 274.195 123.917 274.477 124.062C274.758 124.208 274.992 124.365 275.18 124.531C275.367 124.688 275.523 124.891 275.648 125.141C275.773 125.38 275.836 125.641 275.836 125.922C275.836 126.589 275.539 127.151 274.945 127.609C274.362 128.057 273.555 128.281 272.523 128.281C271.773 128.281 271.107 128.115 270.523 127.781C269.94 127.438 269.471 126.958 269.117 126.344ZM282.164 125.844C282.164 126.24 282.331 126.578 282.664 126.859C282.997 127.13 283.456 127.266 284.039 127.266C284.779 127.266 285.409 127.026 285.93 126.547C286.461 126.068 286.727 125.458 286.727 124.719V123.547C286.268 123.661 285.539 123.797 284.539 123.953C283.727 124.099 283.128 124.323 282.742 124.625C282.357 124.927 282.164 125.333 282.164 125.844ZM280.945 125.938C280.945 124.375 282.154 123.406 284.57 123.031C285.654 122.854 286.372 122.708 286.727 122.594V122.109C286.727 121.589 286.539 121.156 286.164 120.812C285.789 120.469 285.258 120.297 284.57 120.297C284.07 120.297 283.586 120.417 283.117 120.656C282.659 120.885 282.268 121.198 281.945 121.594L281.164 120.938C281.581 120.458 282.081 120.068 282.664 119.766C283.258 119.464 283.883 119.312 284.539 119.312C286.789 119.312 287.914 120.411 287.914 122.609V128H286.758V126.625C286.591 127.073 286.247 127.464 285.727 127.797C285.206 128.12 284.591 128.281 283.883 128.281C282.956 128.281 282.232 128.062 281.711 127.625C281.201 127.188 280.945 126.625 280.945 125.938ZM290.336 128V119.594H291.523V121.031H291.539C291.664 120.615 291.971 120.224 292.461 119.859C292.951 119.495 293.534 119.312 294.211 119.312C294.992 119.312 295.633 119.557 296.133 120.047C296.643 120.536 296.898 121.375 296.898 122.562V128H295.68V122.766C295.68 121.141 295.096 120.328 293.93 120.328C293.284 120.328 292.727 120.589 292.258 121.109C291.789 121.63 291.555 122.255 291.555 122.984V128H290.336ZM298.742 123.781C298.742 122.396 299.076 121.307 299.742 120.516C300.409 119.714 301.253 119.312 302.273 119.312C302.888 119.312 303.419 119.49 303.867 119.844C304.326 120.198 304.648 120.604 304.836 121.062V115.859H306.023V128H304.867V126.484C304.648 127.005 304.31 127.438 303.852 127.781C303.404 128.115 302.878 128.281 302.273 128.281C301.846 128.281 301.43 128.193 301.023 128.016C300.628 127.849 300.253 127.599 299.898 127.266C299.555 126.922 299.273 126.453 299.055 125.859C298.846 125.255 298.742 124.562 298.742 123.781ZM299.961 123.781C299.961 124.833 300.19 125.677 300.648 126.312C301.107 126.948 301.701 127.266 302.43 127.266C303.107 127.266 303.68 126.953 304.148 126.328C304.628 125.693 304.867 124.844 304.867 123.781C304.867 122.729 304.628 121.891 304.148 121.266C303.68 120.641 303.107 120.328 302.43 120.328C301.69 120.328 301.091 120.646 300.633 121.281C300.185 121.906 299.961 122.74 299.961 123.781ZM311.648 120.609V119.594H313.086V118.297C313.086 117.474 313.294 116.865 313.711 116.469C314.128 116.062 314.701 115.859 315.43 115.859H316.523V116.859H315.586C314.732 116.859 314.305 117.38 314.305 118.422V119.594H316.305V120.609H314.305V128H313.086V120.609H311.648ZM317.867 128V119.594H319.023V120.812C319.19 120.438 319.466 120.094 319.852 119.781C320.237 119.469 320.732 119.312 321.336 119.312C321.784 119.312 322.18 119.385 322.523 119.531V120.625C322.148 120.479 321.753 120.406 321.336 120.406C320.628 120.406 320.076 120.672 319.68 121.203C319.284 121.734 319.086 122.438 319.086 123.312V128H317.867ZM323.164 123.734C323.164 122.422 323.518 121.359 324.227 120.547C324.935 119.724 325.852 119.312 326.977 119.312C328.122 119.312 329.023 119.714 329.68 120.516C330.336 121.307 330.664 122.323 330.664 123.562C330.664 123.708 330.654 123.917 330.633 124.188H324.383C324.383 125.031 324.617 125.755 325.086 126.359C325.555 126.964 326.206 127.266 327.039 127.266C327.581 127.266 328.06 127.141 328.477 126.891C328.893 126.63 329.216 126.286 329.445 125.859L330.477 126.172C330.216 126.786 329.794 127.292 329.211 127.688C328.628 128.083 327.904 128.281 327.039 128.281C325.872 128.281 324.935 127.865 324.227 127.031C323.518 126.198 323.164 125.099 323.164 123.734ZM324.414 123.266H329.445C329.445 122.443 329.221 121.75 328.773 121.188C328.326 120.615 327.727 120.328 326.977 120.328C326.216 120.328 325.602 120.62 325.133 121.203C324.674 121.786 324.435 122.474 324.414 123.266ZM332.008 123.734C332.008 122.422 332.362 121.359 333.07 120.547C333.779 119.724 334.695 119.312 335.82 119.312C336.966 119.312 337.867 119.714 338.523 120.516C339.18 121.307 339.508 122.323 339.508 123.562C339.508 123.708 339.497 123.917 339.477 124.188H333.227C333.227 125.031 333.461 125.755 333.93 126.359C334.398 126.964 335.049 127.266 335.883 127.266C336.424 127.266 336.904 127.141 337.32 126.891C337.737 126.63 338.06 126.286 338.289 125.859L339.32 126.172C339.06 126.786 338.638 127.292 338.055 127.688C337.471 128.083 336.747 128.281 335.883 128.281C334.716 128.281 333.779 127.865 333.07 127.031C332.362 126.198 332.008 125.099 332.008 123.734ZM333.258 123.266H338.289C338.289 122.443 338.065 121.75 337.617 121.188C337.169 120.615 336.57 120.328 335.82 120.328C335.06 120.328 334.445 120.62 333.977 121.203C333.518 121.786 333.279 122.474 333.258 123.266ZM345.508 128V115.859H346.695V128H345.508ZM348.82 123.734C348.82 122.422 349.174 121.359 349.883 120.547C350.591 119.724 351.508 119.312 352.633 119.312C353.779 119.312 354.68 119.714 355.336 120.516C355.992 121.307 356.32 122.323 356.32 123.562C356.32 123.708 356.31 123.917 356.289 124.188H350.039C350.039 125.031 350.273 125.755 350.742 126.359C351.211 126.964 351.862 127.266 352.695 127.266C353.237 127.266 353.716 127.141 354.133 126.891C354.549 126.63 354.872 126.286 355.102 125.859L356.133 126.172C355.872 126.786 355.451 127.292 354.867 127.688C354.284 128.083 353.56 128.281 352.695 128.281C351.529 128.281 350.591 127.865 349.883 127.031C349.174 126.198 348.82 125.099 348.82 123.734ZM350.07 123.266H355.102C355.102 122.443 354.878 121.75 354.43 121.188C353.982 120.615 353.383 120.328 352.633 120.328C351.872 120.328 351.258 120.62 350.789 121.203C350.331 121.786 350.091 122.474 350.07 123.266ZM357.539 126.344L358.445 125.812C359.06 126.781 359.893 127.266 360.945 127.266C361.581 127.266 362.086 127.151 362.461 126.922C362.846 126.693 363.039 126.359 363.039 125.922C363.039 125.734 362.992 125.568 362.898 125.422C362.805 125.266 362.701 125.141 362.586 125.047C362.482 124.943 362.289 124.833 362.008 124.719C361.727 124.594 361.492 124.505 361.305 124.453C361.128 124.391 360.831 124.292 360.414 124.156C360.049 124.042 359.737 123.927 359.477 123.812C359.216 123.698 358.945 123.547 358.664 123.359C358.383 123.161 358.164 122.922 358.008 122.641C357.862 122.359 357.789 122.036 357.789 121.672C357.789 120.974 358.07 120.406 358.633 119.969C359.195 119.531 359.966 119.312 360.945 119.312C361.633 119.312 362.263 119.495 362.836 119.859C363.409 120.224 363.82 120.651 364.07 121.141L363.258 121.672C363.039 121.307 362.721 120.995 362.305 120.734C361.898 120.464 361.445 120.328 360.945 120.328C360.31 120.328 359.826 120.453 359.492 120.703C359.169 120.943 359.008 121.271 359.008 121.688C359.008 121.927 359.07 122.146 359.195 122.344C359.32 122.531 359.508 122.698 359.758 122.844C360.018 122.979 360.253 123.089 360.461 123.172C360.68 123.245 360.966 123.339 361.32 123.453C361.622 123.547 361.888 123.635 362.117 123.719C362.357 123.802 362.617 123.917 362.898 124.062C363.18 124.208 363.414 124.365 363.602 124.531C363.789 124.688 363.945 124.891 364.07 125.141C364.195 125.38 364.258 125.641 364.258 125.922C364.258 126.589 363.961 127.151 363.367 127.609C362.784 128.057 361.977 128.281 360.945 128.281C360.195 128.281 359.529 128.115 358.945 127.781C358.362 127.438 357.893 126.958 357.539 126.344ZM365.367 126.344L366.273 125.812C366.888 126.781 367.721 127.266 368.773 127.266C369.409 127.266 369.914 127.151 370.289 126.922C370.674 126.693 370.867 126.359 370.867 125.922C370.867 125.734 370.82 125.568 370.727 125.422C370.633 125.266 370.529 125.141 370.414 125.047C370.31 124.943 370.117 124.833 369.836 124.719C369.555 124.594 369.32 124.505 369.133 124.453C368.956 124.391 368.659 124.292 368.242 124.156C367.878 124.042 367.565 123.927 367.305 123.812C367.044 123.698 366.773 123.547 366.492 123.359C366.211 123.161 365.992 122.922 365.836 122.641C365.69 122.359 365.617 122.036 365.617 121.672C365.617 120.974 365.898 120.406 366.461 119.969C367.023 119.531 367.794 119.312 368.773 119.312C369.461 119.312 370.091 119.495 370.664 119.859C371.237 120.224 371.648 120.651 371.898 121.141L371.086 121.672C370.867 121.307 370.549 120.995 370.133 120.734C369.727 120.464 369.273 120.328 368.773 120.328C368.138 120.328 367.654 120.453 367.32 120.703C366.997 120.943 366.836 121.271 366.836 121.688C366.836 121.927 366.898 122.146 367.023 122.344C367.148 122.531 367.336 122.698 367.586 122.844C367.846 122.979 368.081 123.089 368.289 123.172C368.508 123.245 368.794 123.339 369.148 123.453C369.451 123.547 369.716 123.635 369.945 123.719C370.185 123.802 370.445 123.917 370.727 124.062C371.008 124.208 371.242 124.365 371.43 124.531C371.617 124.688 371.773 124.891 371.898 125.141C372.023 125.38 372.086 125.641 372.086 125.922C372.086 126.589 371.789 127.151 371.195 127.609C370.612 128.057 369.805 128.281 368.773 128.281C368.023 128.281 367.357 128.115 366.773 127.781C366.19 127.438 365.721 126.958 365.367 126.344ZM374.539 123.797C374.539 124.859 374.784 125.703 375.273 126.328C375.763 126.953 376.372 127.266 377.102 127.266C377.82 127.266 378.424 126.953 378.914 126.328C379.414 125.703 379.664 124.859 379.664 123.797C379.664 122.714 379.414 121.865 378.914 121.25C378.414 120.635 377.81 120.328 377.102 120.328C376.383 120.328 375.773 120.635 375.273 121.25C374.784 121.865 374.539 122.714 374.539 123.797ZM373.32 123.797C373.32 122.516 373.648 121.448 374.305 120.594C374.971 119.74 375.904 119.312 377.102 119.312C378.289 119.312 379.216 119.74 379.883 120.594C380.549 121.448 380.883 122.516 380.883 123.797C380.883 124.339 380.81 124.865 380.664 125.375C380.529 125.885 380.315 126.365 380.023 126.812C379.742 127.25 379.346 127.604 378.836 127.875C378.336 128.146 377.758 128.281 377.102 128.281C376.456 128.281 375.878 128.151 375.367 127.891C374.867 127.62 374.471 127.266 374.18 126.828C373.898 126.38 373.685 125.901 373.539 125.391C373.393 124.88 373.32 124.349 373.32 123.797ZM382.82 128V119.594H384.008V121.031H384.023C384.148 120.615 384.456 120.224 384.945 119.859C385.435 119.495 386.018 119.312 386.695 119.312C387.477 119.312 388.117 119.557 388.617 120.047C389.128 120.536 389.383 121.375 389.383 122.562V128H388.164V122.766C388.164 121.141 387.581 120.328 386.414 120.328C385.768 120.328 385.211 120.589 384.742 121.109C384.273 121.63 384.039 122.255 384.039 122.984V128H382.82ZM391.102 126.344L392.008 125.812C392.622 126.781 393.456 127.266 394.508 127.266C395.143 127.266 395.648 127.151 396.023 126.922C396.409 126.693 396.602 126.359 396.602 125.922C396.602 125.734 396.555 125.568 396.461 125.422C396.367 125.266 396.263 125.141 396.148 125.047C396.044 124.943 395.852 124.833 395.57 124.719C395.289 124.594 395.055 124.505 394.867 124.453C394.69 124.391 394.393 124.292 393.977 124.156C393.612 124.042 393.299 123.927 393.039 123.812C392.779 123.698 392.508 123.547 392.227 123.359C391.945 123.161 391.727 122.922 391.57 122.641C391.424 122.359 391.352 122.036 391.352 121.672C391.352 120.974 391.633 120.406 392.195 119.969C392.758 119.531 393.529 119.312 394.508 119.312C395.195 119.312 395.826 119.495 396.398 119.859C396.971 120.224 397.383 120.651 397.633 121.141L396.82 121.672C396.602 121.307 396.284 120.995 395.867 120.734C395.461 120.464 395.008 120.328 394.508 120.328C393.872 120.328 393.388 120.453 393.055 120.703C392.732 120.943 392.57 121.271 392.57 121.688C392.57 121.927 392.633 122.146 392.758 122.344C392.883 122.531 393.07 122.698 393.32 122.844C393.581 122.979 393.815 123.089 394.023 123.172C394.242 123.245 394.529 123.339 394.883 123.453C395.185 123.547 395.451 123.635 395.68 123.719C395.919 123.802 396.18 123.917 396.461 124.062C396.742 124.208 396.977 124.365 397.164 124.531C397.352 124.688 397.508 124.891 397.633 125.141C397.758 125.38 397.82 125.641 397.82 125.922C397.82 126.589 397.523 127.151 396.93 127.609C396.346 128.057 395.539 128.281 394.508 128.281C393.758 128.281 393.091 128.115 392.508 127.781C391.924 127.438 391.456 126.958 391.102 126.344Z" fill="#6B6B6B"/>
<path d="M14.9629 61.1211C14.9629 56.8164 16.0391 53.3158 18.1914 50.6191C20.3685 47.8978 23.3249 46.5371 27.0605 46.5371C28.3223 46.5371 29.4974 46.735 30.5859 47.1309C31.6745 47.502 32.5775 48.0091 33.2949 48.6523C34.0371 49.2956 34.6432 49.9264 35.1133 50.5449C35.6081 51.1387 36.0163 51.7695 36.3379 52.4375L33.8145 53.3281C32.0579 50.4831 29.8066 49.0605 27.0605 49.0605C24.2155 49.0605 21.9889 50.1738 20.3809 52.4004C18.7975 54.6022 18.0059 57.5091 18.0059 61.1211C18.0059 64.8815 18.8223 67.8255 20.4551 69.9531C22.0879 72.056 24.2402 73.1074 26.9121 73.1074C29.3366 73.1074 31.2044 72.3158 32.5156 70.7324C33.8268 69.1491 34.4824 67.2812 34.4824 65.1289V62.5312H26.6152V60.0078H37.377V75H35.2246L35.002 70.918C33.5423 74.0846 30.821 75.668 26.8379 75.668C23.3001 75.668 20.4303 74.3691 18.2285 71.7715C16.0514 69.1738 14.9629 65.6237 14.9629 61.1211ZM41.6074 64.8691C41.6074 61.752 42.4486 59.2285 44.1309 57.2988C45.8132 55.3444 47.9902 54.3672 50.6621 54.3672C53.3835 54.3672 55.5234 55.3197 57.082 57.2246C58.6406 59.1048 59.4199 61.5169 59.4199 64.4609C59.4199 64.8073 59.3952 65.3021 59.3457 65.9453H44.502C44.502 67.9492 45.0586 69.6686 46.1719 71.1035C47.2852 72.5384 48.8314 73.2559 50.8105 73.2559C52.097 73.2559 53.235 72.959 54.2246 72.3652C55.2142 71.7467 55.9811 70.9303 56.5254 69.916L58.9746 70.6582C58.3561 72.1178 57.3542 73.3177 55.9688 74.2578C54.5833 75.1979 52.8639 75.668 50.8105 75.668C48.0397 75.668 45.8132 74.6784 44.1309 72.6992C42.4486 70.7201 41.6074 68.11 41.6074 64.8691ZM44.5762 63.7559H56.5254C56.5254 61.8014 55.9935 60.1562 54.9297 58.8203C53.8659 57.4596 52.4434 56.7793 50.6621 56.7793C48.8561 56.7793 47.3965 57.472 46.2832 58.8574C45.1947 60.2428 44.6257 61.8757 44.5762 63.7559ZM61.7207 57.4473V55.0352H65.209V48.6523H68.1035V55.0352H73.373V57.4473H68.1035V69.1367C68.1035 70.3737 68.3385 71.252 68.8086 71.7715C69.2786 72.291 70.0332 72.5508 71.0723 72.5508H73.373V75H70.7012C67.0397 75 65.209 73.1322 65.209 69.3965V57.4473H61.7207ZM86.5469 67.9863V55.0352H89.4414V67.3926C89.4414 71.3014 90.8763 73.2559 93.7461 73.2559C95.5026 73.2559 96.8385 72.5755 97.7539 71.2148C98.694 69.8542 99.1641 68.2461 99.1641 66.3906V55.0352H101.984V75H99.2383V71.7715C99.0404 72.5879 98.4219 73.4414 97.3828 74.332C96.3685 75.2227 94.9336 75.668 93.0781 75.668C91.1732 75.668 89.6022 75.0247 88.3652 73.7383C87.153 72.4271 86.5469 70.5098 86.5469 67.9863ZM111.002 64.9805C111.002 67.4544 111.509 69.4583 112.523 70.9922C113.538 72.5013 114.936 73.2559 116.717 73.2559C118.399 73.2559 119.797 72.5137 120.91 71.0293C122.023 69.5449 122.58 67.5286 122.58 64.9805C122.58 62.5807 122.048 60.6139 120.984 59.0801C119.945 57.5462 118.523 56.7793 116.717 56.7793C115.035 56.7793 113.661 57.5586 112.598 59.1172C111.534 60.651 111.002 62.6055 111.002 64.9805ZM108.182 83.7207V55.0352H110.928V58.6348C111.497 57.3483 112.313 56.3216 113.377 55.5547C114.465 54.763 115.702 54.3672 117.088 54.3672C119.512 54.3672 121.516 55.332 123.1 57.2617C124.683 59.1914 125.475 61.7643 125.475 64.9805C125.475 68.4193 124.646 71.0664 122.988 72.9219C121.331 74.7526 119.364 75.668 117.088 75.668C115.604 75.668 114.342 75.2845 113.303 74.5176C112.264 73.7259 111.497 72.7363 111.002 71.5488V83.7207H108.182ZM128.74 64.9805C128.74 61.6901 129.532 59.1048 131.115 57.2246C132.699 55.3197 134.702 54.3672 137.127 54.3672C138.587 54.3672 139.848 54.7878 140.912 55.6289C142.001 56.4701 142.768 57.4349 143.213 58.5234V46.166H146.033V75H143.287V71.4004C142.768 72.6374 141.964 73.6641 140.875 74.4805C139.811 75.2721 138.562 75.668 137.127 75.668C136.113 75.668 135.123 75.4577 134.158 75.0371C133.218 74.6413 132.327 74.0475 131.486 73.2559C130.67 72.4395 130.002 71.3262 129.482 69.916C128.988 68.4811 128.74 66.8359 128.74 64.9805ZM131.635 64.9805C131.635 67.4792 132.179 69.4831 133.268 70.9922C134.356 72.5013 135.766 73.2559 137.498 73.2559C139.106 73.2559 140.467 72.5137 141.58 71.0293C142.718 69.5202 143.287 67.5039 143.287 64.9805C143.287 62.4818 142.718 60.4902 141.58 59.0059C140.467 57.5215 139.106 56.7793 137.498 56.7793C135.742 56.7793 134.319 57.5339 133.23 59.043C132.167 60.5273 131.635 62.5065 131.635 64.9805ZM153.678 69.8789C153.678 70.819 154.074 71.623 154.865 72.291C155.657 72.9342 156.745 73.2559 158.131 73.2559C159.887 73.2559 161.384 72.6868 162.621 71.5488C163.883 70.4108 164.514 68.9635 164.514 67.207V64.4238C163.425 64.696 161.693 65.0176 159.318 65.3887C157.389 65.735 155.966 66.2669 155.051 66.9844C154.135 67.7018 153.678 68.6667 153.678 69.8789ZM150.783 70.1016C150.783 66.3906 153.653 64.0898 159.393 63.1992C161.965 62.7786 163.673 62.4323 164.514 62.1602V61.0098C164.514 59.7728 164.068 58.7461 163.178 57.9297C162.287 57.1133 161.025 56.7051 159.393 56.7051C158.205 56.7051 157.055 56.9896 155.941 57.5586C154.853 58.1029 153.925 58.8451 153.158 59.7852L151.303 58.2266C152.292 57.0885 153.48 56.1608 154.865 55.4434C156.275 54.7259 157.76 54.3672 159.318 54.3672C164.662 54.3672 167.334 56.9772 167.334 62.1973V75H164.588V71.7344C164.192 72.7982 163.376 73.7259 162.139 74.5176C160.902 75.2845 159.442 75.668 157.76 75.668C155.558 75.668 153.839 75.1484 152.602 74.1094C151.389 73.0703 150.783 71.7344 150.783 70.1016ZM170.859 57.4473V55.0352H174.348V48.6523H177.242V55.0352H182.512V57.4473H177.242V69.1367C177.242 70.3737 177.477 71.252 177.947 71.7715C178.417 72.291 179.172 72.5508 180.211 72.5508H182.512V75H179.84C176.178 75 174.348 73.1322 174.348 69.3965V57.4473H170.859ZM185.295 64.8691C185.295 61.752 186.136 59.2285 187.818 57.2988C189.501 55.3444 191.678 54.3672 194.35 54.3672C197.071 54.3672 199.211 55.3197 200.77 57.2246C202.328 59.1048 203.107 61.5169 203.107 64.4609C203.107 64.8073 203.083 65.3021 203.033 65.9453H188.189C188.189 67.9492 188.746 69.6686 189.859 71.1035C190.973 72.5384 192.519 73.2559 194.498 73.2559C195.785 73.2559 196.923 72.959 197.912 72.3652C198.902 71.7467 199.669 70.9303 200.213 69.916L202.662 70.6582C202.044 72.1178 201.042 73.3177 199.656 74.2578C198.271 75.1979 196.551 75.668 194.498 75.668C191.727 75.668 189.501 74.6784 187.818 72.6992C186.136 70.7201 185.295 68.11 185.295 64.8691ZM188.264 63.7559H200.213C200.213 61.8014 199.681 60.1562 198.617 58.8203C197.553 57.4596 196.131 56.7793 194.35 56.7793C192.544 56.7793 191.084 57.472 189.971 58.8574C188.882 60.2428 188.313 61.8757 188.264 63.7559ZM206.002 71.0664L208.154 69.8047C209.614 72.1055 211.593 73.2559 214.092 73.2559C215.601 73.2559 216.801 72.9837 217.691 72.4395C218.607 71.8952 219.064 71.1035 219.064 70.0645C219.064 69.6191 218.953 69.2233 218.73 68.877C218.508 68.5059 218.26 68.209 217.988 67.9863C217.741 67.7389 217.283 67.4792 216.615 67.207C215.947 66.9102 215.391 66.6999 214.945 66.5762C214.525 66.4277 213.82 66.1927 212.83 65.8711C211.964 65.599 211.222 65.3268 210.604 65.0547C209.985 64.7826 209.342 64.4238 208.674 63.9785C208.006 63.5085 207.486 62.9395 207.115 62.2715C206.769 61.6035 206.596 60.8366 206.596 59.9707C206.596 58.3132 207.264 56.9648 208.6 55.9258C209.936 54.8867 211.766 54.3672 214.092 54.3672C215.725 54.3672 217.221 54.8001 218.582 55.666C219.943 56.5319 220.92 57.5462 221.514 58.709L219.584 59.9707C219.064 59.1048 218.31 58.3626 217.32 57.7441C216.355 57.1009 215.279 56.7793 214.092 56.7793C212.583 56.7793 211.432 57.0762 210.641 57.6699C209.874 58.2389 209.49 59.0182 209.49 60.0078C209.49 60.5768 209.639 61.0964 209.936 61.5664C210.232 62.0117 210.678 62.4076 211.271 62.7539C211.89 63.0755 212.447 63.3353 212.941 63.5332C213.461 63.7064 214.141 63.929 214.982 64.2012C215.7 64.4238 216.331 64.6341 216.875 64.832C217.444 65.0299 218.062 65.3021 218.73 65.6484C219.398 65.9948 219.955 66.3659 220.4 66.7617C220.846 67.1328 221.217 67.6152 221.514 68.209C221.811 68.778 221.959 69.3965 221.959 70.0645C221.959 71.6478 221.254 72.9837 219.844 74.0723C218.458 75.1361 216.541 75.668 214.092 75.668C212.311 75.668 210.727 75.2721 209.342 74.4805C207.956 73.6641 206.843 72.526 206.002 71.0664ZM233.426 57.4473V55.0352H236.84V51.9551C236.84 50.0007 237.335 48.5534 238.324 47.6133C239.314 46.6484 240.674 46.166 242.406 46.166H245.004V48.541H242.777C240.749 48.541 239.734 49.778 239.734 52.252V55.0352H244.484V57.4473H239.734V75H236.84V57.4473H233.426ZM248.195 75V55.0352H250.941V57.9297C251.337 57.0391 251.993 56.2227 252.908 55.4805C253.824 54.7383 254.999 54.3672 256.434 54.3672C257.497 54.3672 258.438 54.5404 259.254 54.8867V57.4844C258.363 57.138 257.423 56.9648 256.434 56.9648C254.751 56.9648 253.44 57.5957 252.5 58.8574C251.56 60.1191 251.09 61.7891 251.09 63.8672V75H248.195ZM263.67 65.0176C263.67 67.541 264.251 69.5449 265.414 71.0293C266.577 72.5137 268.024 73.2559 269.756 73.2559C271.463 73.2559 272.898 72.5137 274.061 71.0293C275.248 69.5449 275.842 67.541 275.842 65.0176C275.842 62.4447 275.248 60.4284 274.061 58.9688C272.873 57.5091 271.438 56.7793 269.756 56.7793C268.049 56.7793 266.602 57.5091 265.414 58.9688C264.251 60.4284 263.67 62.4447 263.67 65.0176ZM260.775 65.0176C260.775 61.9746 261.555 59.4388 263.113 57.4102C264.697 55.3815 266.911 54.3672 269.756 54.3672C272.576 54.3672 274.778 55.3815 276.361 57.4102C277.945 59.4388 278.736 61.9746 278.736 65.0176C278.736 66.304 278.563 67.5534 278.217 68.7656C277.895 69.9779 277.388 71.1159 276.695 72.1797C276.027 73.2188 275.087 74.0599 273.875 74.7031C272.688 75.3464 271.314 75.668 269.756 75.668C268.222 75.668 266.849 75.3587 265.637 74.7402C264.449 74.097 263.509 73.2559 262.816 72.2168C262.148 71.153 261.641 70.015 261.295 68.8027C260.949 67.5905 260.775 66.3288 260.775 65.0176ZM283.338 75V55.0352H286.158V58.041C286.505 57.1257 287.16 56.2845 288.125 55.5176C289.09 54.7507 290.314 54.3672 291.799 54.3672C293.258 54.3672 294.372 54.7878 295.139 55.6289C295.906 56.4453 296.499 57.5091 296.92 58.8203C297.044 58.4987 297.242 58.1276 297.514 57.707C297.786 57.2865 298.169 56.804 298.664 56.2598C299.159 55.7155 299.814 55.2702 300.631 54.9238C301.472 54.5527 302.387 54.3672 303.377 54.3672C307.236 54.3672 309.166 56.9401 309.166 62.0859V75H306.271V62.3086C306.271 60.4779 306.024 59.1048 305.529 58.1895C305.035 57.2493 304.094 56.7793 302.709 56.7793C301.274 56.7793 300.074 57.3854 299.109 58.5977C298.145 59.7852 297.662 61.2943 297.662 63.125V75H294.842V62.2715C294.842 58.61 293.63 56.7793 291.205 56.7793C289.696 56.7793 288.484 57.3483 287.568 58.4863C286.678 59.6243 286.232 61.1087 286.232 62.9395V75H283.338ZM328.018 60.4531H335.514C337.369 60.4531 338.792 59.9583 339.781 58.9688C340.796 57.9792 341.303 56.668 341.303 55.0352C341.303 53.4518 340.771 52.1777 339.707 51.2129C338.668 50.2233 337.171 49.7285 335.217 49.7285H328.018V60.4531ZM325.049 75V47.2051H335.885C338.606 47.2051 340.697 47.9473 342.156 49.4316C343.616 50.8913 344.346 52.6973 344.346 54.8496C344.346 56.804 343.851 58.3874 342.861 59.5996C341.872 60.8118 340.783 61.5788 339.596 61.9004C340.635 62.4447 341.389 63.1126 341.859 63.9043C342.329 64.696 342.713 65.7969 343.01 67.207C343.331 68.5924 343.554 69.5449 343.678 70.0645C343.826 70.5592 344.074 71.2767 344.42 72.2168C344.791 73.1569 345.236 74.0846 345.756 75H342.416C341.995 74.2083 341.612 73.3672 341.266 72.4766C340.944 71.5612 340.709 70.819 340.561 70.25C340.412 69.6562 340.189 68.7161 339.893 67.4297C339.571 66.0443 339.076 64.9557 338.408 64.1641C337.765 63.3724 336.726 62.9766 335.291 62.9766H328.018V75H325.049ZM349.541 50.5449V46.7969H353.178V50.5449H349.541ZM349.986 75V55.0352H352.807V75H349.986ZM358.113 65.0176C358.113 61.8509 358.917 59.2904 360.525 57.3359C362.133 55.3568 364.298 54.3672 367.02 54.3672C368.801 54.3672 370.322 54.8867 371.584 55.9258C372.87 56.9401 373.724 58.1523 374.145 59.5625L371.695 60.2676C371.324 59.278 370.718 58.4492 369.877 57.7812C369.061 57.1133 368.108 56.7793 367.02 56.7793C365.189 56.7793 363.729 57.5586 362.641 59.1172C361.552 60.6758 361.008 62.6426 361.008 65.0176C361.008 67.541 361.577 69.5449 362.715 71.0293C363.853 72.5137 365.288 73.2559 367.02 73.2559C368.182 73.2559 369.234 72.8848 370.174 72.1426C371.139 71.3757 371.819 70.4974 372.215 69.5078L374.664 70.2871C374.145 71.7715 373.192 73.0456 371.807 74.1094C370.446 75.1484 368.85 75.668 367.02 75.668C364.372 75.668 362.22 74.7031 360.562 72.7734C358.93 70.8438 358.113 68.2585 358.113 65.0176ZM378.746 75V46.166H381.566V58.2637H381.641C382.135 57.1999 382.927 56.2845 384.016 55.5176C385.129 54.7507 386.391 54.3672 387.801 54.3672C392.105 54.3672 394.258 56.9401 394.258 62.0859V75H391.438V62.5684C391.438 58.709 390.052 56.7793 387.281 56.7793C385.747 56.7793 384.411 57.4102 383.273 58.6719C382.135 59.9336 381.566 61.4303 381.566 63.1621V75H378.746ZM401.494 69.8789C401.494 70.819 401.89 71.623 402.682 72.291C403.473 72.9342 404.562 73.2559 405.947 73.2559C407.704 73.2559 409.201 72.6868 410.438 71.5488C411.699 70.4108 412.33 68.9635 412.33 67.207V64.4238C411.242 64.696 409.51 65.0176 407.135 65.3887C405.205 65.735 403.783 66.2669 402.867 66.9844C401.952 67.7018 401.494 68.6667 401.494 69.8789ZM398.6 70.1016C398.6 66.3906 401.469 64.0898 407.209 63.1992C409.782 62.7786 411.489 62.4323 412.33 62.1602V61.0098C412.33 59.7728 411.885 58.7461 410.994 57.9297C410.104 57.1133 408.842 56.7051 407.209 56.7051C406.021 56.7051 404.871 56.9896 403.758 57.5586C402.669 58.1029 401.742 58.8451 400.975 59.7852L399.119 58.2266C400.109 57.0885 401.296 56.1608 402.682 55.4434C404.092 54.7259 405.576 54.3672 407.135 54.3672C412.479 54.3672 415.15 56.9772 415.15 62.1973V75H412.404V71.7344C412.008 72.7982 411.192 73.7259 409.955 74.5176C408.718 75.2845 407.258 75.668 405.576 75.668C403.374 75.668 401.655 75.1484 400.418 74.1094C399.206 73.0703 398.6 71.7344 398.6 70.1016ZM420.902 75V55.0352H423.648V57.9297C424.044 57.0391 424.7 56.2227 425.615 55.4805C426.531 54.7383 427.706 54.3672 429.141 54.3672C430.204 54.3672 431.145 54.5404 431.961 54.8867V57.4844C431.07 57.138 430.13 56.9648 429.141 56.9648C427.458 56.9648 426.147 57.5957 425.207 58.8574C424.267 60.1191 423.797 61.7891 423.797 63.8672V75H420.902ZM433.482 64.9805C433.482 61.6901 434.274 59.1048 435.857 57.2246C437.441 55.3197 439.445 54.3672 441.869 54.3672C443.329 54.3672 444.59 54.7878 445.654 55.6289C446.743 56.4701 447.51 57.4349 447.955 58.5234V46.166H450.775V75H448.029V71.4004C447.51 72.6374 446.706 73.6641 445.617 74.4805C444.553 75.2721 443.304 75.668 441.869 75.668C440.855 75.668 439.865 75.4577 438.9 75.0371C437.96 74.6413 437.07 74.0475 436.229 73.2559C435.412 72.4395 434.744 71.3262 434.225 69.916C433.73 68.4811 433.482 66.8359 433.482 64.9805ZM436.377 64.9805C436.377 67.4792 436.921 69.4831 438.01 70.9922C439.098 72.5013 440.508 73.2559 442.24 73.2559C443.848 73.2559 445.209 72.5137 446.322 71.0293C447.46 69.5202 448.029 67.5039 448.029 64.9805C448.029 62.4818 447.46 60.4902 446.322 59.0059C445.209 57.5215 443.848 56.7793 442.24 56.7793C440.484 56.7793 439.061 57.5339 437.973 59.043C436.909 60.5273 436.377 62.5065 436.377 64.9805Z" fill="white"/>
<defs>
<filter id="filter0_d_1_283" x="1" y="178" width="311" height="70" filterUnits="userSpaceOnUse" color-interpolation-filters="sRGB">
<feFlood flood-opacity="0" result="BackgroundImageFix"/>
<feColorMatrix in="SourceAlpha" type="matrix" values="0 0 0 0 0 0 0 0 0 0 0 0 0 0 0 0 0 0 127 0" result="hardAlpha"/>
<feOffset/>
<feColorMatrix type="matrix" values="0 0 0 0 0.988235 0 0 0 0 0.0392157 0 0 0 0 0.494118 0 0 0 1 0"/>
<feBlend mode="normal" in2="BackgroundImageFix" result="effect1_dropShadow_1_283"/>
<feBlend mode="normal" in="SourceGraphic" in2="effect1_dropShadow_1_283" result="shape"/>
</filter>
</defs>
</svg>
