<svg width="396" height="234" viewBox="0 0 396 234" fill="none" xmlns="http://www.w3.org/2000/svg">
<path d="M254.328 160.156C254.328 158.344 254.781 156.87 255.688 155.734C256.604 154.589 257.849 154.016 259.422 154.016C259.953 154.016 260.448 154.099 260.906 154.266C261.365 154.422 261.745 154.635 262.047 154.906C262.359 155.177 262.615 155.443 262.812 155.703C263.021 155.953 263.193 156.219 263.328 156.5L262.266 156.875C261.526 155.677 260.578 155.078 259.422 155.078C258.224 155.078 257.286 155.547 256.609 156.484C255.943 157.411 255.609 158.635 255.609 160.156C255.609 161.74 255.953 162.979 256.641 163.875C257.328 164.76 258.234 165.203 259.359 165.203C260.38 165.203 261.167 164.87 261.719 164.203C262.271 163.536 262.547 162.75 262.547 161.844V160.75H259.234V159.688H263.766V166H262.859L262.766 164.281C262.151 165.615 261.005 166.281 259.328 166.281C257.839 166.281 256.63 165.734 255.703 164.641C254.786 163.547 254.328 162.052 254.328 160.156ZM265.547 161.734C265.547 160.422 265.901 159.359 266.609 158.547C267.318 157.724 268.234 157.312 269.359 157.312C270.505 157.312 271.406 157.714 272.062 158.516C272.719 159.307 273.047 160.323 273.047 161.562C273.047 161.708 273.036 161.917 273.016 162.188H266.766C266.766 163.031 267 163.755 267.469 164.359C267.938 164.964 268.589 165.266 269.422 165.266C269.964 165.266 270.443 165.141 270.859 164.891C271.276 164.63 271.599 164.286 271.828 163.859L272.859 164.172C272.599 164.786 272.177 165.292 271.594 165.688C271.01 166.083 270.286 166.281 269.422 166.281C268.255 166.281 267.318 165.865 266.609 165.031C265.901 164.198 265.547 163.099 265.547 161.734ZM266.797 161.266H271.828C271.828 160.443 271.604 159.75 271.156 159.188C270.708 158.615 270.109 158.328 269.359 158.328C268.599 158.328 267.984 158.62 267.516 159.203C267.057 159.786 266.818 160.474 266.797 161.266ZM274.016 158.609V157.594H275.484V154.906H276.703V157.594H278.922V158.609H276.703V163.531C276.703 164.052 276.802 164.422 277 164.641C277.198 164.859 277.516 164.969 277.953 164.969H278.922V166H277.797C276.255 166 275.484 165.214 275.484 163.641V158.609H274.016ZM284.688 155.703V154.125H286.219V155.703H284.688ZM284.875 166V157.594H286.062V166H284.875ZM288.859 166V157.594H290.047V159.031H290.062C290.188 158.615 290.495 158.224 290.984 157.859C291.474 157.495 292.057 157.312 292.734 157.312C293.516 157.312 294.156 157.557 294.656 158.047C295.167 158.536 295.422 159.375 295.422 160.562V166H294.203V160.766C294.203 159.141 293.62 158.328 292.453 158.328C291.807 158.328 291.25 158.589 290.781 159.109C290.312 159.63 290.078 160.255 290.078 160.984V166H288.859ZM300.672 155.359V154.297H309.047V155.359H305.484V166H304.234V155.359H300.672ZM310.453 161.797C310.453 162.859 310.698 163.703 311.188 164.328C311.677 164.953 312.286 165.266 313.016 165.266C313.734 165.266 314.339 164.953 314.828 164.328C315.328 163.703 315.578 162.859 315.578 161.797C315.578 160.714 315.328 159.865 314.828 159.25C314.328 158.635 313.724 158.328 313.016 158.328C312.297 158.328 311.688 158.635 311.188 159.25C310.698 159.865 310.453 160.714 310.453 161.797ZM309.234 161.797C309.234 160.516 309.562 159.448 310.219 158.594C310.885 157.74 311.818 157.312 313.016 157.312C314.203 157.312 315.13 157.74 315.797 158.594C316.464 159.448 316.797 160.516 316.797 161.797C316.797 162.339 316.724 162.865 316.578 163.375C316.443 163.885 316.229 164.365 315.938 164.812C315.656 165.25 315.26 165.604 314.75 165.875C314.25 166.146 313.672 166.281 313.016 166.281C312.37 166.281 311.792 166.151 311.281 165.891C310.781 165.62 310.385 165.266 310.094 164.828C309.812 164.38 309.599 163.901 309.453 163.391C309.307 162.88 309.234 162.349 309.234 161.797ZM318.641 163.047V157.594H319.859V162.797C319.859 164.443 320.464 165.266 321.672 165.266C322.411 165.266 322.974 164.979 323.359 164.406C323.755 163.833 323.953 163.156 323.953 162.375V157.594H325.141V166H323.984V164.641C323.901 164.984 323.641 165.344 323.203 165.719C322.776 166.094 322.172 166.281 321.391 166.281C320.589 166.281 319.927 166.01 319.406 165.469C318.896 164.917 318.641 164.109 318.641 163.047ZM327.094 161.797C327.094 160.464 327.432 159.385 328.109 158.562C328.786 157.729 329.698 157.312 330.844 157.312C331.594 157.312 332.234 157.531 332.766 157.969C333.307 158.396 333.667 158.906 333.844 159.5L332.812 159.797C332.656 159.38 332.401 159.031 332.047 158.75C331.703 158.469 331.302 158.328 330.844 158.328C330.073 158.328 329.458 158.656 329 159.312C328.542 159.969 328.312 160.797 328.312 161.797C328.312 162.859 328.552 163.703 329.031 164.328C329.51 164.953 330.115 165.266 330.844 165.266C331.333 165.266 331.776 165.109 332.172 164.797C332.578 164.474 332.865 164.104 333.031 163.688L334.062 164.016C333.844 164.641 333.443 165.177 332.859 165.625C332.286 166.062 331.615 166.281 330.844 166.281C329.729 166.281 328.823 165.875 328.125 165.062C327.438 164.25 327.094 163.161 327.094 161.797ZM335.781 166V153.859H336.969V158.953H337C337.208 158.505 337.542 158.12 338 157.797C338.469 157.474 339 157.312 339.594 157.312C341.406 157.312 342.312 158.396 342.312 160.562V166H341.125V160.766C341.125 159.141 340.542 158.328 339.375 158.328C338.729 158.328 338.167 158.594 337.688 159.125C337.208 159.656 336.969 160.286 336.969 161.016V166H335.781Z" fill="white"/>
<rect x="213.5" y="128.5" width="170" height="65" stroke="#B04BB3"/>
<path d="M13 131C13 129.343 14.3431 128 16 128H200C201.657 128 203 129.343 203 131V191C203 192.657 201.657 194 200 194H16C14.3431 194 13 192.657 13 191V131Z" fill="#FC0A7E"/>
<path d="M56.0469 166V154.297H59.2031C60.8906 154.297 62.2188 154.797 63.1875 155.797C64.1562 156.786 64.6406 158.24 64.6406 160.156C64.6406 161.979 64.1719 163.411 63.2344 164.453C62.2969 165.484 60.9427 166 59.1719 166H56.0469ZM57.2969 164.938H58.9844C60.3385 164.938 61.4062 164.557 62.1875 163.797C62.9688 163.026 63.3594 161.812 63.3594 160.156C63.3594 158.479 62.9688 157.26 62.1875 156.5C61.4062 155.74 60.349 155.359 59.0156 155.359H57.2969V164.938ZM67.2812 161.797C67.2812 162.859 67.526 163.703 68.0156 164.328C68.5052 164.953 69.1146 165.266 69.8438 165.266C70.5625 165.266 71.1667 164.953 71.6562 164.328C72.1562 163.703 72.4062 162.859 72.4062 161.797C72.4062 160.714 72.1562 159.865 71.6562 159.25C71.1562 158.635 70.5521 158.328 69.8438 158.328C69.125 158.328 68.5156 158.635 68.0156 159.25C67.526 159.865 67.2812 160.714 67.2812 161.797ZM66.0625 161.797C66.0625 160.516 66.3906 159.448 67.0469 158.594C67.7135 157.74 68.6458 157.312 69.8438 157.312C71.0312 157.312 71.9583 157.74 72.625 158.594C73.2917 159.448 73.625 160.516 73.625 161.797C73.625 162.339 73.5521 162.865 73.4062 163.375C73.2708 163.885 73.0573 164.365 72.7656 164.812C72.4844 165.25 72.0885 165.604 71.5781 165.875C71.0781 166.146 70.5 166.281 69.8438 166.281C69.1979 166.281 68.6198 166.151 68.1094 165.891C67.6094 165.62 67.2135 165.266 66.9219 164.828C66.6406 164.38 66.4271 163.901 66.2812 163.391C66.1354 162.88 66.0625 162.349 66.0625 161.797ZM74.4375 157.594H75.7812L77.0156 162.812C77.276 164.01 77.4271 164.703 77.4688 164.891H77.5312C77.5833 164.641 77.6667 164.281 77.7812 163.812C77.8958 163.344 77.974 163.01 78.0156 162.812L79.2969 157.594H80.7344L82.0312 162.875C82.0729 163.052 82.1458 163.359 82.25 163.797C82.3542 164.234 82.4375 164.599 82.5 164.891H82.5625C82.5938 164.766 82.7448 164.073 83.0156 162.812L84.25 157.594H85.5938L83.2812 166H81.7656L80.5 160.938C80.2188 159.667 80.0677 158.979 80.0469 158.875H79.9844C79.7344 160.052 79.5833 160.74 79.5312 160.938L78.2656 166H76.75L74.4375 157.594ZM86.9531 166V157.594H88.1406V159.031H88.1562C88.2812 158.615 88.5885 158.224 89.0781 157.859C89.5677 157.495 90.151 157.312 90.8281 157.312C91.6094 157.312 92.25 157.557 92.75 158.047C93.2604 158.536 93.5156 159.375 93.5156 160.562V166H92.2969V160.766C92.2969 159.141 91.7135 158.328 90.5469 158.328C89.901 158.328 89.3438 158.589 88.875 159.109C88.4062 159.63 88.1719 160.255 88.1719 160.984V166H86.9531ZM96.1094 166V153.859H97.2969V166H96.1094ZM100.641 161.797C100.641 162.859 100.885 163.703 101.375 164.328C101.865 164.953 102.474 165.266 103.203 165.266C103.922 165.266 104.526 164.953 105.016 164.328C105.516 163.703 105.766 162.859 105.766 161.797C105.766 160.714 105.516 159.865 105.016 159.25C104.516 158.635 103.911 158.328 103.203 158.328C102.484 158.328 101.875 158.635 101.375 159.25C100.885 159.865 100.641 160.714 100.641 161.797ZM99.4219 161.797C99.4219 160.516 99.75 159.448 100.406 158.594C101.073 157.74 102.005 157.312 103.203 157.312C104.391 157.312 105.318 157.74 105.984 158.594C106.651 159.448 106.984 160.516 106.984 161.797C106.984 162.339 106.911 162.865 106.766 163.375C106.63 163.885 106.417 164.365 106.125 164.812C105.844 165.25 105.448 165.604 104.938 165.875C104.438 166.146 103.859 166.281 103.203 166.281C102.557 166.281 101.979 166.151 101.469 165.891C100.969 165.62 100.573 165.266 100.281 164.828C100 164.38 99.7865 163.901 99.6406 163.391C99.4948 162.88 99.4219 162.349 99.4219 161.797ZM109.547 163.844C109.547 164.24 109.714 164.578 110.047 164.859C110.38 165.13 110.839 165.266 111.422 165.266C112.161 165.266 112.792 165.026 113.312 164.547C113.844 164.068 114.109 163.458 114.109 162.719V161.547C113.651 161.661 112.922 161.797 111.922 161.953C111.109 162.099 110.51 162.323 110.125 162.625C109.74 162.927 109.547 163.333 109.547 163.844ZM108.328 163.938C108.328 162.375 109.536 161.406 111.953 161.031C113.036 160.854 113.755 160.708 114.109 160.594V160.109C114.109 159.589 113.922 159.156 113.547 158.812C113.172 158.469 112.641 158.297 111.953 158.297C111.453 158.297 110.969 158.417 110.5 158.656C110.042 158.885 109.651 159.198 109.328 159.594L108.547 158.938C108.964 158.458 109.464 158.068 110.047 157.766C110.641 157.464 111.266 157.312 111.922 157.312C114.172 157.312 115.297 158.411 115.297 160.609V166H114.141V164.625C113.974 165.073 113.63 165.464 113.109 165.797C112.589 166.12 111.974 166.281 111.266 166.281C110.339 166.281 109.615 166.062 109.094 165.625C108.583 165.188 108.328 164.625 108.328 163.938ZM117.156 161.781C117.156 160.396 117.49 159.307 118.156 158.516C118.823 157.714 119.667 157.312 120.688 157.312C121.302 157.312 121.833 157.49 122.281 157.844C122.74 158.198 123.062 158.604 123.25 159.062V153.859H124.438V166H123.281V164.484C123.062 165.005 122.724 165.438 122.266 165.781C121.818 166.115 121.292 166.281 120.688 166.281C120.26 166.281 119.844 166.193 119.438 166.016C119.042 165.849 118.667 165.599 118.312 165.266C117.969 164.922 117.688 164.453 117.469 163.859C117.26 163.255 117.156 162.562 117.156 161.781ZM118.375 161.781C118.375 162.833 118.604 163.677 119.062 164.312C119.521 164.948 120.115 165.266 120.844 165.266C121.521 165.266 122.094 164.953 122.562 164.328C123.042 163.693 123.281 162.844 123.281 161.781C123.281 160.729 123.042 159.891 122.562 159.266C122.094 158.641 121.521 158.328 120.844 158.328C120.104 158.328 119.505 158.646 119.047 159.281C118.599 159.906 118.375 160.74 118.375 161.781ZM131.312 166V154.297H132.75L137.062 161.766L138.469 164.234H138.562C138.438 163.266 138.375 162.161 138.375 160.922V154.297H139.625V166H138.188L133.859 158.484L132.469 156.078H132.406C132.51 157.12 132.562 158.219 132.562 159.375V166H131.312ZM143.156 161.797C143.156 162.859 143.401 163.703 143.891 164.328C144.38 164.953 144.99 165.266 145.719 165.266C146.438 165.266 147.042 164.953 147.531 164.328C148.031 163.703 148.281 162.859 148.281 161.797C148.281 160.714 148.031 159.865 147.531 159.25C147.031 158.635 146.427 158.328 145.719 158.328C145 158.328 144.391 158.635 143.891 159.25C143.401 159.865 143.156 160.714 143.156 161.797ZM141.938 161.797C141.938 160.516 142.266 159.448 142.922 158.594C143.589 157.74 144.521 157.312 145.719 157.312C146.906 157.312 147.833 157.74 148.5 158.594C149.167 159.448 149.5 160.516 149.5 161.797C149.5 162.339 149.427 162.865 149.281 163.375C149.146 163.885 148.932 164.365 148.641 164.812C148.359 165.25 147.964 165.604 147.453 165.875C146.953 166.146 146.375 166.281 145.719 166.281C145.073 166.281 144.495 166.151 143.984 165.891C143.484 165.62 143.089 165.266 142.797 164.828C142.516 164.38 142.302 163.901 142.156 163.391C142.01 162.88 141.938 162.349 141.938 161.797ZM150.312 157.594H151.656L152.891 162.812C153.151 164.01 153.302 164.703 153.344 164.891H153.406C153.458 164.641 153.542 164.281 153.656 163.812C153.771 163.344 153.849 163.01 153.891 162.812L155.172 157.594H156.609L157.906 162.875C157.948 163.052 158.021 163.359 158.125 163.797C158.229 164.234 158.312 164.599 158.375 164.891H158.438C158.469 164.766 158.62 164.073 158.891 162.812L160.125 157.594H161.469L159.156 166H157.641L156.375 160.938C156.094 159.667 155.943 158.979 155.922 158.875H155.859C155.609 160.052 155.458 160.74 155.406 160.938L154.141 166H152.625L150.312 157.594Z" fill="white"/>
<path d="M19.4102 60.4531H26.9062C28.7617 60.4531 30.1842 59.9583 31.1738 58.9688C32.1882 57.9792 32.6953 56.668 32.6953 55.0352C32.6953 53.4518 32.1634 52.1777 31.0996 51.2129C30.0605 50.2233 28.5638 49.7285 26.6094 49.7285H19.4102V60.4531ZM16.4414 75V47.2051H27.2773C29.9987 47.2051 32.0892 47.9473 33.5488 49.4316C35.0085 50.8913 35.7383 52.6973 35.7383 54.8496C35.7383 56.804 35.2435 58.3874 34.2539 59.5996C33.2643 60.8118 32.1758 61.5788 30.9883 61.9004C32.0273 62.4447 32.7819 63.1126 33.252 63.9043C33.722 64.696 34.1055 65.7969 34.4023 67.207C34.724 68.5924 34.9466 69.5449 35.0703 70.0645C35.2188 70.5592 35.4661 71.2767 35.8125 72.2168C36.1836 73.1569 36.6289 74.0846 37.1484 75H33.8086C33.388 74.2083 33.0046 73.3672 32.6582 72.4766C32.3366 71.5612 32.1016 70.819 31.9531 70.25C31.8047 69.6562 31.582 68.7161 31.2852 67.4297C30.9635 66.0443 30.4688 64.9557 29.8008 64.1641C29.1576 63.3724 28.1185 62.9766 26.6836 62.9766H19.4102V75H16.4414ZM39.3008 64.8691C39.3008 61.752 40.1419 59.2285 41.8242 57.2988C43.5065 55.3444 45.6836 54.3672 48.3555 54.3672C51.0768 54.3672 53.2168 55.3197 54.7754 57.2246C56.334 59.1048 57.1133 61.5169 57.1133 64.4609C57.1133 64.8073 57.0885 65.3021 57.0391 65.9453H42.1953C42.1953 67.9492 42.752 69.6686 43.8652 71.1035C44.9785 72.5384 46.5247 73.2559 48.5039 73.2559C49.7904 73.2559 50.9284 72.959 51.918 72.3652C52.9076 71.7467 53.6745 70.9303 54.2188 69.916L56.668 70.6582C56.0495 72.1178 55.0475 73.3177 53.6621 74.2578C52.2767 75.1979 50.5573 75.668 48.5039 75.668C45.7331 75.668 43.5065 74.6784 41.8242 72.6992C40.1419 70.7201 39.3008 68.11 39.3008 64.8691ZM42.2695 63.7559H54.2188C54.2188 61.8014 53.6868 60.1562 52.623 58.8203C51.5592 57.4596 50.1367 56.7793 48.3555 56.7793C46.5495 56.7793 45.0898 57.472 43.9766 58.8574C42.888 60.2428 42.319 61.8757 42.2695 63.7559ZM63.125 69.8789C63.125 70.819 63.5208 71.623 64.3125 72.291C65.1042 72.9342 66.1927 73.2559 67.5781 73.2559C69.3346 73.2559 70.8314 72.6868 72.0684 71.5488C73.3301 70.4108 73.9609 68.9635 73.9609 67.207V64.4238C72.8724 64.696 71.1406 65.0176 68.7656 65.3887C66.8359 65.735 65.4134 66.2669 64.498 66.9844C63.5827 67.7018 63.125 68.6667 63.125 69.8789ZM60.2305 70.1016C60.2305 66.3906 63.1003 64.0898 68.8398 63.1992C71.4128 62.7786 73.1198 62.4323 73.9609 62.1602V61.0098C73.9609 59.7728 73.5156 58.7461 72.625 57.9297C71.7344 57.1133 70.4727 56.7051 68.8398 56.7051C67.6523 56.7051 66.502 56.9896 65.3887 57.5586C64.3001 58.1029 63.3724 58.8451 62.6055 59.7852L60.75 58.2266C61.7396 57.0885 62.9271 56.1608 64.3125 55.4434C65.7227 54.7259 67.207 54.3672 68.7656 54.3672C74.1094 54.3672 76.7812 56.9772 76.7812 62.1973V75H74.0352V71.7344C73.6393 72.7982 72.8229 73.7259 71.5859 74.5176C70.349 75.2845 68.8893 75.668 67.207 75.668C65.0052 75.668 63.2858 75.1484 62.0488 74.1094C60.8366 73.0703 60.2305 71.7344 60.2305 70.1016ZM81.1973 64.9805C81.1973 61.6901 81.9889 59.1048 83.5723 57.2246C85.1556 55.3197 87.1595 54.3672 89.584 54.3672C91.0436 54.3672 92.3053 54.7878 93.3691 55.6289C94.4577 56.4701 95.2246 57.4349 95.6699 58.5234V46.166H98.4902V75H95.7441V71.4004C95.2246 72.6374 94.4206 73.6641 93.332 74.4805C92.2682 75.2721 91.0189 75.668 89.584 75.668C88.5697 75.668 87.5801 75.4577 86.6152 75.0371C85.6751 74.6413 84.7845 74.0475 83.9434 73.2559C83.127 72.4395 82.459 71.3262 81.9395 69.916C81.4447 68.4811 81.1973 66.8359 81.1973 64.9805ZM84.0918 64.9805C84.0918 67.4792 84.6361 69.4831 85.7246 70.9922C86.8132 72.5013 88.2233 73.2559 89.9551 73.2559C91.5632 73.2559 92.9238 72.5137 94.0371 71.0293C95.1751 69.5202 95.7441 67.5039 95.7441 64.9805C95.7441 62.4818 95.1751 60.4902 94.0371 59.0059C92.9238 57.5215 91.5632 56.7793 89.9551 56.7793C88.1986 56.7793 86.776 57.5339 85.6875 59.043C84.6237 60.5273 84.0918 62.5065 84.0918 64.9805ZM101.979 55.0352H105.318L109.438 66.7246C110.056 68.4564 110.613 70.1387 111.107 71.7715H111.256C111.627 70.5592 112.171 68.877 112.889 66.7246L116.822 55.0352H120.088L111.479 78.3398C110.736 80.319 109.87 81.7044 108.881 82.4961C107.916 83.3125 106.729 83.7207 105.318 83.7207H104.205V81.3457H104.873C105.813 81.3457 106.605 81.0736 107.248 80.5293C107.916 79.985 108.51 79.0078 109.029 77.5977L109.771 75.2598L101.979 55.0352ZM130.367 57.4473V55.0352H133.855V48.6523H136.75V55.0352H142.02V57.4473H136.75V69.1367C136.75 70.3737 136.985 71.252 137.455 71.7715C137.925 72.291 138.68 72.5508 139.719 72.5508H142.02V75H139.348C135.686 75 133.855 73.1322 133.855 69.3965V57.4473H130.367ZM147.697 65.0176C147.697 67.541 148.279 69.5449 149.441 71.0293C150.604 72.5137 152.051 73.2559 153.783 73.2559C155.49 73.2559 156.925 72.5137 158.088 71.0293C159.275 69.5449 159.869 67.541 159.869 65.0176C159.869 62.4447 159.275 60.4284 158.088 58.9688C156.9 57.5091 155.465 56.7793 153.783 56.7793C152.076 56.7793 150.629 57.5091 149.441 58.9688C148.279 60.4284 147.697 62.4447 147.697 65.0176ZM144.803 65.0176C144.803 61.9746 145.582 59.4388 147.141 57.4102C148.724 55.3815 150.938 54.3672 153.783 54.3672C156.604 54.3672 158.805 55.3815 160.389 57.4102C161.972 59.4388 162.764 61.9746 162.764 65.0176C162.764 66.304 162.59 67.5534 162.244 68.7656C161.923 69.9779 161.415 71.1159 160.723 72.1797C160.055 73.2188 159.115 74.0599 157.902 74.7031C156.715 75.3464 155.342 75.668 153.783 75.668C152.249 75.668 150.876 75.3587 149.664 74.7402C148.477 74.097 147.536 73.2559 146.844 72.2168C146.176 71.153 145.669 70.015 145.322 68.8027C144.976 67.5905 144.803 66.3288 144.803 65.0176ZM178.201 64.6465C178.201 66.9967 178.721 68.9017 179.76 70.3613C180.799 71.7962 182.16 72.5137 183.842 72.5137C185.549 72.5137 186.897 71.821 187.887 70.4355C188.901 69.0501 189.408 67.1081 189.408 64.6094C189.408 62.1849 188.889 60.2799 187.85 58.8945C186.835 57.4844 185.524 56.7793 183.916 56.7793C182.184 56.7793 180.799 57.5215 179.76 59.0059C178.721 60.4655 178.201 62.3457 178.201 64.6465ZM175.307 64.6836C175.307 61.5911 176.074 59.1048 177.607 57.2246C179.141 55.3197 181.12 54.3672 183.545 54.3672C185.079 54.3672 186.328 54.763 187.293 55.5547C188.283 56.3464 188.988 57.2617 189.408 58.3008V55.0352H192.229V72.6621C192.229 76.4473 191.548 79.2552 190.188 81.0859C188.852 82.9414 186.712 83.8691 183.768 83.8691C180.576 83.8691 178.102 82.6569 176.346 80.2324L178.35 78.9336C179.883 80.6654 181.714 81.5312 183.842 81.5312C185.598 81.5312 186.959 80.8385 187.924 79.4531C188.913 78.0924 189.408 76.2617 189.408 73.9609V71.1035C188.889 72.2168 188.134 73.1322 187.145 73.8496C186.18 74.5671 185.005 74.9258 183.619 74.9258C181.096 74.9258 179.079 73.9733 177.57 72.0684C176.061 70.1387 175.307 67.6771 175.307 64.6836ZM196.941 64.8691C196.941 61.752 197.783 59.2285 199.465 57.2988C201.147 55.3444 203.324 54.3672 205.996 54.3672C208.717 54.3672 210.857 55.3197 212.416 57.2246C213.975 59.1048 214.754 61.5169 214.754 64.4609C214.754 64.8073 214.729 65.3021 214.68 65.9453H199.836C199.836 67.9492 200.393 69.6686 201.506 71.1035C202.619 72.5384 204.165 73.2559 206.145 73.2559C207.431 73.2559 208.569 72.959 209.559 72.3652C210.548 71.7467 211.315 70.9303 211.859 69.916L214.309 70.6582C213.69 72.1178 212.688 73.3177 211.303 74.2578C209.917 75.1979 208.198 75.668 206.145 75.668C203.374 75.668 201.147 74.6784 199.465 72.6992C197.783 70.7201 196.941 68.11 196.941 64.8691ZM199.91 63.7559H211.859C211.859 61.8014 211.327 60.1562 210.264 58.8203C209.2 57.4596 207.777 56.7793 205.996 56.7793C204.19 56.7793 202.73 57.472 201.617 58.8574C200.529 60.2428 199.96 61.8757 199.91 63.7559ZM217.055 57.4473V55.0352H220.543V48.6523H223.438V55.0352H228.707V57.4473H223.438V69.1367C223.438 70.3737 223.673 71.252 224.143 71.7715C224.613 72.291 225.367 72.5508 226.406 72.5508H228.707V75H226.035C222.374 75 220.543 73.1322 220.543 69.3965V57.4473H217.055ZM240.471 71.0664L242.623 69.8047C244.083 72.1055 246.062 73.2559 248.561 73.2559C250.07 73.2559 251.27 72.9837 252.16 72.4395C253.076 71.8952 253.533 71.1035 253.533 70.0645C253.533 69.6191 253.422 69.2233 253.199 68.877C252.977 68.5059 252.729 68.209 252.457 67.9863C252.21 67.7389 251.752 67.4792 251.084 67.207C250.416 66.9102 249.859 66.6999 249.414 66.5762C248.993 66.4277 248.288 66.1927 247.299 65.8711C246.433 65.599 245.691 65.3268 245.072 65.0547C244.454 64.7826 243.811 64.4238 243.143 63.9785C242.475 63.5085 241.955 62.9395 241.584 62.2715C241.238 61.6035 241.064 60.8366 241.064 59.9707C241.064 58.3132 241.732 56.9648 243.068 55.9258C244.404 54.8867 246.235 54.3672 248.561 54.3672C250.193 54.3672 251.69 54.8001 253.051 55.666C254.411 56.5319 255.389 57.5462 255.982 58.709L254.053 59.9707C253.533 59.1048 252.779 58.3626 251.789 57.7441C250.824 57.1009 249.748 56.7793 248.561 56.7793C247.051 56.7793 245.901 57.0762 245.109 57.6699C244.342 58.2389 243.959 59.0182 243.959 60.0078C243.959 60.5768 244.107 61.0964 244.404 61.5664C244.701 62.0117 245.146 62.4076 245.74 62.7539C246.359 63.0755 246.915 63.3353 247.41 63.5332C247.93 63.7064 248.61 63.929 249.451 64.2012C250.169 64.4238 250.799 64.6341 251.344 64.832C251.913 65.0299 252.531 65.3021 253.199 65.6484C253.867 65.9948 254.424 66.3659 254.869 66.7617C255.314 67.1328 255.686 67.6152 255.982 68.209C256.279 68.778 256.428 69.3965 256.428 70.0645C256.428 71.6478 255.723 72.9837 254.312 74.0723C252.927 75.1361 251.01 75.668 248.561 75.668C246.779 75.668 245.196 75.2721 243.811 74.4805C242.425 73.6641 241.312 72.526 240.471 71.0664ZM258.469 57.4473V55.0352H261.957V48.6523H264.852V55.0352H270.121V57.4473H264.852V69.1367C264.852 70.3737 265.087 71.252 265.557 71.7715C266.027 72.291 266.781 72.5508 267.82 72.5508H270.121V75H267.449C263.788 75 261.957 73.1322 261.957 69.3965V57.4473H258.469ZM275.725 69.8789C275.725 70.819 276.12 71.623 276.912 72.291C277.704 72.9342 278.792 73.2559 280.178 73.2559C281.934 73.2559 283.431 72.6868 284.668 71.5488C285.93 70.4108 286.561 68.9635 286.561 67.207V64.4238C285.472 64.696 283.74 65.0176 281.365 65.3887C279.436 65.735 278.013 66.2669 277.098 66.9844C276.182 67.7018 275.725 68.6667 275.725 69.8789ZM272.83 70.1016C272.83 66.3906 275.7 64.0898 281.439 63.1992C284.012 62.7786 285.719 62.4323 286.561 62.1602V61.0098C286.561 59.7728 286.115 58.7461 285.225 57.9297C284.334 57.1133 283.072 56.7051 281.439 56.7051C280.252 56.7051 279.102 56.9896 277.988 57.5586C276.9 58.1029 275.972 58.8451 275.205 59.7852L273.35 58.2266C274.339 57.0885 275.527 56.1608 276.912 55.4434C278.322 54.7259 279.807 54.3672 281.365 54.3672C286.709 54.3672 289.381 56.9772 289.381 62.1973V75H286.635V71.7344C286.239 72.7982 285.423 73.7259 284.186 74.5176C282.949 75.2845 281.489 75.668 279.807 75.668C277.605 75.668 275.885 75.1484 274.648 74.1094C273.436 73.0703 272.83 71.7344 272.83 70.1016ZM295.133 75V55.0352H297.879V57.9297C298.275 57.0391 298.93 56.2227 299.846 55.4805C300.761 54.7383 301.936 54.3672 303.371 54.3672C304.435 54.3672 305.375 54.5404 306.191 54.8867V57.4844C305.301 57.138 304.361 56.9648 303.371 56.9648C301.689 56.9648 300.378 57.5957 299.438 58.8574C298.497 60.1191 298.027 61.7891 298.027 63.8672V75H295.133ZM307.564 57.4473V55.0352H311.053V48.6523H313.947V55.0352H319.217V57.4473H313.947V69.1367C313.947 70.3737 314.182 71.252 314.652 71.7715C315.122 72.291 315.877 72.5508 316.916 72.5508H319.217V75H316.545C312.883 75 311.053 73.1322 311.053 69.3965V57.4473H307.564ZM322 64.8691C322 61.752 322.841 59.2285 324.523 57.2988C326.206 55.3444 328.383 54.3672 331.055 54.3672C333.776 54.3672 335.916 55.3197 337.475 57.2246C339.033 59.1048 339.812 61.5169 339.812 64.4609C339.812 64.8073 339.788 65.3021 339.738 65.9453H324.895C324.895 67.9492 325.451 69.6686 326.564 71.1035C327.678 72.5384 329.224 73.2559 331.203 73.2559C332.49 73.2559 333.628 72.959 334.617 72.3652C335.607 71.7467 336.374 70.9303 336.918 69.916L339.367 70.6582C338.749 72.1178 337.747 73.3177 336.361 74.2578C334.976 75.1979 333.257 75.668 331.203 75.668C328.432 75.668 326.206 74.6784 324.523 72.6992C322.841 70.7201 322 68.11 322 64.8691ZM324.969 63.7559H336.918C336.918 61.8014 336.386 60.1562 335.322 58.8203C334.258 57.4596 332.836 56.7793 331.055 56.7793C329.249 56.7793 327.789 57.472 326.676 58.8574C325.587 60.2428 325.018 61.8757 324.969 63.7559ZM343.004 64.9805C343.004 61.6901 343.796 59.1048 345.379 57.2246C346.962 55.3197 348.966 54.3672 351.391 54.3672C352.85 54.3672 354.112 54.7878 355.176 55.6289C356.264 56.4701 357.031 57.4349 357.477 58.5234V46.166H360.297V75H357.551V71.4004C357.031 72.6374 356.227 73.6641 355.139 74.4805C354.075 75.2721 352.826 75.668 351.391 75.668C350.376 75.668 349.387 75.4577 348.422 75.0371C347.482 74.6413 346.591 74.0475 345.75 73.2559C344.934 72.4395 344.266 71.3262 343.746 69.916C343.251 68.4811 343.004 66.8359 343.004 64.9805ZM345.898 64.9805C345.898 67.4792 346.443 69.4831 347.531 70.9922C348.62 72.5013 350.03 73.2559 351.762 73.2559C353.37 73.2559 354.73 72.5137 355.844 71.0293C356.982 69.5202 357.551 67.5039 357.551 64.9805C357.551 62.4818 356.982 60.4902 355.844 59.0059C354.73 57.5215 353.37 56.7793 351.762 56.7793C350.005 56.7793 348.583 57.5339 347.494 59.043C346.43 60.5273 345.898 62.5065 345.898 64.9805ZM365.863 52.5859C366.507 50.7552 367.546 49.2956 368.98 48.207C370.415 47.0938 372.073 46.5371 373.953 46.5371C376.303 46.5371 378.171 47.2174 379.557 48.5781C380.967 49.9388 381.672 51.7572 381.672 54.0332C381.672 55.1712 381.437 56.1979 380.967 57.1133C380.521 58.0286 379.965 58.8079 379.297 59.4512C378.654 60.0944 377.998 60.7253 377.33 61.3438C376.687 61.9622 376.13 62.7168 375.66 63.6074C375.215 64.4733 374.992 65.4505 374.992 66.5391V67.541H372.023V66.3535C372.023 65.1413 372.246 64.0527 372.691 63.0879C373.161 62.0983 373.718 61.2695 374.361 60.6016C375.005 59.9336 375.648 59.3027 376.291 58.709C376.934 58.0905 377.479 57.3854 377.924 56.5938C378.394 55.7773 378.629 54.8991 378.629 53.959C378.629 52.4746 378.208 51.2871 377.367 50.3965C376.551 49.4811 375.425 49.0234 373.99 49.0234C371.516 49.0234 369.673 50.5078 368.461 53.4766L365.863 52.5859ZM371.17 75.3711V71.1035H375.846V75.3711H371.17Z" fill="white"/>
</svg>
