<svg width="79" height="36" viewBox="0 0 79 36" fill="none" xmlns="http://www.w3.org/2000/svg">
<path fill-rule="evenodd" clip-rule="evenodd" d="M78.7879 19.4189C78.7879 21.1604 76.0745 22.5721 72.7273 22.5721H6.06061C2.71333 22.5721 0 21.1604 0 19.4189C0 17.6774 2.71333 16.2658 6.06061 16.2658H72.7273C76.0745 16.2658 78.7879 17.6774 78.7879 19.4189ZM15.1515 25.7252H6.06061C6.06061 30.9497 14.2006 35.1847 24.2424 35.1847H54.5455C64.5873 35.1847 72.7273 30.9497 72.7273 25.7252H15.1515ZM12.1212 13.1126H6.06061V6.80631C6.06061 3.32333 11.4873 0.5 18.1818 0.5H60.6061C67.3006 0.5 72.7273 3.32333 72.7273 6.80631V13.1126H12.1212ZM60.6061 8.38288C60.6061 9.25347 61.963 9.95946 63.6364 9.95946C65.3097 9.95946 66.6667 9.25347 66.6667 8.38288C66.6667 7.5123 65.3097 6.80631 63.6364 6.80631C61.963 6.80631 60.6061 7.5123 60.6061 8.38288ZM48.4848 5.22973C48.4848 6.10032 49.8418 6.80631 51.5151 6.80631C53.1885 6.80631 54.5455 6.10032 54.5455 5.22973C54.5455 4.35914 53.1885 3.65315 51.5151 3.65315C49.8418 3.65315 48.4848 4.35914 48.4848 5.22973ZM36.3636 8.38288C36.3636 9.25347 37.7206 9.95946 39.3939 9.95946C41.0673 9.95946 42.4242 9.25347 42.4242 8.38288C42.4242 7.5123 41.0673 6.80631 39.3939 6.80631C37.7206 6.80631 36.3636 7.5123 36.3636 8.38288ZM24.2424 5.22973C24.2424 6.10032 25.5994 6.80631 27.2727 6.80631C28.9461 6.80631 30.303 6.10032 30.303 5.22973C30.303 4.35914 28.9461 3.65315 27.2727 3.65315C25.5994 3.65315 24.2424 4.35914 24.2424 5.22973ZM12.1212 8.38288C12.1212 9.25347 13.4782 9.95946 15.1515 9.95946C16.8248 9.95946 18.1818 9.25347 18.1818 8.38288C18.1818 7.5123 16.8248 6.80631 15.1515 6.80631C13.4782 6.80631 12.1212 7.5123 12.1212 8.38288Z" fill="#FD0B7D"/>
</svg>
