<svg width="58" height="50" viewBox="0 0 58 50" fill="none" xmlns="http://www.w3.org/2000/svg">
<path fill-rule="evenodd" clip-rule="evenodd" d="M58.0755 8.50439C49.4762 12.7232 45.1765 17.6801 45.1765 23.3755C48.8418 23.7974 51.8727 25.2915 54.2693 27.8579C56.6658 30.4243 57.864 33.395 57.864 36.77C57.864 40.356 56.701 43.3794 54.375 45.8403C52.0489 48.3013 49.1238 49.5317 45.5995 49.5317C41.6522 49.5317 38.2337 47.9321 35.3437 44.7329C32.4538 41.5337 31.0088 37.6489 31.0088 33.0786C31.0088 19.3676 38.6917 8.64506 54.0578 0.910645L58.0755 8.50439ZM27.112 8.50439C18.4421 12.7232 14.1073 17.6801 14.1073 23.3755C17.8431 23.7974 20.9092 25.2915 23.3057 27.8579C25.7022 30.4243 26.9005 33.395 26.9005 36.77C26.9005 40.356 25.7199 43.3794 23.3586 45.8403C20.9973 48.3013 18.0545 49.5317 14.5302 49.5317C10.5829 49.5317 7.18202 47.9321 4.32732 44.7329C1.47262 41.5337 0.0452881 37.6489 0.0452881 33.0786C0.0452881 19.3676 7.69296 8.64506 22.9885 0.910645L27.112 8.50439Z" fill="#D6D6D6"/>
</svg>
