<svg width="64" height="64" viewBox="0 0 64 64" fill="none" xmlns="http://www.w3.org/2000/svg">
<circle cx="32" cy="32" r="32" fill="#E8FAFA"/>
<path d="M36.1143 31.5429C37.1242 31.5429 37.9429 30.7242 37.9429 29.7143C37.9429 28.7044 37.1242 27.8857 36.1143 27.8857C35.1044 27.8857 34.2857 28.7044 34.2857 29.7143C34.2857 30.7242 35.1044 31.5429 36.1143 31.5429Z" fill="#23CEC9"/>
<path d="M44.8 20.5714C44.8 20.2077 44.6555 19.8588 44.3983 19.6016C44.1411 19.3444 43.7923 19.2 43.4286 19.2H27.4286V44.8H43.4286C43.7923 44.8 44.1411 44.6555 44.3983 44.3983C44.6555 44.1411 44.8 43.7922 44.8 43.4285V20.5714ZM36.1143 38.8571C34.7581 38.8571 33.4323 38.4549 32.3047 37.7015C31.177 36.948 30.2981 35.877 29.7791 34.6241C29.2601 33.3711 29.1243 31.9923 29.3889 30.6622C29.6535 29.332 30.3066 28.1102 31.2655 27.1512C32.2245 26.1922 33.4464 25.5392 34.7765 25.2746C36.1067 25.01 37.4854 25.1458 38.7384 25.6648C39.9914 26.1838 41.0623 27.0627 41.8158 28.1903C42.5693 29.318 42.9714 30.6437 42.9714 32C42.9694 33.8179 42.2463 35.5609 40.9607 36.8464C39.6752 38.1319 37.9323 38.855 36.1143 38.8571Z" fill="#23CEC9"/>
<path d="M36.1143 26.0571C34.9854 26.0559 33.8795 26.3765 32.9263 26.9814C31.9731 27.5862 31.212 28.4501 30.7323 29.472C30.2525 30.4939 30.0739 31.6314 30.2175 32.7511C30.3611 33.8709 30.8208 34.9265 31.5429 35.7943V34.7428C31.544 34.0009 31.8026 33.2823 32.2744 32.7097C32.7463 32.1372 33.4022 31.7461 34.1303 31.6032C33.7594 31.2147 33.5108 30.7259 33.4152 30.1974C33.3196 29.6689 33.3813 29.124 33.5926 28.6303C33.8038 28.1365 34.1554 27.7156 34.6037 27.4198C35.052 27.1241 35.5772 26.9664 36.1143 26.9664C36.6513 26.9664 37.1766 27.1241 37.6249 27.4198C38.0731 27.7156 38.4247 28.1365 38.636 28.6303C38.8473 29.124 38.9089 29.6689 38.8133 30.1974C38.7178 30.7259 38.4691 31.2147 38.0983 31.6032C38.8264 31.7461 39.4823 32.1372 39.9541 32.7097C40.426 33.2823 40.6846 34.0009 40.6857 34.7428V35.7943C41.4078 34.9265 41.8675 33.8709 42.0111 32.7511C42.1546 31.6314 41.9761 30.4939 41.4963 29.472C41.0166 28.4501 40.2555 27.5862 39.3023 26.9814C38.349 26.3765 37.2432 26.0559 36.1143 26.0571Z" fill="#23CEC9"/>
<path d="M37.4857 32.4572H34.7429C34.1369 32.4579 33.5559 32.6989 33.1274 33.1274C32.6989 33.5559 32.4579 34.1369 32.4571 34.7429V36.6748C33.4992 37.4961 34.7874 37.9428 36.1143 37.9428C37.4411 37.9428 38.7294 37.4961 39.7714 36.6748V34.7429C39.7707 34.1369 39.5296 33.5559 39.1012 33.1274C38.6727 32.6989 38.0917 32.4579 37.4857 32.4572Z" fill="#23CEC9"/>
<path d="M23.7714 29.2572C23.7714 29.0147 23.6751 28.7821 23.5036 28.6107C23.3322 28.4392 23.0996 28.3429 22.8571 28.3429H20.1143C19.8718 28.3429 19.6392 28.4392 19.4678 28.6107C19.2963 28.7821 19.2 29.0147 19.2 29.2572C19.2 29.4997 19.2963 29.7322 19.4678 29.9037C19.6392 30.0751 19.8718 30.1715 20.1143 30.1715H22.8571C23.0996 30.1715 23.3322 30.0751 23.5036 29.9037C23.6751 29.7322 23.7714 29.4997 23.7714 29.2572Z" fill="#23CEC9"/>
<path d="M21.9429 20.5714V21.9428H22.8571C23.3421 21.9428 23.8072 22.1355 24.1501 22.4784C24.4931 22.8213 24.6857 23.2864 24.6857 23.7714C24.6857 24.2563 24.4931 24.7215 24.1501 25.0644C23.8072 25.4073 23.3421 25.6 22.8571 25.6H21.9429V27.4285H22.8571C23.3421 27.4285 23.8072 27.6212 24.1501 27.9641C24.4931 28.307 24.6857 28.7721 24.6857 29.2571C24.6857 29.7421 24.4931 30.2072 24.1501 30.5501C23.8072 30.893 23.3421 31.0857 22.8571 31.0857H21.9429V33.3714H22.8571C23.3421 33.3714 23.8072 33.564 24.1501 33.907C24.4931 34.2499 24.6857 34.715 24.6857 35.2C24.6857 35.6849 24.4931 36.15 24.1501 36.4929C23.8072 36.8359 23.3421 37.0285 22.8571 37.0285H21.9429V38.8571H22.8571C23.3421 38.8571 23.8072 39.0497 24.1501 39.3927C24.4931 39.7356 24.6857 40.2007 24.6857 40.6857C24.6857 41.1706 24.4931 41.6357 24.1501 41.9787C23.8072 42.3216 23.3421 42.5142 22.8571 42.5142H21.9429V43.4285C21.9429 43.7922 22.0873 44.1411 22.3445 44.3983C22.6017 44.6555 22.9506 44.8 23.3143 44.8H26.5143V19.2H23.3143C22.9506 19.2 22.6017 19.3444 22.3445 19.6016C22.0873 19.8588 21.9429 20.2077 21.9429 20.5714Z" fill="#23CEC9"/>
<path d="M20.1143 24.6857H22.8571C23.0996 24.6857 23.3322 24.5894 23.5036 24.418C23.6751 24.2465 23.7714 24.0139 23.7714 23.7715C23.7714 23.529 23.6751 23.2964 23.5036 23.125C23.3322 22.9535 23.0996 22.8572 22.8571 22.8572H20.1143C19.8718 22.8572 19.6392 22.9535 19.4678 23.125C19.2963 23.2964 19.2 23.529 19.2 23.7715C19.2 24.0139 19.2963 24.2465 19.4678 24.418C19.6392 24.5894 19.8718 24.6857 20.1143 24.6857Z" fill="#23CEC9"/>
<path d="M23.7714 35.2001C23.7714 34.9576 23.6751 34.725 23.5036 34.5536C23.3322 34.3821 23.0996 34.2858 22.8571 34.2858H20.1143C19.8718 34.2858 19.6392 34.3821 19.4678 34.5536C19.2963 34.725 19.2 34.9576 19.2 35.2001C19.2 35.4425 19.2963 35.6751 19.4678 35.8466C19.6392 36.018 19.8718 36.1143 20.1143 36.1143H22.8571C23.0996 36.1143 23.3322 36.018 23.5036 35.8466C23.6751 35.6751 23.7714 35.4425 23.7714 35.2001Z" fill="#23CEC9"/>
<path d="M23.7714 40.6856C23.7714 40.4432 23.6751 40.2106 23.5036 40.0391C23.3322 39.8677 23.0996 39.7714 22.8571 39.7714H20.1143C19.8718 39.7714 19.6392 39.8677 19.4678 40.0391C19.2963 40.2106 19.2 40.4432 19.2 40.6856C19.2 40.9281 19.2963 41.1607 19.4678 41.3321C19.6392 41.5036 19.8718 41.5999 20.1143 41.5999H22.8571C23.0996 41.5999 23.3322 41.5036 23.5036 41.3321C23.6751 41.1607 23.7714 40.9281 23.7714 40.6856Z" fill="#23CEC9"/>
</svg>
