<svg width="64" height="64" viewBox="0 0 64 64" fill="none" xmlns="http://www.w3.org/2000/svg">
<circle cx="32" cy="32" r="32" fill="#FEF6EE"/>
<g clip-path="url(#clip0_132_2)">
<path d="M23 31.2C23.6051 31.2 24.1527 30.9572 24.5574 30.5673L26.7775 31.6773C26.7664 31.7677 26.75 31.8566 26.75 31.95C26.75 33.1906 27.7594 34.2 29 34.2C30.2406 34.2 31.25 33.1906 31.25 31.95C31.25 31.6037 31.1648 31.2794 31.0244 30.9861L34.0361 27.9744C34.3295 28.1148 34.6537 28.2 35 28.2C36.2406 28.2 37.25 27.1906 37.25 25.95C37.25 25.7164 37.2041 25.4955 37.1377 25.2835L39.7545 23.3214C40.1115 23.5599 40.5395 23.7 41 23.7C42.2406 23.7 43.25 22.6906 43.25 21.45C43.25 20.2093 42.2406 19.2 41 19.2C39.7594 19.2 38.75 20.2093 38.75 21.45C38.75 21.6835 38.7959 21.9044 38.8623 22.1164L36.2455 24.0785C35.8885 23.84 35.4605 23.7 35 23.7C33.7594 23.7 32.75 24.7093 32.75 25.95C32.75 26.2962 32.8352 26.6205 32.9756 26.9138L29.9639 29.9255C29.6705 29.7851 29.3463 29.7 29 29.7C28.3949 29.7 27.8473 29.9427 27.4426 30.3326L25.2225 29.2226C25.2336 29.1322 25.25 29.0433 25.25 28.95C25.25 27.7093 24.2406 26.7 23 26.7C21.7594 26.7 20.75 27.7093 20.75 28.95C20.75 30.1906 21.7594 31.2 23 31.2Z" fill="#F49C4E"/>
<path d="M44.05 43.3H43.25V27.45C43.25 27.0355 42.9145 26.7 42.5 26.7H39.5C39.0856 26.7 38.75 27.0355 38.75 27.45V43.3H37.25V31.95C37.25 31.5355 36.9145 31.2 36.5 31.2H33.5C33.0856 31.2 32.75 31.5355 32.75 31.95V43.3H31.25V37.95C31.25 37.5355 30.9145 37.2 30.5 37.2H27.5C27.0856 37.2 26.75 37.5355 26.75 37.95V43.3H25.25V34.95C25.25 34.5355 24.9145 34.2 24.5 34.2H21.5C21.0856 34.2 20.75 34.5355 20.75 34.95V43.3H19.95C19.5356 43.3 19.2 43.6355 19.2 44.05C19.2 44.4644 19.5356 44.8 19.95 44.8H44.05C44.4645 44.8 44.8 44.4644 44.8 44.05C44.8 43.6355 44.4645 43.3 44.05 43.3Z" fill="#F49C4E"/>
</g>
<defs>
<clipPath id="clip0_132_2">
<rect width="25.6" height="25.6" fill="white" transform="translate(19.2 19.2)"/>
</clipPath>
</defs>
</svg>
