<svg width="64" height="64" viewBox="0 0 64 64" fill="none" xmlns="http://www.w3.org/2000/svg">
<circle cx="32" cy="32" r="32" fill="#FFEFF3"/>
<g clip-path="url(#clip0_134_3)">
<path d="M36.0776 40.1614C37.2119 40.1614 38.1314 39.2419 38.1314 38.1076V29.7386C38.1314 28.6043 37.2119 27.6848 36.0776 27.6848H21.6288C20.4945 27.6848 19.575 28.6043 19.575 29.7386V38.1076C19.575 39.2419 20.4945 40.1614 21.6288 40.1614H21.8231C22.0008 40.1614 22.1351 40.3221 22.1037 40.497L21.5977 43.3066C21.5596 43.5179 21.8136 43.655 21.9693 43.5071L25.3013 40.3442C25.425 40.2268 25.5891 40.1613 25.7596 40.1613H38.8197H38.8199H36.0776V40.1614Z" fill="#FFA1BC"/>
<path d="M36.0776 27.6848H21.6288C20.4945 27.6848 19.575 28.6043 19.575 29.7386V38.1076C19.575 39.2419 20.4945 40.1614 21.6288 40.1614H21.8611C21.9572 40.1614 22.0494 40.1997 22.1172 40.2679L22.3146 40.4666H24.9698L25.1006 40.3546C25.2463 40.2299 25.4317 40.1614 25.6235 40.1614H36.0776C37.2119 40.1614 38.1314 39.2419 38.1314 38.1076V29.7386C38.1314 28.6043 37.2119 27.6848 36.0776 27.6848Z" fill="#F9CDD9"/>
<path d="M21.823 40.1612C22.0007 40.1612 22.1351 40.3219 22.1036 40.4968L21.5976 43.3064C21.5596 43.5177 21.8136 43.6548 21.9693 43.5069L25.3013 40.344C25.425 40.2266 25.589 40.1612 25.7595 40.1611H25.7596H21.823V40.1612Z" fill="#F9CDD9"/>
<path d="M38.8195 27.6848H35.6397C36.774 27.6848 37.6935 28.6043 37.6935 29.7386V38.1076C37.6935 39.2419 36.774 40.1614 35.6397 40.1614H38.8195C39.9538 40.1614 40.8733 39.2419 40.8733 38.1076V29.7386C40.8733 28.6043 39.9538 27.6848 38.8195 27.6848Z" fill="#F9CDD9"/>
<path d="M39.6002 32.9079C40.7345 32.9079 41.654 31.9884 41.654 30.8542V22.4851C41.654 21.3509 40.7345 20.4314 39.6002 20.4314H25.1805C24.0462 20.4314 23.1267 21.3509 23.1267 22.4851V30.8542C23.1267 31.9884 24.0462 32.9079 25.1805 32.9079H25.3748C25.5525 32.9079 25.6868 33.0687 25.6554 33.2435L25.1494 36.0532C25.1113 36.2645 25.3653 36.4015 25.521 36.2537L28.853 33.0907C28.9767 32.9733 29.1408 32.9078 29.3113 32.9078H39.6002V32.9079Z" fill="#F65D88"/>
<path d="M42.3713 20.4314H39.2056C40.3398 20.4314 41.2593 21.3509 41.2593 22.4851V30.8542C41.2593 31.9884 40.3398 32.9079 39.2056 32.9079H42.3713C43.5055 32.9079 44.425 31.9884 44.425 30.8542V22.4852C44.425 21.3509 43.5055 20.4314 42.3713 20.4314Z" fill="#F65D88"/>
<path d="M25.6553 33.2437L25.1493 36.0533C25.1113 36.2646 25.3653 36.4017 25.521 36.2538L28.853 33.0909C28.9767 32.9735 29.1407 32.908 29.3113 32.908H25.3748C25.5524 32.9081 25.6868 33.0688 25.6553 33.2437Z" fill="#F65D88"/>
<path d="M41.1316 23.3757H26.6203C26.4131 23.3757 26.2453 23.5436 26.2453 23.7507C26.2453 23.9579 26.4131 24.1257 26.6203 24.1257H41.1316C41.3387 24.1257 41.5066 23.9579 41.5066 23.7507C41.5066 23.5436 41.3387 23.3757 41.1316 23.3757Z" fill="#FFEFF3"/>
<path d="M41.1316 26.2947H26.6203C26.4131 26.2947 26.2453 26.4625 26.2453 26.6697C26.2453 26.8768 26.4131 27.0447 26.6203 27.0447H41.1316C41.3387 27.0447 41.5066 26.8768 41.5066 26.6697C41.5066 26.4625 41.3387 26.2947 41.1316 26.2947Z" fill="#FFEFF3"/>
<path d="M33.876 29.2136H26.6203C26.4131 29.2136 26.2453 29.3815 26.2453 29.5886C26.2453 29.7958 26.4131 29.9636 26.6203 29.9636H33.8759C34.0831 29.9636 34.2509 29.7958 34.2509 29.5886C34.2509 29.3815 34.0831 29.2136 33.876 29.2136Z" fill="#FFEFF3"/>
<path d="M42.3713 20.0564H25.1804C23.8412 20.0564 22.7517 21.1459 22.7517 22.4851V30.8542C22.7517 32.1934 23.8412 33.2829 25.1804 33.2829H25.2672L24.7803 35.9867C24.7343 36.2414 24.8565 36.4952 25.0843 36.6181C25.3111 36.7405 25.5905 36.7048 25.7791 36.5257L29.1111 33.3628C29.1654 33.3113 29.2365 33.2829 29.3113 33.2829H42.3713C43.7105 33.2829 44.8 32.1933 44.8 30.8541V22.4851C44.8 21.1459 43.7105 20.0564 42.3713 20.0564ZM44.05 30.8542C44.05 31.7799 43.2969 32.5329 42.3713 32.5329H29.3113C29.0435 32.5329 28.7891 32.6344 28.5948 32.8188L25.6011 35.6607L26.0244 33.31C26.0974 32.9048 25.7858 32.5329 25.3748 32.5329H25.1805C24.2548 32.5329 23.5017 31.7798 23.5017 30.8542V22.4851C23.5017 21.5594 24.2548 20.8064 25.1805 20.8064H42.3713C43.2969 20.8064 44.05 21.5594 44.05 22.4851V30.8542Z" fill="#F65D88"/>
<path d="M40.8734 34.286C40.6662 34.286 40.4984 34.4539 40.4984 34.661V38.1075C40.4984 39.0332 39.7453 39.7863 38.8196 39.7863H25.7595C25.4917 39.7863 25.2373 39.8878 25.0431 40.0722L22.0494 42.914L22.4727 40.5635C22.5456 40.1591 22.235 39.7863 21.8231 39.7863H21.6288C20.7031 39.7863 19.95 39.0332 19.95 38.1075V29.7385C19.95 28.8797 20.5926 28.1623 21.4448 28.0697C21.6507 28.0473 21.7994 27.8623 21.7771 27.6563C21.7547 27.4505 21.5701 27.3014 21.3637 27.324C20.1302 27.4582 19.2 28.4961 19.2 29.7385V38.1075C19.2 39.4467 20.2896 40.5363 21.6288 40.5363H21.7155L21.2286 43.2401C21.1827 43.4949 21.3049 43.7486 21.5328 43.8715C21.7595 43.9938 22.0389 43.9581 22.2274 43.779L25.5595 40.6161C25.6137 40.5646 25.6848 40.5362 25.7596 40.5362H38.8196C40.1588 40.5362 41.2484 39.4467 41.2484 38.1075V34.661C41.2484 34.4539 41.0805 34.286 40.8734 34.286Z" fill="#F65D88"/>
</g>
<defs>
<clipPath id="clip0_134_3">
<rect width="25.6" height="25.6" fill="white" transform="translate(19.2 19.2)"/>
</clipPath>
</defs>
</svg>
