<svg width="162" height="48" viewBox="0 0 162 48" fill="none" xmlns="http://www.w3.org/2000/svg">
<path d="M156 0H6.00034C2.68664 0 0.000366211 2.68628 0.000366211 5.99997V41.9998C0.000366211 45.3135 2.68664 47.9998 6.00034 47.9998H156C159.313 47.9998 162 45.3135 162 41.9998V5.99997C162 2.68628 159.313 0 156 0Z" fill="black"/>
<path d="M156 0.959999C157.336 0.961543 158.617 1.49307 159.562 2.43797C160.507 3.38287 161.038 4.66397 161.039 6.00021V42C161.038 43.3363 160.507 44.6174 159.562 45.5623C158.617 46.5071 157.336 47.0387 156 47.0403H6.00034C4.66408 47.0387 3.383 46.5072 2.43815 45.5623C1.4933 44.6174 0.961838 43.3363 0.960361 42V6.00021C0.961816 4.66395 1.49327 3.38284 2.43813 2.43794C3.38298 1.49303 4.66408 0.961518 6.00034 0.959999H156ZM156 0.000244141H6.00034C4.41048 0.00489784 2.88706 0.63853 1.76286 1.76274C0.638652 2.88694 0.00501991 4.41035 0.000366211 6.00021L0.000366211 42C0.00501991 43.5899 0.638652 45.1133 1.76286 46.2375C2.88706 47.3617 4.41048 47.9953 6.00034 48H156C157.589 47.9953 159.113 47.3617 160.237 46.2375C161.361 45.1133 161.995 43.5899 162 42V6.00021C161.995 4.41035 161.361 2.88694 160.237 1.76274C159.113 0.63853 157.589 0.00489784 156 0.000244141Z" fill="#A6A6A6"/>
<path d="M56.9022 12.2919C56.924 12.7322 56.8559 13.1724 56.7022 13.5856C56.5485 13.9988 56.3122 14.3764 56.0079 14.6954C55.6669 15.0491 55.255 15.3268 54.7992 15.5104C54.3434 15.6939 53.854 15.7792 53.363 15.7606C52.8689 15.765 52.3788 15.6706 51.9217 15.4829C51.4646 15.2953 51.0496 15.0181 50.7011 14.6678C50.3526 14.3174 50.0777 13.9009 49.8924 13.4428C49.7072 12.9847 49.6154 12.4942 49.6225 12.0001C49.6155 11.5059 49.7073 11.0154 49.8925 10.5573C50.0778 10.0991 50.3527 9.68263 50.7012 9.33224C51.0496 8.98185 51.4646 8.70464 51.9217 8.51688C52.3788 8.32913 52.8689 8.23462 53.363 8.23891C53.8711 8.23737 54.374 8.34009 54.8408 8.54071C55.2743 8.71644 55.6602 8.99208 55.967 9.34518L55.3341 9.97854C55.0929 9.69468 54.7898 9.47003 54.448 9.32191C54.1063 9.17379 53.735 9.10617 53.363 9.12427C52.9885 9.12233 52.6175 9.19599 52.2721 9.34084C51.9268 9.4857 51.6142 9.69876 51.3532 9.96727C51.0921 10.2358 50.8879 10.5542 50.7528 10.9035C50.6177 11.2528 50.5546 11.6258 50.567 12.0001C50.5581 12.5607 50.7159 13.1113 51.0203 13.5822C51.3247 14.0531 51.7621 14.4229 52.277 14.6448C52.792 14.8668 53.3612 14.9308 53.9125 14.8288C54.4639 14.7268 54.9725 14.4634 55.374 14.072C55.7434 13.6738 55.9576 13.1563 55.9774 12.6135H53.363V11.7487H56.8518C56.8847 11.9279 56.9016 12.1097 56.9022 12.2919Z" fill="white" stroke="white" stroke-width="0.2" stroke-miterlimit="10"/>
<path d="M62.4333 9.2849H59.1545V11.5677H62.1111V12.4326H59.1545V14.7154H62.4333V15.6001H58.2299V8.40015H62.4333V9.2849Z" fill="white" stroke="white" stroke-width="0.2" stroke-miterlimit="10"/>
<path d="M66.3345 15.6001H65.4087V9.2849H63.3977V8.40015H68.3454V9.2849H66.3345V15.6001Z" fill="white" stroke="white" stroke-width="0.2" stroke-miterlimit="10"/>
<path d="M71.9255 15.6001V8.40015H72.8501V15.6001H71.9255Z" fill="white" stroke="white" stroke-width="0.2" stroke-miterlimit="10"/>
<path d="M76.954 15.6001H76.0282V9.2849H74.0173V8.40015H78.9649V9.2849H76.954V15.6001Z" fill="white" stroke="white" stroke-width="0.2" stroke-miterlimit="10"/>
<path d="M88.3311 14.6697C87.6303 15.3684 86.6811 15.7607 85.6915 15.7607C84.7019 15.7607 83.7527 15.3684 83.0519 14.6697C82.7052 14.3185 82.4326 13.9012 82.2504 13.4426C82.0682 12.984 81.9801 12.4935 81.9913 12.0002C81.9801 11.5068 82.0682 11.0163 82.2504 10.5577C82.4326 10.0991 82.7052 9.6818 83.0519 9.33065C83.3982 8.98417 83.8096 8.70941 84.2623 8.52209C84.715 8.33477 85.2002 8.23858 85.6901 8.23902C86.18 8.23945 86.6651 8.33651 87.1175 8.52463C87.5698 8.71275 87.9807 8.98824 88.3264 9.33533C88.6734 9.68555 88.9464 10.1019 89.1294 10.5597C89.3124 11.0174 89.4016 11.5073 89.3917 12.0002C89.4026 12.4935 89.3143 12.9839 89.1321 13.4425C88.9499 13.901 88.6776 14.3183 88.3311 14.6697ZM83.735 14.0668C84.254 14.5849 84.9575 14.876 85.6909 14.876C86.4243 14.876 87.1277 14.5849 87.6468 14.0668C87.9129 13.7943 88.1211 13.4707 88.2586 13.1155C88.3962 12.7603 88.4603 12.3808 88.4471 12.0002C88.4603 11.6195 88.3962 11.2401 88.2586 10.8849C88.1211 10.5296 87.9129 10.206 87.6468 9.93352C87.1277 9.41538 86.4243 9.12436 85.6909 9.12436C84.9575 9.12436 84.254 9.41538 83.735 9.93352C83.4692 10.2062 83.2614 10.5299 83.1241 10.8851C82.9867 11.2403 82.9227 11.6196 82.9358 12.0002C82.9227 12.3807 82.9867 12.76 83.1241 13.1152C83.2614 13.4704 83.4692 13.7941 83.735 14.0668Z" fill="white" stroke="white" stroke-width="0.2" stroke-miterlimit="10"/>
<path d="M90.6901 15.6001V8.40015H91.8163L95.3154 14.0011H95.3553L95.3154 12.6136V8.40015H96.2412V15.6001H95.2756L91.6146 9.72782H91.5748L91.6146 11.1154V15.6001H90.6901Z" fill="white" stroke="white" stroke-width="0.2" stroke-miterlimit="10"/>
<path d="M81.7629 26.1019C80.7543 26.1057 79.7694 26.4083 78.9327 26.9714C78.0959 27.5345 77.4447 28.333 77.0614 29.2659C76.6781 30.1988 76.5798 31.2244 76.7789 32.2132C76.978 33.202 77.4656 34.1096 78.1802 34.8214C78.8947 35.5332 79.8042 36.0174 80.7937 36.2128C81.7832 36.4081 82.8084 36.3059 83.7399 35.919C84.6713 35.5322 85.4673 34.878 86.0273 34.0391C86.5872 33.2002 86.886 32.2142 86.886 31.2056C86.8959 30.531 86.77 29.8612 86.5159 29.2363C86.2617 28.6113 85.8843 28.0439 85.4064 27.5677C84.9284 27.0915 84.3595 26.7164 83.7336 26.4646C83.1076 26.2127 82.4375 26.0894 81.7629 26.1019ZM81.7629 34.2988C81.1418 34.3431 80.5217 34.1993 79.9833 33.8863C79.445 33.5732 79.0135 33.1053 78.7448 32.5435C78.4761 31.9818 78.3828 31.3521 78.477 30.7365C78.5712 30.121 78.8486 29.548 79.2729 29.0923C79.6973 28.6366 80.2491 28.3192 80.8564 28.1814C81.4637 28.0437 82.0984 28.092 82.6778 28.32C83.2573 28.548 83.7547 28.9452 84.1053 29.4599C84.4558 29.9746 84.6433 30.5828 84.6434 31.2056C84.6622 31.599 84.6022 31.9922 84.4668 32.362C84.3313 32.7319 84.1233 33.0709 83.8549 33.3591C83.5865 33.6474 83.2631 33.879 82.9039 34.0404C82.5446 34.2017 82.1566 34.2896 81.7629 34.2988ZM70.5869 26.1019C69.5783 26.1057 68.5934 26.4082 67.7566 26.9714C66.9198 27.5345 66.2686 28.3329 65.8853 29.2658C65.502 30.1988 65.4036 31.2244 65.6027 32.2131C65.8018 33.2019 66.2894 34.1095 67.004 34.8214C67.7185 35.5332 68.628 36.0174 69.6175 36.2128C70.607 36.4081 71.6322 36.3059 72.5637 35.9191C73.4952 35.5322 74.2911 34.878 74.8511 34.0391C75.4111 33.2002 75.7099 32.2142 75.7099 31.2056C75.7198 30.531 75.5939 29.8613 75.3397 29.2363C75.0855 28.6113 74.7082 28.0439 74.2303 27.5677C73.7523 27.0916 73.1834 26.7164 72.5575 26.4646C71.9316 26.2128 71.2614 26.0894 70.5869 26.1019ZM70.5869 34.2988C69.9657 34.3431 69.3456 34.1993 68.8073 33.8863C68.269 33.5732 67.8374 33.1053 67.5688 32.5435C67.3001 31.9818 67.2068 31.3521 67.301 30.7365C67.3952 30.121 67.6725 29.548 68.0969 29.0923C68.5213 28.6366 69.073 28.3192 69.6803 28.1814C70.2876 28.0437 70.9223 28.092 71.5018 28.32C72.0813 28.548 72.5787 28.9452 72.9293 29.4599C73.2798 29.9746 73.4673 30.5828 73.4673 31.2056C73.4862 31.599 73.4262 31.9922 73.2908 32.362C73.1553 32.7319 72.9473 33.0709 72.6789 33.3591C72.4105 33.6474 72.0871 33.879 71.7278 34.0404C71.3686 34.2018 70.9806 34.2896 70.5869 34.2988ZM57.2924 27.6679V29.833H62.4736C62.3988 30.8486 61.9833 31.8091 61.2942 32.5589C60.775 33.0882 60.1506 33.5027 59.4613 33.7757C58.772 34.0487 58.0332 34.1742 57.2924 34.1441C55.778 34.1236 54.3325 33.5076 53.2688 32.4294C52.2052 31.3513 51.6088 29.8976 51.6088 28.3831C51.6088 26.8685 52.2052 25.4149 53.2688 24.3367C54.3325 23.2585 55.778 22.6425 57.2924 22.622C58.747 22.603 60.1504 23.1588 61.1976 24.1686L62.7249 22.6413C62.0103 21.9339 61.1618 21.3763 60.2289 21.0012C59.2961 20.6261 58.2977 20.441 57.2924 20.4567C56.2418 20.4414 55.1986 20.6352 54.2235 21.0266C53.2485 21.4181 52.3609 21.9995 51.6126 22.7371C50.8642 23.4746 50.2699 24.3536 49.8643 25.3228C49.4587 26.2921 49.2498 27.3323 49.2498 28.3831C49.2498 29.4338 49.4587 30.474 49.8643 31.4433C50.2699 32.4126 50.8642 33.2915 51.6126 34.0291C52.3609 34.7666 53.2485 35.348 54.2235 35.7395C55.1986 36.131 56.2418 36.3247 57.2924 36.3094C58.3189 36.352 59.3428 36.1757 60.296 35.7924C61.2493 35.4091 62.1101 34.8275 62.8215 34.0862C64.0843 32.7077 64.7575 30.8896 64.6968 29.0211C64.7018 28.5673 64.6629 28.1141 64.5807 27.6679H57.2924ZM111.662 29.3497C111.355 28.4252 110.771 27.6176 109.99 27.0366C109.208 26.4555 108.266 26.1292 107.293 26.1019C106.637 26.1059 105.989 26.2429 105.388 26.5046C104.786 26.7662 104.244 27.1471 103.794 27.6241C103.345 28.1012 102.996 28.6645 102.77 29.2801C102.544 29.8957 102.445 30.5507 102.479 31.2056C102.464 31.8766 102.585 32.5437 102.834 33.167C103.083 33.7904 103.455 34.3572 103.927 34.8336C104.4 35.31 104.964 35.6862 105.586 35.9398C106.207 36.1933 106.873 36.319 107.544 36.3094C108.385 36.314 109.214 36.1098 109.956 35.715C110.698 35.3202 111.331 34.7472 111.797 34.0475L110.057 32.8876C109.797 33.3205 109.428 33.6782 108.987 33.9256C108.547 34.173 108.05 34.3016 107.544 34.2988C107.024 34.3187 106.51 34.1819 106.069 33.9061C105.628 33.6303 105.28 33.2283 105.07 32.7522L111.894 29.9297L111.662 29.3497ZM104.702 31.051C104.678 30.6795 104.729 30.307 104.85 29.9552C104.972 29.6034 105.163 29.2794 105.411 29.0022C105.66 28.725 105.961 28.5001 106.297 28.3407C106.633 28.1813 106.998 28.0905 107.37 28.0738C107.757 28.0483 108.144 28.1374 108.48 28.3299C108.817 28.5225 109.09 28.8099 109.265 29.1565L104.702 31.051ZM99.1539 36H101.396V20.9982H99.1539V36ZM95.4807 27.2425H95.4035C95.0625 26.872 94.6464 26.5787 94.183 26.382C93.7196 26.1853 93.2195 26.0898 92.7162 26.1019C91.4002 26.1579 90.1566 26.7201 89.2452 27.6711C88.3338 28.6221 87.825 29.8884 87.825 31.2056C87.825 32.5228 88.3338 33.7892 89.2452 34.7402C90.1566 35.6912 91.4002 36.2534 92.7162 36.3094C93.2215 36.3228 93.7236 36.226 94.1877 36.0257C94.6518 35.8254 95.0667 35.5264 95.4035 35.1495H95.4807V35.8841C95.4807 37.8367 94.4369 38.8806 92.7548 38.8806C92.1943 38.8672 91.6504 38.6872 91.1925 38.3636C90.7346 38.0399 90.3834 37.5873 90.1837 37.0633L88.2311 37.8754C88.5991 38.7714 89.2263 39.5371 90.0322 40.0744C90.8382 40.6117 91.7862 40.8961 92.7548 40.8912C95.3841 40.8912 97.6074 39.3446 97.6074 35.5747V26.4111H95.4807V27.2425ZM92.9096 34.2988C92.1345 34.2331 91.4123 33.8787 90.886 33.3059C90.3597 32.7331 90.0676 31.9835 90.0676 31.2056C90.0676 30.4277 90.3597 29.6782 90.886 29.1054C91.4123 28.5325 92.1345 28.1782 92.9096 28.1125C93.2953 28.1313 93.6732 28.2276 94.0208 28.3956C94.3684 28.5635 94.6786 28.7998 94.933 29.0902C95.1874 29.3807 95.3806 29.7194 95.5013 30.0861C95.622 30.4529 95.6676 30.8401 95.6354 31.2249C95.6656 31.6072 95.6183 31.9918 95.4964 32.3554C95.3745 32.7191 95.1806 33.0544 94.9261 33.3414C94.6716 33.6284 94.3619 33.8611 94.0154 34.0256C93.6689 34.1901 93.2929 34.283 92.9096 34.2988ZM122.167 20.9984H116.801V36H119.04V30.3164H122.167C122.8 30.3511 123.434 30.2563 124.029 30.0379C124.625 29.8194 125.169 29.4819 125.63 29.0458C126.09 28.6098 126.457 28.0844 126.708 27.5018C126.959 26.9192 127.088 26.2916 127.088 25.6574C127.088 25.0231 126.959 24.3955 126.708 23.813C126.457 23.2304 126.09 22.705 125.63 22.269C125.169 21.8329 124.625 21.4954 124.029 21.2769C123.434 21.0585 122.8 20.9637 122.167 20.9984ZM122.225 28.2286H119.04V23.0863H122.225C122.567 23.0792 122.907 23.1405 123.225 23.2665C123.543 23.3925 123.833 23.5808 124.077 23.8202C124.322 24.0597 124.516 24.3455 124.649 24.661C124.781 24.9765 124.85 25.3152 124.85 25.6575C124.85 25.9997 124.781 26.3384 124.649 26.6539C124.516 26.9694 124.322 27.2552 124.077 27.4947C123.833 27.7341 123.543 27.9224 123.225 28.0484C122.907 28.1744 122.567 28.2357 122.225 28.2286ZM136.062 26.0743C135.245 26.0266 134.432 26.2185 133.722 26.6265C133.013 27.0344 132.437 27.6407 132.067 28.3709L134.055 29.2009C134.252 28.8384 134.551 28.5413 134.914 28.3459C135.278 28.1505 135.69 28.0653 136.101 28.1007C136.669 28.0452 137.236 28.2173 137.677 28.579C138.119 28.9408 138.399 29.4628 138.456 30.0307V30.1851C137.737 29.8031 136.935 29.6042 136.12 29.6061C133.978 29.6061 131.797 30.7834 131.797 32.9836C131.818 33.4473 131.932 33.9021 132.132 34.321C132.332 34.7398 132.614 35.1143 132.961 35.4221C133.308 35.7299 133.714 35.9648 134.154 36.1128C134.594 36.2609 135.059 36.319 135.522 36.2838C136.086 36.317 136.648 36.1984 137.151 35.9405C137.653 35.6825 138.077 35.2946 138.378 34.8171H138.456V35.9751H140.617V30.2237C140.617 27.5603 138.629 26.0743 136.062 26.0743ZM135.792 34.2959C135.059 34.2959 134.036 33.9293 134.036 33.0221C134.036 31.8642 135.31 31.4202 136.41 31.4202C137.124 31.4012 137.831 31.5745 138.456 31.9221C138.373 32.5728 138.058 33.1717 137.569 33.6081C137.079 34.0444 136.448 34.2888 135.792 34.2959ZM148.492 26.4024L145.925 32.9063H145.847L143.184 26.4024H140.772L144.767 35.4925L142.489 40.5491H144.824L150.981 26.4024H148.492ZM128.323 36H130.562V20.9984H128.323V36Z" fill="white"/>
<path d="M12.5227 9.04562C12.1292 9.5161 11.9305 10.1192 11.9673 10.7315V37.2707C11.9304 37.8829 12.1291 38.4861 12.5227 38.9565L12.6115 39.0431L27.4782 24.1765V23.8257L12.6115 8.9585L12.5227 9.04562Z" fill="url(#paint0_linear_263_326)"/>
<path d="M32.4335 29.1343L27.4782 24.1766V23.8258L32.4347 18.8694L32.5464 18.9331L38.4177 22.2692C40.0948 23.222 40.0948 24.781 38.4177 25.7344L32.5464 29.0705L32.4335 29.1343Z" fill="url(#paint1_linear_263_326)"/>
<path d="M32.5463 29.0699L27.4782 24.0012L12.5226 38.9566C12.8644 39.258 13.3008 39.4304 13.7562 39.4438C14.2116 39.4573 14.6574 39.311 15.0164 39.0303L32.5463 29.0699Z" fill="url(#paint2_linear_263_326)"/>
<path d="M32.5463 18.9324L15.0164 8.97199C14.6574 8.6913 14.2116 8.54501 13.7562 8.55847C13.3008 8.57193 12.8644 8.74428 12.5226 9.04567L27.4782 24.0012L32.5463 18.9324Z" fill="url(#paint3_linear_263_326)"/>
<path opacity="0.2" d="M32.4346 28.9583L15.0164 38.855C14.6713 39.1177 14.2501 39.261 13.8163 39.2633C13.3826 39.2656 12.9599 39.1268 12.612 38.8678L12.5226 38.9572L12.6114 39.0437L12.612 39.0431C12.9599 39.3023 13.3826 39.4412 13.8163 39.4389C14.2501 39.4366 14.6713 39.2931 15.0164 39.0303L32.5463 29.0699L32.4346 28.9583Z" fill="black"/>
<path opacity="0.12" d="M12.5226 38.7818C12.1292 38.3113 11.9305 37.7082 11.9673 37.0959V37.2713C11.9305 37.8835 12.1292 38.4866 12.5226 38.9571L12.612 38.8677L12.5226 38.7818Z" fill="black"/>
<path opacity="0.12" d="M38.4177 25.5585L32.4346 28.9583L32.5464 29.0699L38.4177 25.7338C38.7631 25.5839 39.0619 25.3442 39.2832 25.0395C39.5044 24.7349 39.6399 24.3765 39.6756 24.0017C39.6014 24.3411 39.449 24.6586 39.2307 24.9288C39.0123 25.199 38.7339 25.4146 38.4177 25.5585Z" fill="black"/>
<path opacity="0.25" d="M15.0164 9.14786L38.4177 22.4438C38.7341 22.5876 39.0125 22.8033 39.2309 23.0736C39.4493 23.344 39.6016 23.6616 39.6756 24.0011C39.6402 23.6262 39.5048 23.2676 39.2835 22.9629C39.0622 22.6581 38.7632 22.4183 38.4177 22.2685L15.0164 8.97254C13.3392 8.01963 11.9673 8.81114 11.9673 10.7321V10.9074C11.9673 8.98658 13.3392 8.19507 15.0164 9.14786Z" fill="white"/>
<defs>
<linearGradient id="paint0_linear_263_326" x1="26.1598" y1="10.4517" x2="6.02102" y2="30.5905" gradientUnits="userSpaceOnUse">
<stop stop-color="#00A0FF"/>
<stop offset="0.00657" stop-color="#00A1FF"/>
<stop offset="0.2601" stop-color="#00BEFF"/>
<stop offset="0.5122" stop-color="#00D2FF"/>
<stop offset="0.7604" stop-color="#00DFFF"/>
<stop offset="1" stop-color="#00E3FF"/>
</linearGradient>
<linearGradient id="paint1_linear_263_326" x1="40.6013" y1="24.0018" x2="11.5652" y2="24.0018" gradientUnits="userSpaceOnUse">
<stop stop-color="#FFE000"/>
<stop offset="0.4087" stop-color="#FFBD00"/>
<stop offset="0.7754" stop-color="#FFA500"/>
<stop offset="1" stop-color="#FF9C00"/>
</linearGradient>
<linearGradient id="paint2_linear_263_326" x1="29.7924" y1="26.7553" x2="2.48262" y2="54.0651" gradientUnits="userSpaceOnUse">
<stop stop-color="#FF3A44"/>
<stop offset="1" stop-color="#C31162"/>
</linearGradient>
<linearGradient id="paint3_linear_263_326" x1="8.75698" y1="0.211525" x2="20.9519" y2="12.4065" gradientUnits="userSpaceOnUse">
<stop stop-color="#32A071"/>
<stop offset="0.0685" stop-color="#2DA771"/>
<stop offset="0.4762" stop-color="#15CF74"/>
<stop offset="0.8009" stop-color="#06E775"/>
<stop offset="1" stop-color="#00F076"/>
</linearGradient>
</defs>
</svg>
