<svg width="80" height="21" viewBox="0 0 80 21" fill="none" xmlns="http://www.w3.org/2000/svg">
<g clip-path="url(#clip0_93_15)">
<path fill-rule="evenodd" clip-rule="evenodd" d="M25.5936 15.9392L26.592 13.6193C27.6704 14.4256 29.1072 14.8448 30.5248 14.8448C31.5712 14.8448 32.2336 14.4417 32.2336 13.8305C32.2176 12.1217 25.9648 13.4593 25.9168 9.17445C25.9008 6.99845 27.8336 5.32165 30.5728 5.32165C32.2016 5.32165 33.8272 5.72485 34.9888 6.64325L34.0544 9.01125C32.992 8.33285 31.6704 7.84965 30.4128 7.84965C29.5584 7.84965 28.9952 8.25285 28.9952 8.76805C29.0112 10.4448 35.312 9.52645 35.376 13.6193C35.376 15.8433 33.4912 17.4081 30.784 17.4081C28.8 17.4049 26.9792 16.9377 25.5936 15.9392ZM63.9328 12.7808C63.4336 13.6512 62.4992 14.2465 61.4176 14.2465C59.8208 14.2465 58.5344 12.9569 58.5344 11.3632C58.5344 9.76965 59.824 8.48005 61.4176 8.48005C62.496 8.48005 63.4336 9.07525 63.9328 9.94565L66.688 8.41605C65.6576 6.57925 63.6736 5.32165 61.4176 5.32165C58.08 5.32165 55.3728 8.02885 55.3728 11.3665C55.3728 14.7041 58.08 17.4112 61.4176 17.4112C63.6896 17.4112 65.6576 16.1696 66.688 14.3168L63.9328 12.7808ZM36.7616 0.307251H40.2112V17.1809H36.7616V0.307251ZM68.0416 0.307251V17.1809H71.4912V12.1185L75.584 17.1809H80L74.7936 11.168L79.6128 5.55845H75.3888L71.488 10.2145V0.307251H68.0416Z" fill="black"/>
<path d="M50.4608 12.8128C49.9616 13.6352 48.9312 14.2464 47.7696 14.2464C46.1728 14.2464 44.8864 12.9568 44.8864 11.3632C44.8864 9.76956 46.176 8.47996 47.7696 8.47996C48.9312 8.47996 49.9616 9.12316 50.4608 9.96156V12.8128ZM50.4608 5.56156V6.93116C49.8976 5.98076 48.496 5.31836 47.0272 5.31836C43.9968 5.31836 41.6128 7.99356 41.6128 11.3472C41.6128 14.7008 43.9968 17.408 47.0272 17.408C48.4928 17.408 49.8944 16.7488 50.4608 15.7952V17.1648H53.9104V5.56156H50.4608Z" fill="black"/>
<path fill-rule="evenodd" clip-rule="evenodd" d="M4.27199 12.7968C4.27199 13.9744 3.32159 14.9248 2.14399 14.9248C0.966391 14.9248 0.0159912 13.9712 0.0159912 12.7968C0.0159912 11.6224 0.966391 10.6688 2.14399 10.6688H4.27199V12.7968ZM5.33439 12.7968C5.33439 11.6192 6.28479 10.6688 7.46239 10.6688C8.63999 10.6688 9.59039 11.6192 9.59039 12.7968V18.1152C9.59039 19.2928 8.63999 20.2432 7.46239 20.2432C6.28479 20.2432 5.33439 19.2928 5.33439 18.1152V12.7968Z" fill="#E01E5A"/>
<path fill-rule="evenodd" clip-rule="evenodd" d="M7.4624 4.256C6.2848 4.256 5.3344 3.3056 5.3344 2.128C5.3344 0.9504 6.2848 0 7.4624 0C8.64 0 9.5904 0.9504 9.5904 2.128V4.256H7.4624ZM7.4624 5.3344C8.64 5.3344 9.5904 6.2848 9.5904 7.4624C9.5904 8.64 8.64 9.5904 7.4624 9.5904H2.128C0.9504 9.5904 0 8.6368 0 7.4624C0 6.288 0.9504 5.3344 2.128 5.3344H7.4624Z" fill="#36C5F0"/>
<path fill-rule="evenodd" clip-rule="evenodd" d="M15.9872 7.4624C15.9872 6.2848 16.9376 5.3344 18.1152 5.3344C19.2928 5.3344 20.2432 6.2848 20.2432 7.4624C20.2432 8.64 19.2928 9.5904 18.1152 9.5904H15.9872V7.4624ZM14.9248 7.4624C14.9248 8.64 13.9744 9.5904 12.7968 9.5904C11.6192 9.5904 10.6688 8.64 10.6688 7.4624V2.128C10.6688 0.9504 11.6192 0 12.7968 0C13.9744 0 14.9248 0.9504 14.9248 2.128V7.4624Z" fill="#2EB67D"/>
<path fill-rule="evenodd" clip-rule="evenodd" d="M12.7968 15.9872C13.9744 15.9872 14.9248 16.9376 14.9248 18.1152C14.9248 19.2928 13.9744 20.2432 12.7968 20.2432C11.6192 20.2432 10.6688 19.2928 10.6688 18.1152V15.9872H12.7968ZM12.7968 14.9248C11.6192 14.9248 10.6688 13.9744 10.6688 12.7968C10.6688 11.6192 11.6192 10.6688 12.7968 10.6688H18.1312C19.3088 10.6688 20.2592 11.6192 20.2592 12.7968C20.2592 13.9744 19.3088 14.9248 18.1312 14.9248H12.7968Z" fill="#ECB22E"/>
</g>
<defs>
<clipPath id="clip0_93_15">
<rect width="80" height="20.2432" fill="white"/>
</clipPath>
</defs>
</svg>
