<svg width="91" height="20" viewBox="0 0 91 20" fill="none" xmlns="http://www.w3.org/2000/svg">
<path d="M1.904 4.696H4.16V9.088H6.872V10.864H4.16V19H1.904V10.864H0.08V9.088H1.904V4.696ZM12.7604 19.24C11.6404 19.24 10.6644 19.016 9.83244 18.568C9.01644 18.104 8.38444 17.472 7.93644 16.672C7.50444 15.872 7.28844 14.968 7.28844 13.96C7.28844 12.984 7.52844 12.096 8.00844 11.296C8.50444 10.48 9.16844 9.84 10.0004 9.376C10.8484 8.896 11.7844 8.656 12.8084 8.656C14.1204 8.656 15.2084 9.04 16.0724 9.808C16.9364 10.576 17.5284 11.632 17.8484 12.976L9.97644 15.736C10.2484 16.232 10.6324 16.624 11.1284 16.912C11.6244 17.184 12.1844 17.32 12.8084 17.32C13.2564 17.32 13.6804 17.24 14.0804 17.08C14.4804 16.92 14.8644 16.712 15.2324 16.456L16.2644 18.112C15.7524 18.448 15.1844 18.72 14.5604 18.928C13.9524 19.136 13.3524 19.24 12.7604 19.24ZM9.49644 13.84C9.48044 14.032 9.48844 14.216 9.52044 14.392L15.3044 12.256C15.0804 11.776 14.7524 11.352 14.3204 10.984C13.9044 10.616 13.3444 10.432 12.6404 10.432C11.7284 10.432 10.9764 10.752 10.3844 11.392C9.79244 12.032 9.49644 12.848 9.49644 13.84ZM23.3332 19.24C22.3892 19.24 21.5332 19.04 20.7652 18.64C20.0132 18.24 19.4132 17.656 18.9652 16.888C18.5332 16.104 18.3172 15.152 18.3172 14.032C18.3172 12.912 18.5412 11.952 18.9892 11.152C19.4532 10.352 20.0692 9.736 20.8372 9.304C21.6212 8.872 22.4772 8.656 23.4052 8.656C24.3012 8.656 25.0612 8.848 25.6852 9.232C26.3092 9.616 26.7972 10.08 27.1492 10.624L27.3172 9.064H29.3812V19H27.1492V17.368C26.9572 17.624 26.6772 17.896 26.3092 18.184C25.9572 18.472 25.5252 18.72 25.0132 18.928C24.5172 19.136 23.9572 19.24 23.3332 19.24ZM23.9332 17.392C24.7492 17.392 25.4452 17.168 26.0212 16.72C26.5972 16.256 26.9732 15.632 27.1492 14.848V12.88C26.9572 12.192 26.5572 11.624 25.9492 11.176C25.3412 10.728 24.6452 10.504 23.8612 10.504C23.2532 10.504 22.7012 10.648 22.2052 10.936C21.7092 11.224 21.3092 11.624 21.0052 12.136C20.7172 12.648 20.5732 13.24 20.5732 13.912C20.5732 14.568 20.7252 15.16 21.0292 15.688C21.3332 16.2 21.7412 16.616 22.2532 16.936C22.7652 17.24 23.3252 17.392 23.9332 17.392ZM33.8431 9.064L33.9871 10.96C34.3711 10.24 34.8911 9.68 35.5471 9.28C36.2191 8.864 36.9871 8.656 37.8511 8.656C38.6671 8.656 39.3471 8.848 39.8911 9.232C40.4511 9.616 40.7951 10.136 40.9231 10.792C41.3231 10.12 41.8431 9.6 42.4831 9.232C43.1391 8.848 43.8351 8.656 44.5711 8.656C45.5311 8.656 46.2911 8.936 46.8511 9.496C47.4271 10.056 47.7311 10.768 47.7631 11.632V19H45.5311V12.472C45.4991 11.96 45.3631 11.536 45.1231 11.2C44.8991 10.848 44.5071 10.656 43.9471 10.624C43.3551 10.624 42.8351 10.8 42.3871 11.152C41.9391 11.488 41.5871 11.936 41.3311 12.496C41.0751 13.056 40.9391 13.648 40.9231 14.272V19H38.6671V12.472C38.6511 11.96 38.5151 11.536 38.2591 11.2C38.0191 10.848 37.6111 10.656 37.0351 10.624C36.4591 10.624 35.9471 10.8 35.4991 11.152C35.0511 11.488 34.6991 11.936 34.4431 12.496C34.1871 13.056 34.0591 13.656 34.0591 14.296V19H31.8271V9.064H33.8431ZM53.6225 19V11.056H51.9185V9.04H53.6225V4.864C53.6225 3.424 53.9505 2.32 54.6065 1.552C55.2625 0.783999 56.2225 0.399999 57.4865 0.399999C57.8065 0.399999 58.1665 0.447999 58.5665 0.543999C58.9825 0.639999 59.3505 0.791999 59.6705 0.999999L58.7105 2.632C58.5665 2.488 58.4065 2.392 58.2305 2.344C58.0545 2.28 57.8785 2.248 57.7025 2.248C57.1265 2.248 56.6705 2.448 56.3345 2.848C56.0145 3.248 55.8545 3.928 55.8545 4.888V9.04H58.7105V11.056H55.8545V19H53.6225ZM60.6065 0.399999H62.8625V19H60.6065V0.399999ZM64.4244 13.936C64.4244 12.944 64.6564 12.048 65.1204 11.248C65.6004 10.448 66.2564 9.816 67.0884 9.352C67.9204 8.888 68.8724 8.656 69.9444 8.656C71.0164 8.656 71.9604 8.888 72.7764 9.352C73.5924 9.816 74.2244 10.448 74.6724 11.248C75.1364 12.048 75.3684 12.944 75.3684 13.936C75.3684 14.928 75.1364 15.824 74.6724 16.624C74.2244 17.424 73.5844 18.064 72.7524 18.544C71.9364 19.008 70.9844 19.24 69.8964 19.24C68.8404 19.24 67.8964 19.024 67.0644 18.592C66.2484 18.16 65.6004 17.544 65.1204 16.744C64.6564 15.944 64.4244 15.008 64.4244 13.936ZM66.6804 13.96C66.6804 14.6 66.8164 15.184 67.0884 15.712C67.3764 16.224 67.7604 16.632 68.2404 16.936C68.7204 17.24 69.2644 17.392 69.8724 17.392C70.4964 17.392 71.0484 17.24 71.5284 16.936C72.0084 16.632 72.3844 16.224 72.6564 15.712C72.9444 15.184 73.0884 14.6 73.0884 13.96C73.0884 13.32 72.9444 12.744 72.6564 12.232C72.3844 11.704 72.0084 11.288 71.5284 10.984C71.0484 10.664 70.4964 10.504 69.8724 10.504C69.2644 10.504 68.7124 10.664 68.2164 10.984C67.7364 11.304 67.3604 11.728 67.0884 12.256C66.8164 12.768 66.6804 13.336 66.6804 13.96ZM83.0058 9.064L85.6938 15.256L88.2138 9.064H90.4218L85.8378 19.6L82.6458 12.784L79.7418 19.6L75.1338 9.064H77.3418L79.9818 15.088L81.8538 10.768L81.0618 9.064H83.0058Z" fill="#1D2830"/>
<path d="M49.0638 17.728C49.0638 17.36 49.1918 17.056 49.4478 16.816C49.7198 16.56 50.0158 16.432 50.3358 16.432C50.6238 16.432 50.9038 16.56 51.1758 16.816C51.4478 17.056 51.5838 17.36 51.5838 17.728C51.5838 18.112 51.4478 18.424 51.1758 18.664C50.9038 18.888 50.6238 19 50.3358 19C50.0158 19 49.7198 18.888 49.4478 18.664C49.1918 18.424 49.0638 18.112 49.0638 17.728Z" fill="#794CFF"/>
</svg>
