<svg width="78" height="16" viewBox="0 0 78 16" fill="none" xmlns="http://www.w3.org/2000/svg">
<path d="M41.1858 7.69019C40.5252 7.69019 40.0491 7.9068 39.5662 8.12749V13.121C40.0287 13.165 40.2938 13.165 40.7326 13.165C42.3181 13.165 42.5354 12.4389 42.5354 11.4251V9.04021C42.5354 8.29152 42.287 7.69019 41.1858 7.69019ZM30.656 7.41767C29.5559 7.41767 29.3049 8.02159 29.3049 8.76954V9.1898H32.0056V8.76954C32.0056 8.02159 31.7546 7.41767 30.656 7.41767ZM10.2577 12.6152C10.2577 13.2069 10.5368 13.5142 11.153 13.5142C11.8139 13.5142 12.2053 13.2987 12.6878 13.0773V11.8928H11.2426C10.5583 11.8928 10.2577 12.0202 10.2577 12.6152ZM51.4287 7.69019C50.3267 7.69019 49.945 8.29152 49.945 9.04021V11.7725C49.945 12.523 50.3267 13.1262 51.4287 13.1262C52.5276 13.1262 52.9123 12.523 52.9123 11.7725V9.04021C52.912 8.29152 52.5273 7.69019 51.4287 7.69019ZM4.85761 15.6788H1.61846V7.83867H0V5.13716H1.61883V3.51463C1.61883 1.3104 2.53229 0 5.12865 0H7.2903V2.70225H5.93917C4.92833 2.70225 4.86168 3.07993 4.86168 3.78456L4.85761 5.13679H7.30511L7.01889 7.8383H4.85761V15.6788ZM15.9276 15.6992H13.228L13.1114 15.0164C11.8787 15.6992 10.7786 15.8099 10.0529 15.8099C8.07305 15.8099 7.01926 14.4873 7.01926 12.6581C7.01926 10.5002 8.24893 9.73003 10.4487 9.73003H12.6878V9.26348C12.6878 8.16192 12.5615 7.83867 10.8675 7.83867H8.09786L8.36853 5.13716H11.3959C15.1127 5.13716 15.9276 6.3113 15.9276 9.28533V15.6992ZM25.1078 8.03677C23.4279 7.7487 22.9454 7.68538 22.1371 7.68538C20.6853 7.68538 20.2465 8.00566 20.2465 9.23867V11.571C20.2465 12.804 20.6853 13.1258 22.1371 13.1258C22.9454 13.1258 23.4279 13.0614 25.1078 12.7722V15.4074C23.6364 15.7373 22.6777 15.824 21.8676 15.824C18.39 15.824 17.0077 13.9952 17.0077 11.3533V9.46084C17.0077 6.81672 18.39 4.98461 21.8676 4.98461C22.6777 4.98461 23.6364 5.07162 25.1078 5.40302V8.03677ZM35.2444 11.3533H29.3045V11.571C29.3045 12.804 29.7436 13.1258 31.1951 13.1258C32.4999 13.1258 33.2964 13.0614 34.9734 12.7722V15.4074C33.356 15.7373 32.5133 15.824 30.9267 15.824C27.4487 15.824 26.0657 13.9952 26.0657 11.3533V9.18943C26.0657 6.87782 27.0917 4.98461 30.6556 4.98461C34.2195 4.98461 35.2444 6.85597 35.2444 9.18943V11.3533ZM45.7738 11.4033C45.7738 13.9567 45.044 15.8192 40.623 15.8192C39.0264 15.8192 38.0899 15.6788 36.3278 15.4078V0.811638L39.5658 0.27141V5.3771C40.2657 5.11717 41.1714 4.98498 41.9956 4.98498C45.234 4.98498 45.7735 6.43682 45.7735 8.76991L45.7738 11.4033ZM56.1537 11.4588C56.1537 13.6616 55.2443 15.7981 51.4394 15.7981C47.6326 15.7981 46.7062 13.6616 46.7062 11.4588V9.33198C46.7062 7.12812 47.6326 4.99128 51.4394 4.99128C55.2443 4.99128 56.1537 7.12812 56.1537 9.33198V11.4588ZM66.5265 11.4588C66.5265 13.6616 65.616 15.7981 61.8118 15.7981C58.0051 15.7981 57.0786 13.6616 57.0786 11.4588V9.33198C57.0786 7.12812 58.0051 4.99128 61.8118 4.99128C65.616 4.99128 66.5265 7.12812 66.5265 9.33198V11.4588ZM77.1715 15.6788H73.6617L70.6932 10.7235V15.6788H67.454V0.811267L70.6932 0.27104V9.84222L73.6617 5.13716H77.1715L73.9308 10.2717L77.1715 15.6788ZM61.8007 7.69019C60.7006 7.69019 60.3189 8.29152 60.3189 9.04021V11.7725C60.3189 12.523 60.7006 13.1262 61.8007 13.1262C62.8993 13.1262 63.2881 12.523 63.2881 11.7725V9.04021C63.2881 8.29152 62.8993 7.69019 61.8007 7.69019Z" fill="#3B5998"/>
</svg>
