<svg width="80" height="25" viewBox="0 0 80 25" fill="none" xmlns="http://www.w3.org/2000/svg">
<path d="M42.162 6.27134C42.162 7.17088 41.4372 7.89521 40.5376 7.89521C39.6381 7.89521 38.9137 7.17088 38.9137 6.27134C38.9137 5.3718 39.6134 4.64747 40.5376 4.64747C41.4626 4.67243 42.162 5.39701 42.162 6.27134ZM35.4658 9.54454V9.94438C35.4658 9.94438 34.6916 8.9445 33.0425 8.9445C30.3195 8.9445 28.1954 11.0184 28.1954 13.8915C28.1954 16.7399 30.2945 18.8385 33.0425 18.8385C34.7166 18.8385 35.4658 17.8141 35.4658 17.8141V18.2387C35.4658 18.4386 35.6161 18.5881 35.8158 18.5881H37.8392V9.1936H35.8158C35.6161 9.19435 35.4658 9.36957 35.4658 9.54454ZM35.4658 15.5655C35.0915 16.1154 34.3417 16.5901 33.4424 16.5901C31.8435 16.5901 30.619 15.5907 30.619 13.8915C30.619 12.1925 31.8435 11.1931 33.4424 11.1931C34.317 11.1931 35.1164 11.6928 35.4658 12.2174V15.5655ZM39.3386 9.19435H41.7369V18.5889H39.3386V9.19435ZM75.1666 8.94426C73.5175 8.94426 72.7428 9.94413 72.7428 9.94413V4.67243H70.3445V18.5889H72.3684C72.5683 18.5889 72.7179 18.4139 72.7179 18.2389V17.8144C72.7179 17.8144 73.4926 18.8387 75.1412 18.8387C77.8647 18.8387 79.9883 16.7406 79.9883 13.8922C79.9883 11.0438 77.8647 8.94426 75.1666 8.94426ZM74.7668 16.5649C73.842 16.5649 73.1177 16.0907 72.7428 15.5406V12.1925C73.1177 11.6928 73.9172 11.1681 74.7668 11.1681C76.3657 11.1681 77.5899 12.1675 77.5899 13.8665C77.5899 15.5655 76.3659 16.5649 74.7668 16.5649ZM69.0955 13.0174V18.6138H66.6966V13.292C66.6966 11.7432 66.1969 11.1182 64.8486 11.1182C64.1243 11.1182 63.3745 11.4931 62.899 12.043V18.5891H60.5012V9.1946H62.3994C62.5993 9.1946 62.7493 9.36957 62.7493 9.54454V9.94438C63.4489 9.21956 64.3731 8.9445 65.2974 8.9445C66.3469 8.9445 67.2215 9.24477 67.9211 9.8443C68.7703 10.5439 69.0955 11.4432 69.0955 13.0174ZM54.6789 8.94426C53.0303 8.94426 52.2556 9.94413 52.2556 9.94413V4.67243H49.8572V18.5889H51.8807C52.0806 18.5889 52.2306 18.4139 52.2306 18.2389V17.8144C52.2306 17.8144 53.0054 18.8387 54.6539 18.8387C57.3775 18.8387 59.5011 16.7406 59.5011 13.8922C59.526 11.0436 57.4025 8.94426 54.6789 8.94426ZM54.2791 16.5649C53.3548 16.5649 52.6305 16.0907 52.2556 15.5406V12.1925C52.6305 11.6928 53.4299 11.1681 54.2791 11.1681C55.8785 11.1681 57.1025 12.1675 57.1025 13.8665C57.1025 15.5655 55.8785 16.5649 54.2791 16.5649ZM47.7833 8.94426C48.5077 8.94426 48.8826 9.06955 48.8826 9.06955V11.2929C48.8826 11.2929 46.8838 10.6183 45.6348 12.0427V18.6136H43.236V9.19435H45.2599C45.4599 9.19435 45.6094 9.36932 45.6094 9.54428V9.94413C46.0596 9.41923 47.0341 8.94426 47.7833 8.94426ZM22.874 17.7392C22.7492 17.4395 22.6242 17.1148 22.4994 16.8397C22.2992 16.3902 22.0993 15.9651 21.9248 15.5655L21.8999 15.5406C20.1757 11.7926 18.3272 7.9953 16.3781 4.24787L16.3032 4.09761C16.0982 3.70886 15.8984 3.31738 15.7039 2.92327C15.4539 2.47325 15.2043 1.99901 14.8044 1.54899C14.005 0.549614 12.8556 -0.000244141 11.6316 -0.000244141C10.3821 -0.000244141 9.25792 0.549617 8.43375 1.49883C8.05886 1.94835 7.78381 2.42308 7.53421 2.8731C7.33922 3.26696 7.13945 3.65844 6.93494 4.04744L6.85981 4.1977C4.93593 7.94512 3.06223 11.7427 1.33828 15.4904L1.31307 15.5401C1.13835 15.9404 0.938177 16.365 0.738252 16.8142C0.613455 17.0893 0.488657 17.3891 0.36386 17.7138C0.0388879 18.638 -0.0612043 19.5126 0.0640922 20.4124C0.338896 22.2864 1.58787 23.8598 3.31207 24.5599C3.96176 24.835 4.63642 24.9598 5.33578 24.9598C5.53571 24.9598 5.78531 24.9348 5.98548 24.9096C6.81014 24.8098 7.65951 24.5352 8.48417 24.0605C9.50851 23.4857 10.4829 22.6615 11.5821 21.4622C12.6814 22.6615 13.6807 23.4857 14.6801 24.0605C15.505 24.5352 16.3541 24.8098 17.1785 24.9096C17.3785 24.9351 17.6286 24.9598 17.8285 24.9598C18.5281 24.9598 19.2275 24.835 19.852 24.5599C21.6011 23.8598 22.8251 22.2614 23.1002 20.4124C23.2986 19.5381 23.1988 18.664 22.874 17.7392ZM11.6064 19.0384C10.257 17.3394 9.38246 15.7405 9.08295 14.3917C8.95815 13.8169 8.93294 13.3172 9.00807 12.8674C9.05774 12.4675 9.20799 12.1176 9.40792 11.8178C9.88265 11.1437 10.6821 10.7186 11.6066 10.7186C12.5314 10.7186 13.3558 11.1185 13.8055 11.8178C14.0055 12.1176 14.1552 12.4678 14.2056 12.8674C14.2803 13.3174 14.2553 13.8418 14.1305 14.3917C13.8297 15.7155 12.9552 17.3147 11.6064 19.0384ZM21.5747 20.2127C21.3999 21.5119 20.5254 22.6365 19.3013 23.1362C18.7018 23.3858 18.0519 23.461 17.4027 23.3858C16.7782 23.3107 16.1532 23.1108 15.504 22.7364C14.6045 22.2362 13.7052 21.4622 12.6556 20.3126C14.3045 18.2891 15.3038 16.4399 15.6787 14.7913C15.8537 14.0165 15.8789 13.3172 15.8035 12.6672C15.7039 12.0427 15.4788 11.4679 15.1291 10.9682C14.3541 9.84355 13.0547 9.19435 11.6061 9.19435C10.1575 9.19435 8.85806 9.869 8.08357 10.9682C7.73389 11.4679 7.50875 12.0427 7.40891 12.6672C7.30908 13.3172 7.33379 14.0415 7.53371 14.7913C7.90835 16.4399 8.9327 18.3138 10.5566 20.3375C9.53222 21.4869 8.60772 22.2617 7.70818 22.7614C7.05848 23.1362 6.43425 23.3362 5.80977 23.4108C5.13536 23.4859 4.48542 23.3858 3.91085 23.1612C2.68684 22.6615 1.81226 21.5368 1.63754 20.2377C1.56266 19.6132 1.61233 18.9887 1.86243 18.2891C1.93705 18.039 2.06235 17.7894 2.18715 17.4897C2.36211 17.0898 2.56154 16.6647 2.76171 16.2402L2.78693 16.1905C4.51063 12.4675 6.35937 8.66995 8.28325 4.97244L8.35812 4.82219C8.5583 4.4478 8.75823 4.04794 8.9579 3.67305C9.15783 3.2732 9.38246 2.89831 9.65751 2.57333C10.1822 1.97431 10.8815 1.64908 11.6563 1.64908C12.431 1.64908 13.1304 1.97431 13.655 2.57333C13.9301 2.89906 14.1547 3.27395 14.3546 3.67305C14.5548 4.04794 14.7547 4.4478 14.9542 4.82219L15.0293 4.97244C16.9238 8.68531 18.748 12.4337 20.5009 16.2155V16.2404C20.7011 16.6408 20.8758 17.09 21.0757 17.4904C21.2005 17.7897 21.3256 18.0393 21.4004 18.2894C21.5999 18.9383 21.6747 19.5633 21.5747 20.2127Z" fill="#FF5A5F"/>
</svg>
