<svg width="201" height="60" viewBox="0 0 201 60" fill="none" xmlns="http://www.w3.org/2000/svg">
<g clip-path="url(#clip0_2_78)">
<rect width="201" height="60" rx="5" fill="#5454D4"/>
<path d="M57.2433 38.21C55.7033 38.21 54.3803 37.902 53.2743 37.286C52.1823 36.656 51.3423 35.774 50.7543 34.64C50.1663 33.492 49.8723 32.141 49.8723 30.587C49.8723 29.033 50.1663 27.689 50.7543 26.555C51.3423 25.421 52.1823 24.546 53.2743 23.93C54.3803 23.3 55.7033 22.985 57.2433 22.985C58.2373 22.985 59.1753 23.139 60.0573 23.447C60.9533 23.755 61.6883 24.196 62.2623 24.77L61.3803 26.912C60.7503 26.38 60.1063 25.995 59.4483 25.757C58.7903 25.505 58.0833 25.379 57.3273 25.379C55.8293 25.379 54.6883 25.834 53.9043 26.744C53.1203 27.64 52.7283 28.921 52.7283 30.587C52.7283 32.253 53.1203 33.541 53.9043 34.451C54.6883 35.361 55.8293 35.816 57.3273 35.816C58.0833 35.816 58.7903 35.697 59.4483 35.459C60.1063 35.207 60.7503 34.815 61.3803 34.283L62.2623 36.425C61.6883 36.985 60.9533 37.426 60.0573 37.748C59.1753 38.056 58.2373 38.21 57.2433 38.21ZM68.3009 38.21C67.2369 38.21 66.3129 37.993 65.5289 37.559C64.7449 37.125 64.1359 36.509 63.7019 35.711C63.2679 34.899 63.0509 33.947 63.0509 32.855C63.0509 31.763 63.2679 30.818 63.7019 30.02C64.1359 29.222 64.7449 28.606 65.5289 28.172C66.3129 27.738 67.2369 27.521 68.3009 27.521C69.3649 27.521 70.2889 27.738 71.0729 28.172C71.8569 28.606 72.4659 29.222 72.8999 30.02C73.3339 30.818 73.5509 31.763 73.5509 32.855C73.5509 33.947 73.3339 34.899 72.8999 35.711C72.4659 36.509 71.8569 37.125 71.0729 37.559C70.2889 37.993 69.3649 38.21 68.3009 38.21ZM68.3009 36.215C69.0849 36.215 69.7149 35.935 70.1909 35.375C70.6669 34.801 70.9049 33.961 70.9049 32.855C70.9049 31.735 70.6669 30.902 70.1909 30.356C69.7149 29.796 69.0849 29.516 68.3009 29.516C67.5169 29.516 66.8869 29.796 66.4109 30.356C65.9349 30.902 65.6969 31.735 65.6969 32.855C65.6969 33.961 65.9349 34.801 66.4109 35.375C66.8869 35.935 67.5169 36.215 68.3009 36.215ZM75.7175 38V27.731H78.2795V29.327C78.6295 28.739 79.0985 28.291 79.6865 27.983C80.2885 27.675 80.9605 27.521 81.7025 27.521C84.1245 27.521 85.3355 28.928 85.3355 31.742V38H82.7105V31.868C82.7105 31.07 82.5565 30.489 82.2485 30.125C81.9545 29.761 81.4925 29.579 80.8625 29.579C80.0925 29.579 79.4765 29.824 79.0145 30.314C78.5665 30.79 78.3425 31.427 78.3425 32.225V38H75.7175ZM92.7057 38.21C89.9897 38.21 88.6317 36.866 88.6317 34.178V29.705H86.6577V27.731H88.6317V24.665H91.2567V27.731H94.3647V29.705H91.2567V34.031C91.2567 34.703 91.4037 35.207 91.6977 35.543C91.9917 35.879 92.4677 36.047 93.1257 36.047C93.3217 36.047 93.5247 36.026 93.7347 35.984C93.9447 35.928 94.1617 35.872 94.3857 35.816L94.7847 37.748C94.5327 37.888 94.2107 38 93.8187 38.084C93.4407 38.168 93.0697 38.21 92.7057 38.21ZM99.4423 38.21C98.7003 38.21 98.0353 38.07 97.4473 37.79C96.8733 37.496 96.4183 37.104 96.0823 36.614C95.7603 36.124 95.5993 35.571 95.5993 34.955C95.5993 34.199 95.7953 33.604 96.1873 33.17C96.5793 32.722 97.2163 32.4 98.0983 32.204C98.9803 32.008 100.163 31.91 101.647 31.91H102.382V31.469C102.382 30.769 102.228 30.265 101.92 29.957C101.612 29.649 101.094 29.495 100.366 29.495C99.7923 29.495 99.2043 29.586 98.6023 29.768C98.0003 29.936 97.3913 30.202 96.7753 30.566L96.0193 28.781C96.3833 28.529 96.8103 28.312 97.3003 28.13C97.8043 27.934 98.3293 27.787 98.8753 27.689C99.4353 27.577 99.9603 27.521 100.45 27.521C101.948 27.521 103.061 27.871 103.789 28.571C104.517 29.257 104.881 30.328 104.881 31.784V38H102.424V36.362C102.186 36.936 101.808 37.391 101.29 37.727C100.772 38.049 100.156 38.21 99.4423 38.21ZM99.9883 36.404C100.674 36.404 101.241 36.166 101.689 35.69C102.151 35.214 102.382 34.612 102.382 33.884V33.422H101.668C100.352 33.422 99.4353 33.527 98.9173 33.737C98.4133 33.933 98.1613 34.297 98.1613 34.829C98.1613 35.291 98.3223 35.669 98.6443 35.963C98.9663 36.257 99.4143 36.404 99.9883 36.404ZM112.292 38.21C111.214 38.21 110.276 37.993 109.478 37.559C108.68 37.111 108.064 36.481 107.63 35.669C107.196 34.857 106.979 33.905 106.979 32.813C106.979 31.721 107.196 30.783 107.63 29.999C108.064 29.201 108.68 28.592 109.478 28.172C110.276 27.738 111.214 27.521 112.292 27.521C112.95 27.521 113.601 27.626 114.245 27.836C114.889 28.046 115.421 28.34 115.841 28.718L115.064 30.545C114.7 30.223 114.287 29.978 113.825 29.81C113.377 29.642 112.943 29.558 112.523 29.558C111.613 29.558 110.906 29.845 110.402 30.419C109.912 30.979 109.667 31.784 109.667 32.834C109.667 33.87 109.912 34.689 110.402 35.291C110.906 35.879 111.613 36.173 112.523 36.173C112.929 36.173 113.363 36.089 113.825 35.921C114.287 35.753 114.7 35.501 115.064 35.165L115.841 37.013C115.421 37.377 114.882 37.671 114.224 37.895C113.58 38.105 112.936 38.21 112.292 38.21ZM122.196 38.21C119.48 38.21 118.122 36.866 118.122 34.178V29.705H116.148V27.731H118.122V24.665H120.747V27.731H123.855V29.705H120.747V34.031C120.747 34.703 120.894 35.207 121.188 35.543C121.482 35.879 121.958 36.047 122.616 36.047C122.812 36.047 123.015 36.026 123.225 35.984C123.435 35.928 123.652 35.872 123.876 35.816L124.275 37.748C124.023 37.888 123.701 38 123.309 38.084C122.931 38.168 122.56 38.21 122.196 38.21ZM134.929 38.21C132.409 38.21 131.149 36.796 131.149 33.968V27.731H133.774V34.01C133.774 34.738 133.921 35.277 134.215 35.627C134.509 35.977 134.978 36.152 135.622 36.152C136.322 36.152 136.896 35.914 137.344 35.438C137.792 34.948 138.016 34.304 138.016 33.506V27.731H140.641V38H138.079V36.467C137.393 37.629 136.343 38.21 134.929 38.21ZM147.132 38.21C146.264 38.21 145.452 38.105 144.696 37.895C143.94 37.685 143.31 37.384 142.806 36.992L143.478 35.27C143.996 35.62 144.577 35.893 145.221 36.089C145.865 36.271 146.509 36.362 147.153 36.362C147.825 36.362 148.322 36.25 148.644 36.026C148.98 35.788 149.148 35.48 149.148 35.102C149.148 34.514 148.714 34.136 147.846 33.968L145.746 33.569C143.968 33.233 143.079 32.309 143.079 30.797C143.079 30.125 143.261 29.544 143.625 29.054C144.003 28.564 144.521 28.186 145.179 27.92C145.837 27.654 146.593 27.521 147.447 27.521C148.175 27.521 148.875 27.626 149.547 27.836C150.219 28.032 150.793 28.333 151.269 28.739L150.555 30.461C150.149 30.125 149.659 29.859 149.085 29.663C148.525 29.467 147.986 29.369 147.468 29.369C146.782 29.369 146.271 29.488 145.935 29.726C145.613 29.964 145.452 30.279 145.452 30.671C145.452 31.287 145.851 31.665 146.649 31.805L148.749 32.204C149.659 32.372 150.345 32.68 150.807 33.128C151.283 33.576 151.521 34.178 151.521 34.934C151.521 35.956 151.122 36.761 150.324 37.349C149.526 37.923 148.462 38.21 147.132 38.21Z" fill="white"/>
</g>
<defs>
<clipPath id="clip0_2_78">
<rect width="201" height="60" rx="4" fill="white"/>
</clipPath>
</defs>
</svg>
