<svg width="150" height="27" viewBox="0 0 150 27" fill="none" xmlns="http://www.w3.org/2000/svg">
<path d="M7.86 20.2C6.5 20.2 5.30667 19.9 4.28 19.3C3.26667 18.7 2.48 17.86 1.92 16.78C1.36 15.6867 1.08 14.4067 1.08 12.94C1.08 11.46 1.36 10.18 1.92 9.1C2.48 8.02 3.26667 7.18667 4.28 6.6C5.29333 6 6.48667 5.7 7.86 5.7C9.23333 5.7 10.4267 6 11.44 6.6C12.4533 7.18667 13.24 8.02 13.8 9.1C14.36 10.18 14.64 11.4533 14.64 12.92C14.64 14.4 14.36 15.6867 13.8 16.78C13.24 17.86 12.4533 18.7 11.44 19.3C10.4267 19.9 9.23333 20.2 7.86 20.2ZM7.86 18C9.15333 18 10.16 17.5533 10.88 16.66C11.6 15.7667 11.96 14.5267 11.96 12.94C11.96 11.34 11.6 10.1 10.88 9.22C10.1733 8.34 9.16667 7.9 7.86 7.9C6.56667 7.9 5.56 8.34 4.84 9.22C4.12 10.1 3.76 11.34 3.76 12.94C3.76 14.5267 4.12 15.7667 4.84 16.66C5.56 17.5533 6.56667 18 7.86 18ZM20.5431 20.2C18.1431 20.2 16.9431 18.8533 16.9431 16.16V10.22H19.4431V16.2C19.4431 16.8933 19.5831 17.4067 19.8631 17.74C20.1431 18.0733 20.5898 18.24 21.2031 18.24C21.8698 18.24 22.4165 18.0133 22.8431 17.56C23.2698 17.0933 23.4831 16.48 23.4831 15.72V10.22H25.9831V20H23.5431V18.54C22.8898 19.6467 21.8898 20.2 20.5431 20.2ZM28.5852 20V10.22H31.0252V11.94C31.5052 10.78 32.5318 10.14 34.1052 10.02L34.8652 9.96L35.0252 12.08L33.5852 12.22C31.9452 12.38 31.1252 13.22 31.1252 14.74V20H28.5852ZM46.9078 20.2C45.8011 20.2 44.7745 20.06 43.8278 19.78C42.8811 19.4867 42.0811 19.0933 41.4278 18.6L42.2078 16.58C42.8611 17.0467 43.5745 17.4067 44.3478 17.66C45.1345 17.9133 45.9878 18.04 46.9078 18.04C47.9611 18.04 48.7278 17.8667 49.2078 17.52C49.6878 17.16 49.9278 16.7 49.9278 16.14C49.9278 15.6733 49.7545 15.3067 49.4078 15.04C49.0745 14.7733 48.4945 14.5533 47.6678 14.38L45.4678 13.92C42.9611 13.3867 41.7078 12.1 41.7078 10.06C41.7078 9.18 41.9411 8.41333 42.4078 7.76C42.8745 7.10667 43.5211 6.6 44.3478 6.24C45.1745 5.88 46.1278 5.7 47.2078 5.7C48.1678 5.7 49.0678 5.84667 49.9078 6.14C50.7478 6.42 51.4478 6.82 52.0078 7.34L51.2278 9.26C50.1211 8.32667 48.7745 7.86 47.1878 7.86C46.2678 7.86 45.5478 8.05333 45.0278 8.44C44.5078 8.82667 44.2478 9.33333 44.2478 9.96C44.2478 10.44 44.4078 10.8267 44.7278 11.12C45.0478 11.4 45.5945 11.62 46.3678 11.78L48.5478 12.24C49.8678 12.52 50.8478 12.96 51.4878 13.56C52.1411 14.16 52.4678 14.96 52.4678 15.96C52.4678 16.8 52.2411 17.54 51.7878 18.18C51.3345 18.82 50.6878 19.32 49.8478 19.68C49.0211 20.0267 48.0411 20.2 46.9078 20.2ZM59.245 20.2C58.1383 20.2 57.185 19.9933 56.385 19.58C55.585 19.1667 54.965 18.58 54.525 17.82C54.0983 17.06 53.885 16.16 53.885 15.12C53.885 14.1067 54.0917 13.22 54.505 12.46C54.9317 11.7 55.5117 11.1067 56.245 10.68C56.9917 10.24 57.8383 10.02 58.785 10.02C60.1717 10.02 61.265 10.46 62.065 11.34C62.8783 12.22 63.285 13.42 63.285 14.94V15.68H56.285C56.4717 17.4267 57.4717 18.3 59.285 18.3C59.8317 18.3 60.3783 18.22 60.925 18.06C61.4717 17.8867 61.9717 17.62 62.425 17.26L63.125 18.94C62.6583 19.3267 62.0717 19.6333 61.365 19.86C60.6583 20.0867 59.9517 20.2 59.245 20.2ZM58.885 11.72C58.1517 11.72 57.5583 11.9467 57.105 12.4C56.6517 12.8533 56.3783 13.4667 56.285 14.24H61.205C61.1517 13.4267 60.925 12.8067 60.525 12.38C60.1383 11.94 59.5917 11.72 58.885 11.72ZM65.2648 20V10.22H67.7048V11.94C68.1848 10.78 69.2115 10.14 70.7848 10.02L71.5448 9.96L71.7048 12.08L70.2648 12.22C68.6248 12.38 67.8048 13.22 67.8048 14.74V20H65.2648ZM76.5823 20L72.3423 10.22H75.0023L77.7223 17.06L80.5423 10.22H83.0423L78.7423 20H76.5823ZM84.0892 8.12V5.68H86.8892V8.12H84.0892ZM84.2492 20V10.22H86.7492V20H84.2492ZM93.8669 20.2C92.8402 20.2 91.9469 19.9933 91.1869 19.58C90.4269 19.1533 89.8402 18.5533 89.4269 17.78C89.0135 17.0067 88.8069 16.1 88.8069 15.06C88.8069 14.02 89.0135 13.1267 89.4269 12.38C89.8402 11.62 90.4269 11.04 91.1869 10.64C91.9469 10.2267 92.8402 10.02 93.8669 10.02C94.4935 10.02 95.1135 10.12 95.7269 10.32C96.3402 10.52 96.8469 10.8 97.2469 11.16L96.5069 12.9C96.1602 12.5933 95.7669 12.36 95.3269 12.2C94.9002 12.04 94.4869 11.96 94.0869 11.96C93.2202 11.96 92.5469 12.2333 92.0669 12.78C91.6002 13.3133 91.3669 14.08 91.3669 15.08C91.3669 16.0667 91.6002 16.8467 92.0669 17.42C92.5469 17.98 93.2202 18.26 94.0869 18.26C94.4735 18.26 94.8869 18.18 95.3269 18.02C95.7669 17.86 96.1602 17.62 96.5069 17.3L97.2469 19.06C96.8469 19.4067 96.3335 19.6867 95.7069 19.9C95.0935 20.1 94.4802 20.2 93.8669 20.2ZM103.405 20.2C102.298 20.2 101.345 19.9933 100.545 19.58C99.7452 19.1667 99.1252 18.58 98.6852 17.82C98.2585 17.06 98.0452 16.16 98.0452 15.12C98.0452 14.1067 98.2518 13.22 98.6652 12.46C99.0918 11.7 99.6718 11.1067 100.405 10.68C101.152 10.24 101.998 10.02 102.945 10.02C104.332 10.02 105.425 10.46 106.225 11.34C107.038 12.22 107.445 13.42 107.445 14.94V15.68H100.445C100.632 17.4267 101.632 18.3 103.445 18.3C103.992 18.3 104.538 18.22 105.085 18.06C105.632 17.8867 106.132 17.62 106.585 17.26L107.285 18.94C106.818 19.3267 106.232 19.6333 105.525 19.86C104.818 20.0867 104.112 20.2 103.405 20.2ZM103.045 11.72C102.312 11.72 101.718 11.9467 101.265 12.4C100.812 12.8533 100.538 13.4667 100.445 14.24H105.365C105.312 13.4267 105.085 12.8067 104.685 12.38C104.298 11.94 103.752 11.72 103.045 11.72ZM113.005 20.2C112.178 20.2 111.405 20.1 110.685 19.9C109.965 19.7 109.365 19.4133 108.885 19.04L109.525 17.4C110.018 17.7333 110.572 17.9933 111.185 18.18C111.798 18.3533 112.412 18.44 113.025 18.44C113.665 18.44 114.138 18.3333 114.445 18.12C114.765 17.8933 114.925 17.6 114.925 17.24C114.925 16.68 114.512 16.32 113.685 16.16L111.685 15.78C109.992 15.46 109.145 14.58 109.145 13.14C109.145 12.5 109.318 11.9467 109.665 11.48C110.025 11.0133 110.518 10.6533 111.145 10.4C111.772 10.1467 112.492 10.02 113.305 10.02C113.998 10.02 114.665 10.12 115.305 10.32C115.945 10.5067 116.492 10.7933 116.945 11.18L116.265 12.82C115.878 12.5 115.412 12.2467 114.865 12.06C114.332 11.8733 113.818 11.78 113.325 11.78C112.672 11.78 112.185 11.8933 111.865 12.12C111.558 12.3467 111.405 12.6467 111.405 13.02C111.405 13.6067 111.785 13.9667 112.545 14.1L114.545 14.48C115.412 14.64 116.065 14.9333 116.505 15.36C116.958 15.7867 117.185 16.36 117.185 17.08C117.185 18.0533 116.805 18.82 116.045 19.38C115.285 19.9267 114.272 20.2 113.005 20.2Z" fill="white"/>
<path d="M134 8.5C134 7.94772 134.448 7.5 135 7.5L143 7.5C143.552 7.5 144 7.94772 144 8.5V16.5C144 17.0523 143.552 17.5 143 17.5C142.448 17.5 142 17.0523 142 16.5V10.9142L133.707 19.2071C133.317 19.5976 132.683 19.5976 132.293 19.2071C131.902 18.8166 131.902 18.1834 132.293 17.7929L140.586 9.5L135 9.5C134.448 9.5 134 9.05228 134 8.5Z" fill="white"/>
</svg>
