<svg width="69" height="69" viewBox="0 0 69 69" fill="none" xmlns="http://www.w3.org/2000/svg">
<path fill-rule="evenodd" clip-rule="evenodd" d="M34.5 69C53.5538 69 69 53.5538 69 34.5C69 15.4462 53.5538 0 34.5 0C15.4462 0 0 15.4462 0 34.5C0 53.5538 15.4462 69 34.5 69Z" fill="#5454D4" fill-opacity="0.1"/>
<path d="M35.0133 47.3334H48.9867C52.6667 47.3334 54.1333 45.08 54.3067 42.3334L55 31.32C55.1867 28.44 52.8933 26 50 26C49.1867 26 48.44 25.5334 48.0667 24.8134L47.1067 22.88C46.4933 21.6667 44.8933 20.6667 43.5333 20.6667H40.48C39.1067 20.6667 37.5067 21.6667 36.8933 22.88L35.9333 24.8134C35.56 25.5334 34.8133 26 34 26C31.1067 26 28.8133 28.44 29 31.32L29.6933 42.3334C29.8533 45.08 31.3333 47.3334 35.0133 47.3334Z" stroke="#5454D4" stroke-width="2" stroke-linecap="round" stroke-linejoin="round"/>
<path d="M40 28.6667H44" stroke="#5454D4" stroke-width="2" stroke-linecap="round" stroke-linejoin="round"/>
<path d="M42 42C44.3867 42 46.3333 40.0533 46.3333 37.6666C46.3333 35.28 44.3867 33.3333 42 33.3333C39.6133 33.3333 37.6667 35.28 37.6667 37.6666C37.6667 40.0533 39.6133 42 42 42Z" stroke="#5454D4" stroke-width="2" stroke-linecap="round" stroke-linejoin="round"/>
</svg>
