<svg width="69" height="69" viewBox="0 0 69 69" fill="none" xmlns="http://www.w3.org/2000/svg">
<path fill-rule="evenodd" clip-rule="evenodd" d="M34.5 69C53.5538 69 69 53.5538 69 34.5C69 15.4462 53.5538 0 34.5 0C15.4462 0 0 15.4462 0 34.5C0 53.5538 15.4462 69 34.5 69Z" fill="#F04037" fill-opacity="0.1"/>
<path d="M43.3467 21.8933L51.2133 25.3867C53.48 26.3867 53.48 28.04 51.2133 29.04L43.3467 32.5333C42.4533 32.9333 40.9867 32.9333 40.0933 32.5333L32.2267 29.04C29.96 28.04 29.96 26.3867 32.2267 25.3867L40.0933 21.8933C40.9867 21.4933 42.4533 21.4933 43.3467 21.8933Z" stroke="#F04037" stroke-width="2" stroke-linecap="round" stroke-linejoin="round"/>
<path d="M30 32.6667C30 33.7867 30.84 35.08 31.8667 35.5334L40.92 39.56C41.6133 39.8667 42.4 39.8667 43.08 39.56L52.1333 35.5334C53.16 35.08 54 33.7867 54 32.6667" stroke="#F04037" stroke-width="2" stroke-linecap="round" stroke-linejoin="round"/>
<path d="M30 39.3333C30 40.5733 30.7333 41.6933 31.8667 42.2L40.92 46.2266C41.6133 46.5333 42.4 46.5333 43.08 46.2266L52.1333 42.2C53.2667 41.6933 54 40.5733 54 39.3333" stroke="#F04037" stroke-width="2" stroke-linecap="round" stroke-linejoin="round"/>
</svg>
