<svg width="69" height="69" viewBox="0 0 69 69" fill="none" xmlns="http://www.w3.org/2000/svg">
<path fill-rule="evenodd" clip-rule="evenodd" d="M34.5 69C53.5538 69 69 53.5538 69 34.5C69 15.4462 53.5538 0 34.5 0C15.4462 0 0 15.4462 0 34.5C0 53.5538 15.4462 69 34.5 69Z" fill="#F04037" fill-opacity="0.1"/>
<path d="M54.3333 38V30C54.3333 23.3334 51.6667 20.6667 45 20.6667H37C30.3333 20.6667 27.6667 23.3334 27.6667 30V38C27.6667 44.6667 30.3333 47.3334 37 47.3334H45C51.6667 47.3334 54.3333 44.6667 54.3333 38Z" stroke="#F04037" stroke-width="2" stroke-linecap="round" stroke-linejoin="round"/>
<path d="M28.36 27.48H53.64" stroke="#F04037" stroke-width="2" stroke-linecap="round" stroke-linejoin="round"/>
<path d="M36.36 20.8133V27.2933" stroke="#F04037" stroke-width="2" stroke-linecap="round" stroke-linejoin="round"/>
<path d="M45.64 20.8133V26.6933" stroke="#F04037" stroke-width="2" stroke-linecap="round" stroke-linejoin="round"/>
<path d="M38 37.2667V35.6667C38 33.6133 39.4533 32.7733 41.2267 33.8L42.6133 34.6L44 35.4C45.7733 36.4267 45.7733 38.1067 44 39.1333L42.6133 39.9333L41.2267 40.7333C39.4533 41.76 38 40.92 38 38.8667V37.2667V37.2667Z" stroke="#F04037" stroke-width="2" stroke-miterlimit="10" stroke-linecap="round" stroke-linejoin="round"/>
</svg>
