<svg width="69" height="69" viewBox="0 0 69 69" fill="none" xmlns="http://www.w3.org/2000/svg">
<path fill-rule="evenodd" clip-rule="evenodd" d="M34.5 69C53.5538 69 69 53.5538 69 34.5C69 15.4462 53.5538 0 34.5 0C15.4462 0 0 15.4462 0 34.5C0 53.5538 15.4462 69 34.5 69Z" fill="#FEDC5A" fill-opacity="0.1"/>
<path d="M49.2 43.6666H34.8C32.8 43.6666 32 42.8133 32 40.6933V39.3066C32 37.1866 32.8 36.3333 34.8 36.3333H49.2C51.2 36.3333 52 37.1866 52 39.3066V40.6933C52 42.8133 51.2 43.6666 49.2 43.6666Z" stroke="#FEDC5A" stroke-width="2" stroke-linecap="round" stroke-linejoin="round"/>
<path d="M46.5334 32.3333H37.4667C35.4667 32.3333 34.6667 31.48 34.6667 29.36V27.9733C34.6667 25.8533 35.4667 25 37.4667 25H46.5334C48.5334 25 49.3334 25.8533 49.3334 27.9733V29.36C49.3334 31.48 48.5334 32.3333 46.5334 32.3333Z" stroke="#FEDC5A" stroke-width="2" stroke-linecap="round" stroke-linejoin="round"/>
<path d="M42 47.3334V44.1334" stroke="#FEDC5A" stroke-width="2" stroke-linecap="round" stroke-linejoin="round"/>
<path d="M42 35.3334V32.6667" stroke="#FEDC5A" stroke-width="2" stroke-linecap="round" stroke-linejoin="round"/>
<path d="M42 20.6667V24.2534" stroke="#292D32" stroke-width="2" stroke-linecap="round" stroke-linejoin="round"/>
</svg>
