<svg width="69" height="69" viewBox="0 0 69 69" fill="none" xmlns="http://www.w3.org/2000/svg">
<path fill-rule="evenodd" clip-rule="evenodd" d="M34.5 69C53.5538 69 69 53.5538 69 34.5C69 15.4462 53.5538 0 34.5 0C15.4462 0 0 15.4462 0 34.5C0 53.5538 15.4462 69 34.5 69Z" fill="#5454D4" fill-opacity="0.1"/>
<path d="M38 35.3333C37.12 35.7733 36.3867 36.4266 35.84 37.24C35.5333 37.7066 35.5333 38.2933 35.84 38.76C36.3867 39.5733 37.12 40.2266 38 40.6666" stroke="#5454D4" stroke-width="2" stroke-linecap="round" stroke-linejoin="round"/>
<path d="M46.28 35.3333C47.16 35.7733 47.8933 36.4266 48.44 37.24C48.7466 37.7066 48.7466 38.2933 48.44 38.76C47.8933 39.5733 47.16 40.2266 46.28 40.6666" stroke="#5454D4" stroke-width="2" stroke-linecap="round" stroke-linejoin="round"/>
<path d="M38 47.3334H46C52.6667 47.3334 55.3334 44.6667 55.3334 38V30C55.3334 23.3334 52.6667 20.6667 46 20.6667H38C31.3334 20.6667 28.6667 23.3334 28.6667 30V38C28.6667 44.6667 31.3334 47.3334 38 47.3334Z" stroke="#5454D4" stroke-width="2" stroke-linecap="round" stroke-linejoin="round"/>
<path d="M28.9733 28.68L54.6 28.6667" stroke="#5454D4" stroke-width="2" stroke-linecap="round" stroke-linejoin="round"/>
</svg>
