<svg width="69" height="69" viewBox="0 0 69 69" fill="none" xmlns="http://www.w3.org/2000/svg">
<path fill-rule="evenodd" clip-rule="evenodd" d="M34.5 69C53.5538 69 69 53.5538 69 34.5C69 15.4462 53.5538 0 34.5 0C15.4462 0 0 15.4462 0 34.5C0 53.5538 15.4462 69 34.5 69Z" fill="#FEDC5A" fill-opacity="0.1"/>
<path d="M37 35.3333C36.12 35.7733 35.3867 36.4266 34.84 37.24C34.5333 37.7066 34.5333 38.2933 34.84 38.76C35.3867 39.5733 36.12 40.2266 37 40.6666" stroke="#FEDC5A" stroke-width="2" stroke-linecap="round" stroke-linejoin="round"/>
<path d="M45.28 35.3333C46.16 35.7733 46.8933 36.4266 47.44 37.24C47.7467 37.7066 47.7467 38.2933 47.44 38.76C46.8933 39.5733 46.16 40.2266 45.28 40.6666" stroke="#FEDC5A" stroke-width="2" stroke-linecap="round" stroke-linejoin="round"/>
<path d="M37 47.3334H45C51.6667 47.3334 54.3333 44.6667 54.3333 38V30C54.3333 23.3334 51.6667 20.6667 45 20.6667H37C30.3333 20.6667 27.6667 23.3334 27.6667 30V38C27.6667 44.6667 30.3333 47.3334 37 47.3334Z" stroke="#FEDC5A" stroke-width="2" stroke-linecap="round" stroke-linejoin="round"/>
<path d="M27.9734 28.68L53.6 28.6667" stroke="#FEDC5A" stroke-width="2" stroke-linecap="round" stroke-linejoin="round"/>
</svg>
